<svg xmlns="http://www.w3.org/2000/svg" viewBox="0 0 476.69 445.66"><title>endorsment</title><path d="M255,19.66C176.93,38.15,184.66,99,145.21,131.23S-5.24,189.55,24.52,292.38c31.18,107.78,118.26,70.56,168.23,70s128,39.45,202.35-16.93S470,201.78,424.5,160.73,377.37-9.32,255,19.66Z" fill="#ffe7af"/><rect x="114.99" y="-13.74" width="249.43" height="420.39" transform="translate(436.16 -43.25) rotate(90)" fill="#7a8db5"/><rect x="34.07" y="76.31" width="411.26" height="240.29" fill="#3e5575"/><path d="M34.07,245.23c64.34,4.44,149.61-11,237.51-46.88C341.3,169.91,401.38,133.23,445.33,95V76.31H34.07Z" fill="#4a6182"/><rect x="50.08" y="89.79" width="380.46" height="213.34" fill="#8fbae5"/><path d="M50.08,241.42c55.27,8.65,135.3-3,218.12-35.54,67.93-26.69,124.94-62.39,162.34-98.62V89.79H50.08Z" fill="#a9d8ff"/><path d="M183.82,115.62s-28.13-28.57-48.27-8.43-4.17,38.2,6.95,59.73,9.72,36.12-1.39,35.42c15.28,15.28,30.46,12,35.72-2.34s-2.15-50.18-2.15-50.18Z" fill="#490d03"/><path d="M154.18,244.88,137.7,227.76l-13.26,13.75L99.61,198.22s-9.84-12-19.78-12S66,187.9,66,187.9l12.15,3.31S55,193.42,60,205.56c2.21-1.65,29.93-6,29.93-6L112,259.34a10.11,10.11,0,0,0,14.13,7.1,10,10,0,0,0,3.51-2.7Z" fill="#ffb7a1"/><path d="M321.61,168.32c-.06-.1-.12-.2-.19-.3l-.17-.24a7.73,7.73,0,0,0-1.06-1.24,2.93,2.93,0,0,0-1.75-.83c-.2-.15-.39-.3-.6-.44a2.86,2.86,0,0,0-3.44.41l-.58-.43a2.94,2.94,0,0,0-3.51.45,7.07,7.07,0,0,0-1.14,1.17,3.47,3.47,0,0,0-1.2-.45,3,3,0,0,0-5,2.44,7.49,7.49,0,0,0-.36.69,9.38,9.38,0,0,0-.53,2.67c-.05.67-.09,1.33-.13,2a5.51,5.51,0,0,0-.73-.66c-2.45-1.75-4.86,1.14-4.51,3.48.4,2.76,1.27,5.43,3.46,7.29.89.76,1.95,1,2.87,1.67a2.57,2.57,0,0,1,1,.06v.14l-1.08-.14-27.59,48.08-12.14-13.67S250,234.75,240.59,235.7c10.49,11.09,29.69,27.71,31.83,28.7a11.61,11.61,0,0,0,16.23-8.15l25.43-68.66a9.93,9.93,0,0,0,5.48-9.09,8.27,8.27,0,0,0-.13-1.71,4.27,4.27,0,0,0,1.65-1.51,2.57,2.57,0,0,0,1.79-2.63A8.94,8.94,0,0,0,321.61,168.32Z" fill="#ffab97"/><path d="M154.18,244.88,137.7,227.76l-13.26,13.75L99.61,198.22s-9.84-12-19.78-12S66,187.9,66,187.9l12.15,3.31S55,193.42,60,205.56c2.21-1.65,29.93-6,29.93-6L112,259.34a10.11,10.11,0,0,0,14.13,7.1,10,10,0,0,0,3.51-2.7Z" fill="none" stroke="#d0635e" stroke-linecap="round" stroke-linejoin="round" stroke-width="0.67"/><path d="M321.61,168.32c-.06-.1-.12-.2-.19-.3l-.17-.24a7.73,7.73,0,0,0-1.06-1.24,2.93,2.93,0,0,0-1.75-.83c-.2-.15-.39-.3-.6-.44a2.86,2.86,0,0,0-3.44.41l-.58-.43a2.94,2.94,0,0,0-3.51.45,7.07,7.07,0,0,0-1.14,1.17,3.47,3.47,0,0,0-1.2-.45,3,3,0,0,0-5,2.44,7.49,7.49,0,0,0-.36.69,9.38,9.38,0,0,0-.53,2.67c-.05.67-.09,1.33-.13,2a5.51,5.51,0,0,0-.73-.66c-2.45-1.75-4.86,1.14-4.51,3.48.4,2.76,1.27,5.43,3.46,7.29.89.76,1.95,1,2.87,1.67a2.57,2.57,0,0,1,1,.06v.14l-1.08-.14-27.59,48.08-12.14-13.67S250,234.75,240.59,235.7c10.49,11.09,29.69,27.71,31.83,28.7a11.61,11.61,0,0,0,16.23-8.15l25.43-68.66a9.93,9.93,0,0,0,5.48-9.09,8.27,8.27,0,0,0-.13-1.71,4.27,4.27,0,0,0,1.65-1.51,2.57,2.57,0,0,0,1.79-2.63A8.94,8.94,0,0,0,321.61,168.32Z" fill="none" stroke="#d0635e" stroke-linecap="round" stroke-linejoin="round" stroke-width="0.67"/><path d="M263.21,220.47l-21.55-22.82c-9.51-9.5-44.41-11.09-44.41-11.09L171.93,192c-9.4,2.75-35.81,35.5-35.81,35.5,4,5.46,14.47,13.71,17.72,17.1.11.12.23.22.34.33,2.22-1.17,10.25-9.62,10.25-9.62L184,274.8l44.66-3.24,8.87-41.47a39.23,39.23,0,0,0,3,5.61C244.51,236,256.09,228.4,263.21,220.47Z" fill="#fff"/><path d="M234.55,211.83v0Z" fill="#7fc3c4"/><path d="M251.65,230.51c-1.52-.36-3.17-.74-5-1.12-13.45-2.93-12.26-16.55-12.15-17.56-.22,1.93-5.73,51.06-18.83,55.82-13.36,4.86-29.76,6.69-38.27-14C171.86,240.1,164.7,216,164.7,216v12.76l-14.84,12.09c1.68,1.48,3.1,2.76,4,3.68.11.12.23.22.34.33,2.22-1.17,10.25-9.62,10.25-9.62L184,274.8l44.66-3.24,8.87-41.47a39.23,39.23,0,0,0,3,5.61C242.69,235.86,247,233.73,251.65,230.51Z" fill="#e5e5e5"/><path d="M263.21,220.47l-21.55-22.82c-9.51-9.5-44.41-11.09-44.41-11.09L171.93,192c-9.4,2.75-35.81,35.5-35.81,35.5,4,5.46,14.47,13.71,17.72,17.1.11.12.23.22.34.33,2.22-1.17,10.25-9.62,10.25-9.62L184,274.8l44.66-3.24,8.87-41.47a39.23,39.23,0,0,0,3,5.61C244.51,236,256.09,228.4,263.21,220.47Z" fill="none" stroke="#aaa" stroke-miterlimit="10" stroke-width="0.91"/><path d="M221,135.06c-.1-5.16-2.13-11-6.18-18-9-15.6-34.15-19.45-45.86-4.07-10.47,13.75-8.48,33.71,1.52,47.2,5,6.68,12,13.6,20.34,14.89,9.12,1.4,15.17-3,20.41-10.26C217.21,156.58,221.22,145,221,135.06Z" fill="#5e1208"/><path d="M205.46,187.55,201.29,164s-3.11,3.57-6.18,4.71-6.42-.92-6.46-.94l-4-2.36L186,189l-8.84,1.9s19.86,17.54,38.56-2.11Z" fill="#ffb7a1"/><path d="M205.46,187.55,201.29,164s-3.11,3.57-6.18,4.71-6.42-.92-6.46-.94l-4-2.36L186,189l-8.84,1.9s19.86,17.54,38.56-2.11Z" fill="none" stroke="#d0635e" stroke-linecap="round" stroke-linejoin="round" stroke-width="0.67"/><path d="M204.21,180.48,201.29,164s-3.11,3.57-6.18,4.71-6.42-.92-6.46-.94l-4-2.36.39,7.13a18,18,0,0,0,15.42,8.34A19.33,19.33,0,0,0,204.21,180.48Z" fill="#dd7d5f"/><path d="M245.56,303.13a152.94,152.94,0,0,0-16.87-31.57l-44.4,3.16c-6.4,8.36-11.61,18.72-15.63,28.41Z" fill="#ed2e53"/><path d="M175.68,154.36a6.84,6.84,0,1,1-7.72-5.82A6.85,6.85,0,0,1,175.68,154.36Z" fill="#ffb7a1"/><path d="M165,154.79s2.55-1.62,5.65,2.78" fill="none" stroke="#d0635e" stroke-linecap="round" stroke-linejoin="round" stroke-width="0.76"/><circle cx="218.2" cy="149.64" r="6.83" transform="translate(25.32 330.76) rotate(-77.64)" fill="#ffb7a1"/><path d="M221.94,148.23s-2.86-1-4.88,4" fill="none" stroke="#d0635e" stroke-linecap="round" stroke-linejoin="round" stroke-width="0.76"/><path d="M204.68,127c-3.05-4.51-5.21-11.13-11.39-12-3.33-.49-6.4.41-9.47.65-3.07,10.1-9.4,18.42-15.38,27.74l0,0a7.69,7.69,0,0,1-.85,1.28A139.71,139.71,0,0,0,172,162c2.09,6.22,7,10.24,13.61,12.95a20.88,20.88,0,0,0,20.09-2.57l1-.73c5.35-4,8.93-8.64,9.68-14.75a106.67,106.67,0,0,0,.54-19.76C212.27,135.79,208.12,132.1,204.68,127Z" fill="#ffb7a1"/><path d="M225,149a6.82,6.82,0,0,0-7.41-6.19,4.29,4.29,0,0,0-.5.07q0-2.79-.22-5.77c-4.6-1.35-8.75-5-12.19-10.13-3.05-4.51-5.21-11.13-11.39-12-3.33-.49-6.4.41-9.47.65-3.07,10.1-9.4,18.42-15.38,27.74l0,0a7.69,7.69,0,0,1-.85,1.28c.23,1.17.49,2.46.79,3.83l-.39,0a6.83,6.83,0,1,0,1.9,13.53,6.66,6.66,0,0,0,1.95-.57c.05.16.1.33.16.5,2.09,6.22,7,10.24,13.61,12.95a20.88,20.88,0,0,0,20.09-2.57l1-.73c5.35-4,8.93-8.64,9.68-14.75,0-.22,0-.45.08-.67A6.81,6.81,0,0,0,225,149Z" fill="none" stroke="#d0635e" stroke-linecap="round" stroke-linejoin="round" stroke-width="0.76"/><polyline points="190.18 141.62 191.08 152.32 193.95 152" fill="none" stroke="#d0635e" stroke-linecap="round" stroke-linejoin="round" stroke-width="1.11"/><path d="M184.11,157.32s8.17,3,19.14-2c0,0-1.29,16.54-7.88,17.1C189.38,173,184.11,157.32,184.11,157.32Z" fill="#f95858"/><path d="M185.55,158.22s7,2.59,16.31-1.68c0,0-1.38,13-7,13.45C189.76,170.42,185.55,158.22,185.55,158.22Z" fill="#7f0808"/><path d="M199.67,165.24a19,19,0,0,0-2.3-.37,18.12,18.12,0,0,0-8,1.1c1.55,2.31,3.46,4.19,5.52,4S198.6,167.71,199.67,165.24Z" fill="#961212"/><path d="M185.55,158.22s.4,1.16,1.1,2.75a19,19,0,0,0,3.25.58,17.15,17.15,0,0,0,11.68-3.09c.2-1.16.28-1.92.28-1.92C192.51,160.81,185.55,158.22,185.55,158.22Z" fill="#fff"/><path d="M208,132.82c-.13-.49-.59-.7-1-.91a10.48,10.48,0,0,0-1.25-.54,9,9,0,0,0-2.62-.46,8.91,8.91,0,0,0-2.57.3,5,5,0,0,0-2.37,1.2.45.45,0,0,0,.44.75c.75-.17,1.45-.53,2.21-.69a9.24,9.24,0,0,1,2.29-.16,8.39,8.39,0,0,1,2.16.45,6.26,6.26,0,0,1,1,.44c.44.23.72.48,1.25.41A.65.65,0,0,0,208,132.82Z"/><path d="M210.68,145c.59,1.4-1.1,3.43-3.77,4.54s-5.3.87-5.88-.53,1.11-3.43,3.77-4.54S210.1,143.57,210.68,145Z" fill="#ff8c71"/><path d="M207.74,138a.5.5,0,0,0-.57.24c0,.09-.09.17-.13.26l-.09.23,0,.07s-.11.24-.05.12l-.07.13c0,.09-.09.18-.14.27l-.16.25-.09.12v0h0a3.12,3.12,0,0,1-.43.46l-.12.1-.06.05c.05,0,.05,0,0,0l-.25.17c-.14.09-.29.17-.44.25a5.22,5.22,0,0,0-.25-.59,4.62,4.62,0,0,0,2.17-2.67,2.42,2.42,0,0,0,.1-1.33.57.57,0,0,0-1.13-.07,1.57,1.57,0,0,0,0,.23q0,.1,0,0c0-.08,0,0,0,.14l0,.28v0a.77.77,0,0,1,0,.15,3.39,3.39,0,0,1-.13.55l-.09.24s0,.05,0,.06l-.06.13a3.62,3.62,0,0,1-1.09,1.29l-.23.15a2,2,0,0,0-1.58-.68c-1.3.15-2.18,1.92-1.95,4s1.48,3.59,2.78,3.45,2.18-1.93,1.95-4c0-.13-.06-.25-.08-.39h0a3.72,3.72,0,0,0,1.3-.66,3.29,3.29,0,0,0,1.43-2.56A.53.53,0,0,0,207.74,138Z" fill="#1d0300"/><path d="M174.31,137.39c0-.51.41-.82.76-1.13a9.7,9.7,0,0,1,1.09-.82,8.84,8.84,0,0,1,2.43-1.08,8.54,8.54,0,0,1,2.56-.33,5,5,0,0,1,2.59.59.45.45,0,0,1-.24.83c-.78,0-1.54-.16-2.31-.13a8.65,8.65,0,0,0-2.26.4,8.16,8.16,0,0,0-2,.95,7.23,7.23,0,0,0-.89.68c-.37.33-.58.64-1.11.7C174.58,138.09,174.3,137.7,174.31,137.39Z"/><path d="M174.68,149.82c-.23,1.49,1.9,3.06,4.76,3.49s5.35-.43,5.58-1.93-1.91-3.06-4.76-3.5S174.91,148.32,174.68,149.82Z" fill="#ff8c71"/><path d="M175.84,142.32a.51.51,0,0,1,.62.09l.18.22c.06.07.1.14.15.21l0,0,.08.11.09.11.2.22.22.21.12.1,0,0h0a4.32,4.32,0,0,0,.53.34l.14.07.07,0h0l.29.11.48.13a4.35,4.35,0,0,1,.1-.63,4.59,4.59,0,0,1-2.75-2.07,2.52,2.52,0,0,1-.42-1.26.61.61,0,0,1,.59-.66.59.59,0,0,1,.49.31,1.12,1.12,0,0,1,.1.22c0,.06,0,.07,0,0s0,0,0,.13l.09.26v0a.58.58,0,0,0,0,.14,4.74,4.74,0,0,0,.26.5l.14.21a.15.15,0,0,1,0,.06l.09.11.4.4a3.93,3.93,0,0,0,1,.59l.26.08a1.94,1.94,0,0,1,1.37-1c1.3-.18,2.58,1.34,2.85,3.38s-.56,3.84-1.87,4-2.57-1.34-2.85-3.38c0-.14,0-.26,0-.4h0a3.83,3.83,0,0,1-1.41-.33,3.25,3.25,0,0,1-2-2.14A.53.53,0,0,1,175.84,142.32Z" fill="#1d0300"/><path d="M303,174.48a3.22,3.22,0,0,0-3.68-2.42c-1.94.26-3.13,2.15-3.38,4-.34,2.32.74,4.61,1.76,6.64.9,1.78,2.76,3.89,5,2.89s2.51-4.23,1.57-6.21c-.26-.56-1.08-.08-.82.48a4.28,4.28,0,0,1,.14,3.33,2.2,2.2,0,0,1-2.4,1.64,3.92,3.92,0,0,1-2.47-2.24,22.36,22.36,0,0,1-1.41-3.17c-.64-1.88-.8-4.3.84-5.75,1.25-1.1,3.65-.74,3.94,1.1.09.61,1,.35.92-.25Z" fill="#d0635e"/><path d="M303,174.2c.15-2.15-.44-4.53.56-6.55a3,3,0,0,1,2.1-1.74,3.87,3.87,0,0,1,2.75.6c1.67,1,2.73,3.15,3.35,5,.53,1.54.85,3.88-1,4.71-2.24,1-4.17-1.18-4.38-3.26-.06-.6-1-.61-.95,0,.22,2.27,1.82,4.49,4.29,4.43a3.39,3.39,0,0,0,2.7-1.34,4.22,4.22,0,0,0,.65-3,10.42,10.42,0,0,0-1-3.21,11.37,11.37,0,0,0-2.12-3.23c-1.63-1.63-4.41-2.38-6.28-.69-2.33,2.12-1.45,5.59-1.64,8.33,0,.62.91.61,1,0Z" fill="#d0635e"/><path d="M309.59,166.78a2.36,2.36,0,0,1,2.06-1.75,3.58,3.58,0,0,1,3.06,1,10,10,0,0,1,2.13,3.26c.59,1.29,1.18,2.65.14,3.89s-3,1.37-4.52,1c-.6-.14-.85.78-.25.92a5.66,5.66,0,0,0,5-.81,3.67,3.67,0,0,0,1.24-1.93,4,4,0,0,0-.34-2.53c-1.09-2.64-2.91-6.12-6.3-5.77a3.35,3.35,0,0,0-3.14,2.47c-.13.6.79.85.92.25Z" fill="#d0635e"/><path d="M315.2,166.16a4.33,4.33,0,0,1,5.69,1,7,7,0,0,1,1.49,3.07,8.88,8.88,0,0,1,.25,1.78,1.17,1.17,0,0,1-.77,1.29,9.51,9.51,0,0,1-4.46.44c-.6-.07-.6.89,0,1a10.45,10.45,0,0,0,4.71-.47,2.11,2.11,0,0,0,1.37-1.3,4.64,4.64,0,0,0,0-2c-.38-2.66-1.87-5.34-4.6-6.13a4.83,4.83,0,0,0-4.16.62c-.48.36,0,1.19.49.82Z" fill="#d0635e"/><path d="M363.63,303.19l-13.36-48.9L355.61,224a14.16,14.16,0,0,0-2.44-10.71L324.76,173.8l-7.29.31a4.71,4.71,0,0,1-4,.91c-.61.91-4.56,2.13-5.16,1.52,0,0-1.52,3.34-3.95,4,1.21.6,2.43,11.84,3,20.65s-4.85,17.62-10,22.17c1.22,3.34,7.6,31,7.6,31l-11.24,48.9Zm-40.7-122.7s15.19,27,15.19,33.1-12.15,8.81-16.7,3S316.86,182,316.86,182Z" fill="#ffab15"/><path d="M363.63,303.19l-13.36-48.9L355.61,224a14.16,14.16,0,0,0-2.44-10.71L324.76,173.8l-7.29.31a4.71,4.71,0,0,1-4,.91c-.61.91-4.56,2.13-5.16,1.52,0,0-1.52,3.34-3.95,4,1.21.6,2.43,11.84,3,20.65s-4.85,17.62-10,22.17c1.22,3.34,7.6,31,7.6,31l-11.24,48.9Zm-40.7-122.7s15.19,27,15.19,33.1-12.15,8.81-16.7,3S316.86,182,316.86,182Z" fill="#ffab15" stroke="#fffdfd" stroke-miterlimit="10" stroke-width="0.91"/><path d="M333.26,239.07c-2.78,0-2.79,4.32,0,4.32S336.05,239.07,333.26,239.07Z" fill="#fff"/><path d="M305.32,238.4c-2.87,0-2.87,4.45,0,4.45S308.19,238.4,305.32,238.4Z" fill="#fff"/><path d="M329.62,253.44c2.81,0,2.81-4.37,0-4.37S326.8,253.44,329.62,253.44Z" fill="#fff"/><path d="M310.89,287.26a2.86,2.86,0,0,0,.4,1.48,1.91,1.91,0,0,0,.48.61,2.06,2.06,0,0,0,.94.6,2,2,0,0,0,1.11.25l.77-.1a2.86,2.86,0,0,0,1.28-.75,2.09,2.09,0,0,0,.49-.61,3,3,0,0,0,.4-1.48l0-.14c0-.11,0-.22,0-.33a2.22,2.22,0,0,0-.26-1.16,2.72,2.72,0,0,0-1.58-1.58,2.3,2.3,0,0,0-1.16-.26l-.79.11a3,3,0,0,0-1.33.77l-.46.61a2.86,2.86,0,0,0-.41,1.51l0,.33Z" fill="#fff"/><path d="M307.1,277.11a2.33,2.33,0,0,0,1,.57,2.36,2.36,0,0,0,1.18,0l.28-.06.51-.22a1.67,1.67,0,0,0,.6-.55,1,1,0,0,0,.28-.47,1.58,1.58,0,0,0,.18-.83L311,275l-.22-.51a1.59,1.59,0,0,0-.55-.6,1.56,1.56,0,0,0-.73-.38l-.28-.06a2.15,2.15,0,0,0-1.18,0,2.21,2.21,0,0,0-1,.56l-.34.45a2.26,2.26,0,0,0-.31,1.11,1.77,1.77,0,0,0,.19.85A1.75,1.75,0,0,0,307.1,277.11Z" fill="#fff"/><path d="M325.67,221.56c-2.65,0-2.65,4.11,0,4.11S328.32,221.56,325.67,221.56Z" fill="#fff"/><path d="M338,217.24l.22.15a2.24,2.24,0,0,0,2.31,0,2.28,2.28,0,0,0,0-3.95,2.24,2.24,0,0,0-2.31,0l-.07,0s0,.08,0,.11a4.61,4.61,0,0,1-1,2.78.36.36,0,0,0,0,.11A2.05,2.05,0,0,0,338,217.24Z" fill="#fff"/><path d="M317.43,252.2l.53.42.63.26a2,2,0,0,0,1.05.05,2,2,0,0,0,1-.31l.65-.5.41-.54a1.94,1.94,0,0,0,.32-1,1.38,1.38,0,0,0,0-.7,2,2,0,0,0-.32-1,2.65,2.65,0,0,0-.41-.54l-.5-.39h0l0,0-.63-.27a2,2,0,0,0-1.06,0,1.32,1.32,0,0,0-.67.18,1.9,1.9,0,0,0-.85.55,7.84,7.84,0,0,0-.5.64l-.27.63a2.08,2.08,0,0,0-.05,1.05,1.32,1.32,0,0,0,.18.67A2,2,0,0,0,317.43,252.2Z" fill="#fff"/><path d="M324.43,238a2.58,2.58,0,0,0,0-2.55l-.1-.17a2.65,2.65,0,1,0-4.58,2.68,2.55,2.55,0,0,0,.95,1,2.73,2.73,0,0,0,1.34.37l.2,0a2.5,2.5,0,0,0,1.28-.34A2.64,2.64,0,0,0,324.43,238Z" fill="#fff"/><path d="M333.55,196.74a1.61,1.61,0,0,0-.54-.59,1.57,1.57,0,0,0-.71-.37l-.28-.09a2.11,2.11,0,0,0-1,0c.64,1.28,1.28,2.58,1.9,3.87a1.64,1.64,0,0,0,.5-.48,1.08,1.08,0,0,0,.27-.46,1.61,1.61,0,0,0,.18-.81c0-.19,0-.37-.07-.56Z" fill="#fff"/><path d="M320.81,278.06a1.91,1.91,0,0,0,0-3.81A1.91,1.91,0,0,0,320.81,278.06Z" fill="#fff"/><path d="M360.79,294.8a1.72,1.72,0,0,0-.78-.5,1.87,1.87,0,0,0-.93-.21,1.82,1.82,0,0,0-.93.21,1.72,1.72,0,0,0-.78.5c-.13.16-.26.32-.38.49a2.35,2.35,0,0,0-.33,1.22l.08.64a2.48,2.48,0,0,0,.63,1.07l.25.22a1.87,1.87,0,0,0,.77.5,1.82,1.82,0,0,0,.92.2,1.86,1.86,0,0,0,.93-.2,1.94,1.94,0,0,0,.77-.5c.12-.16.25-.32.37-.49a2.32,2.32,0,0,0,.33-1.21l-.08-.63a2.42,2.42,0,0,0-.62-1.06Z" fill="#fff"/><path d="M338.21,282l.06-.29a2.66,2.66,0,0,0-.69-2.6l-.54-.42a2.69,2.69,0,0,0-1.35-.37,2.13,2.13,0,0,0-1,.23,2,2,0,0,0-.86.56,2.66,2.66,0,0,0-.69,2.6l.06.29.27.62a1.88,1.88,0,0,0,.67.73,1.28,1.28,0,0,0,.57.34,2,2,0,0,0,1,.22l.7-.09.62-.26a2,2,0,0,0,.73-.68A1.93,1.93,0,0,0,338.21,282Z" fill="#fff"/><path d="M354.78,277.38a2.55,2.55,0,0,0-1.75,1.75,2.5,2.5,0,0,0,.65,2.44,4.93,4.93,0,0,0,1.1.82,2,2,0,0,0,1.5.19,1.93,1.93,0,0,0,1.16-.89l.21-.41-1-3.68A2.55,2.55,0,0,0,354.78,277.38Z" fill="#fff"/><path d="M313.58,189a2.14,2.14,0,0,0,2.63,1.5,2,2,0,0,0,.61-.25L317,190c-.06-1.47-.09-2.79-.12-3.94a2.21,2.21,0,0,0-1-.24l-.59.08a2.26,2.26,0,0,0-1,.58l-.14.19a3.25,3.25,0,0,0-.23.29.69.69,0,0,0-.18.24l-.22.52s0,0,0,.06A2.2,2.2,0,0,0,313.58,189Z" fill="#fff"/><path d="M322.63,178.16c2.55,0,2.83-3.53.83-4.3l-1.84.08C319.82,174.84,320.15,178.16,322.63,178.16Z" fill="#fff"/><path d="M310.48,199.87c-3.19,0-3.2,5,0,5S313.68,199.87,310.48,199.87Z" fill="#fff"/><path d="M336,287.68a1.54,1.54,0,0,0,0,3.08A1.54,1.54,0,0,0,336,287.68Z" fill="#fff"/><path d="M309,260.15c-2.61,0-2.62,4.07,0,4.07S311.58,260.15,309,260.15Z" fill="#fff"/><path d="M311.21,251.48a2.15,2.15,0,0,0,0-1.07,2,2,0,0,0-.52-.88l-.41-.32a2,2,0,0,0-1-.27,1.49,1.49,0,0,0-.78.17,1.52,1.52,0,0,0-.65.42,2,2,0,0,0-.51,1.95c0,.1.05.19.08.29l.19.46a1.52,1.52,0,0,0,.5.54.89.89,0,0,0,.42.24,1.48,1.48,0,0,0,.75.17l.51-.07.46-.19a1.52,1.52,0,0,0,.54-.5,1.36,1.36,0,0,0,.34-.65Z" fill="#fff"/><path d="M307.41,215.29a1.94,1.94,0,0,0-.23,1l.09.71a2.62,2.62,0,0,0,.7,1.19l.54.42a2.62,2.62,0,0,0,1.36.37,3,3,0,0,0,1.91-.79,2,2,0,0,0,.56-.87,1.93,1.93,0,0,0,.23-1l-.09-.72a2.67,2.67,0,0,0-.7-1.19l-.54-.42a2.63,2.63,0,0,0-1.37-.37,1.93,1.93,0,0,0-1,.23,2,2,0,0,0-.87.56A1.93,1.93,0,0,0,307.41,215.29Z" fill="#fff"/><path d="M316.25,230.91c3.14,0,3.15-4.88,0-4.88S313.11,230.91,316.25,230.91Z" fill="#fff"/><path d="M350.27,219.68c-3.5,0-3.51,5.44,0,5.44S353.77,219.68,350.27,219.68Z" fill="#fff"/><path d="M312.43,266.87a2.16,2.16,0,0,0-.58,1.39l.07.53a2,2,0,0,0,.51.86l.4.31a1.94,1.94,0,0,0,1,.27h.31a1.54,1.54,0,0,0,.76-.17,1.44,1.44,0,0,0,.63-.41,1.47,1.47,0,0,0,.41-.63,1.52,1.52,0,0,0,.17-.76c0-.17-.05-.35-.07-.52a2,2,0,0,0-.51-.87l-.4-.31a1.94,1.94,0,0,0-1-.27h-.31a2.16,2.16,0,0,0-1.39.58Z" fill="#fff"/><path d="M343.59,204.28a2,2,0,0,0,2-1.47l-2.14-3C340.73,200,340.76,204.28,343.59,204.28Z" fill="#fff"/><path d="M323.94,294.9a1.05,1.05,0,0,0,.28.48,1.7,1.7,0,0,0,.62.57l.52.22.58.07.58-.07L327,296l.44-.35a1.46,1.46,0,0,0,.45-.7,1.06,1.06,0,0,0,.15-.55,1.61,1.61,0,0,0,0-.87l-.18-.47a1.26,1.26,0,0,0-.3-.57,1.39,1.39,0,0,0-.47-.43,1.8,1.8,0,0,0-1.29-.16l-.44.11-.52.22-.45.34a1.63,1.63,0,0,0-.45.7,1.06,1.06,0,0,0-.15.55,1.14,1.14,0,0,0,0,.58A1.06,1.06,0,0,0,323.94,294.9Z" fill="#fff"/><path d="M333.36,186.61a2.17,2.17,0,0,0,.31,1.14,2.19,2.19,0,0,0,1.92,1.11l-2.11-2.93A2.21,2.21,0,0,0,333.36,186.61Z" fill="#fff"/><path d="M308.16,183.9a2.42,2.42,0,0,0-.34,1.23l.09.65a2.48,2.48,0,0,0,.63,1.07l.23.21a1.9,1.9,0,0,0,.78.5,1.87,1.87,0,0,0,.93.21,1.82,1.82,0,0,0,.93-.21,1.9,1.9,0,0,0,.78-.5l.38-.49a2.4,2.4,0,0,0,.33-1.22l-.09-.65a2.33,2.33,0,0,0-.62-1.06l-.2-.24a1.78,1.78,0,0,0-.79-.5,1.69,1.69,0,0,0-.94-.21,1.71,1.71,0,0,0-.94.21,1.81,1.81,0,0,0-.78.5C308.41,183.57,308.28,183.73,308.16,183.9Z" fill="#fff"/><path d="M302.29,290.67a1.7,1.7,0,0,0-.92-.2l-.64.08a2.39,2.39,0,0,0-1.05.62l-.38.48a2.37,2.37,0,0,0-.33,1.21v.31a1.83,1.83,0,0,0,.21.92,2.44,2.44,0,0,0,2.19,1.47l.64-.08a2.48,2.48,0,0,0,1.06-.62l.37-.48a2.37,2.37,0,0,0,.33-1.21v-.31a2.72,2.72,0,0,0-.7-1.69A1.81,1.81,0,0,0,302.29,290.67Z" fill="#fff"/><path d="M338.69,303.14a1.68,1.68,0,0,0,.73-.47l.36-.46a2.44,2.44,0,0,0,.31-1.15l-.09-.6a2.2,2.2,0,0,0-.58-1l-.27-.33a1.67,1.67,0,0,0-.75-.48,1.69,1.69,0,0,0-.89-.2,1.71,1.71,0,0,0-.89.2,1.7,1.7,0,0,0-.74.48l-.36.46a2.29,2.29,0,0,0-.32,1.17l.08.61a2.2,2.2,0,0,0,.6,1l.33.28a1.73,1.73,0,0,0,.73.47l.14.05h1.47Z" fill="#fff"/><path d="M323.58,302.24a1.73,1.73,0,0,0-1.25-.52l-.91,0a1.74,1.74,0,0,0-1.71,1.43h4.36A1.65,1.65,0,0,0,323.58,302.24Z" fill="#fff"/><path d="M293.84,303.19H298a2.08,2.08,0,0,0-2.07-2.47,1.94,1.94,0,0,0-1.78,1l-.3,1.27C293.83,303.06,293.83,303.12,293.84,303.19Z" fill="#fff"/><path d="M305.93,303a2.5,2.5,0,0,0,0-2.51,2.48,2.48,0,0,0-2.15-1.23l-.6.08a2.08,2.08,0,0,0-1.06.28,2,2,0,0,0-.75.76,2.12,2.12,0,0,0,0,2.11l.27.51c.05.08.12.15.18.23h3.93C305.81,303.11,305.88,303,305.93,303Z" fill="#fff"/><path d="M301.07,229.7c3.14,0,3.14-4.88,0-4.88S297.92,229.7,301.07,229.7Z" fill="#fff"/><path d="M348.14,264.5c-2.89,0-2.89,4.49,0,4.49S351,264.5,348.14,264.5Z" fill="#fff"/><path d="M339.94,225.67c-3.22,0-3.23,5,0,5S343.17,225.67,339.94,225.67Z" fill="#fff"/><path d="M353.31,232.72a2.47,2.47,0,0,0,.79-.14l.73-4.16a2.23,2.23,0,0,0-1.52-.54C350.19,227.88,350.19,232.72,353.31,232.72Z" fill="#fff"/><path d="M347.84,276.75c-2.76,0-2.76,4.28,0,4.28S350.6,276.75,347.84,276.75Z" fill="#fff"/><path d="M329.78,278.7a2.07,2.07,0,0,0,.89-.57,2.12,2.12,0,0,0,.58-.9,2.18,2.18,0,0,0,.24-1.07c0-.25-.07-.49-.1-.74a2.75,2.75,0,0,0-.72-1.23l-.56-.43a2.66,2.66,0,0,0-1.4-.38,2,2,0,0,0-1.08.24,2.5,2.5,0,0,0-1.47,1.47,2.18,2.18,0,0,0-.24,1.07c0,.25.07.49.1.74a2.75,2.75,0,0,0,.72,1.23l.56.43a2.76,2.76,0,0,0,1.41.38A2,2,0,0,0,329.78,278.7Z" fill="#fff"/><path d="M332.69,267.46a1.93,1.93,0,0,0,.94-1.63,1.9,1.9,0,0,0-.94-1.62l-.44-.28a2.21,2.21,0,0,0-3.32,1.9,2.21,2.21,0,0,0,3.32,1.91Z" fill="#fff"/><path d="M346.48,299.39a1.65,1.65,0,0,0,.76.48,1.76,1.76,0,0,0,.9.21,2.36,2.36,0,0,0,1.19-.32,2.39,2.39,0,0,0,.85-.85l.07-.11,0-.06.24-.55a1.52,1.52,0,0,0,.08-.63,1.86,1.86,0,0,0-.1-.66l0,0c0-.09-.07-.18-.11-.27a1.58,1.58,0,0,0-.43-.68l-.43-.33-.52-.22h-.08l-.61-.08a.71.71,0,0,0-.32,0,1.65,1.65,0,0,0-.86.27l-.06,0-.12.08a2.41,2.41,0,0,0-.84.84,2.39,2.39,0,0,0-.32,1.19l.08.63A2.39,2.39,0,0,0,346.48,299.39Z" fill="#fff"/><path d="M345.25,290.07l.21.49a1.55,1.55,0,0,0,.53.58,1.13,1.13,0,0,0,.45.26,1.56,1.56,0,0,0,.79.18l.55-.08.49-.2a1.64,1.64,0,0,0,.58-.53,1.51,1.51,0,0,0,.36-.7l.05-.29a2.36,2.36,0,0,0,0-1.12,2.1,2.1,0,0,0-.54-.92l-.43-.33a2.09,2.09,0,0,0-1.06-.29,1.61,1.61,0,0,0-.81.18,1.57,1.57,0,0,0-.67.44,2.1,2.1,0,0,0-.54.92,2.13,2.13,0,0,0,0,1.12C345.22,289.87,345.24,290,345.25,290.07Z" fill="#fff"/><path d="M343.59,255.79c3.5,0,3.5-5.43,0-5.43S340.08,255.79,343.59,255.79Z" fill="#fff"/><path d="M343.89,246c3.39,0,3.4-5.27,0-5.27S340.5,246,343.89,246Z" fill="#fff"/><path d="M305,254.29c.6,2.73,10.93,9.72,24.29,10.33s21-10.33,21-10.33S323.54,261.88,305,254.29Z" fill="#7fc3c4"/><rect x="125.42" y="281.57" width="300.14" height="4.4" fill="#fff"/><rect x="60.81" y="281.57" width="206.17" height="4.4" fill="#fe6160"/><rect x="60.59" y="289.27" width="3.58" height="8.26" fill="#fff"/><rect x="66.03" y="289.27" width="3.58" height="8.26" fill="#fff"/><rect x="82.14" y="289.27" width="3.58" height="8.26" fill="#fff"/><polygon points="74.09 289.27 74.09 297.53 82.14 293.4 74.09 289.27" fill="#fff"/><polygon points="417.32 300.74 412.79 300.74 412.79 297.16 414.6 297.16 414.6 299.09 417.32 299.09 417.32 300.74" fill="#fff"/><polygon points="425.07 300.74 420.94 300.74 420.94 299.09 423.25 299.09 423.25 296.52 425.07 296.52 425.07 300.74" fill="#fff"/><polygon points="425.07 293.95 423.25 293.95 423.25 291.2 420.83 291.2 420.83 289.55 425.07 289.55 425.07 293.95" fill="#fff"/><polygon points="414.6 294.23 412.79 294.23 412.79 289.55 417.92 289.55 417.92 291.2 414.6 291.2 414.6 294.23" fill="#fff"/><circle cx="377.91" cy="121.73" r="27.2" transform="translate(196.73 475.01) rotate(-80.7)" fill="#686bbc"/><rect x="362.88" y="117.99" width="5.55" height="14.9" fill="#fff"/><path d="M393,117.94A1.94,1.94,0,0,0,391,116H376.65v-3.1a3.19,3.19,0,0,0-3.19-3.19h-.93a2.15,2.15,0,0,0-2.15,2.15v17.64a4.24,4.24,0,0,0,4.24,4.23h12.5a3.91,3.91,0,0,0,3.9-3.9V123.1h0a1.93,1.93,0,0,0,1.93-1.92Z" fill="#fff"/><circle cx="427.72" cy="80.87" r="27.2" fill="#fe6160"/><path d="M427.72,91.78h0c-11.54-5.64-11.56-12.56-11.54-13.24v-.05a6,6,0,0,1,6.24-6,5.4,5.4,0,0,1,5.3,3.76A5.4,5.4,0,0,1,433,72.5a6,6,0,0,1,6.24,6v.05C439.28,79.22,439.26,86.14,427.72,91.78Z" fill="#fff"/><path d="M288.14,100.91A27.2,27.2,0,1,1,327,125.49c1.94,6.6,6.27,17.2,14.46,20.07-21.51,1.4-29.69-11.95-32.33-18.17A27.2,27.2,0,0,1,288.14,100.91Z" fill="#def2ff"/><circle cx="325.67" cy="103.65" r="3.04" fill="#686bbc"/><circle cx="315.95" cy="103.65" r="3.04" fill="#686bbc"/><circle cx="306.23" cy="103.65" r="3.04" fill="#686bbc"/><rect x="374.26" y="161.96" width="13.97" height="4.25" fill="#fff"/><rect x="374.26" y="169.86" width="34.32" height="4.25" fill="#fff"/><rect x="374.26" y="177.75" width="45.56" height="4.25" fill="#fff"/><rect x="374.26" y="185.65" width="23.39" height="4.25" fill="#fff"/><rect x="374.26" y="193.55" width="10.33" height="4.25" fill="#fff"/><rect x="374.26" y="201.44" width="32.8" height="4.25" fill="#fff"/><rect x="374.26" y="209.34" width="9.11" height="4.25" fill="#fff"/><rect x="374.26" y="217.24" width="36.14" height="4.25" fill="#fff"/><rect x="374.26" y="225.13" width="25.82" height="4.25" fill="#fff"/><rect x="374.26" y="233.03" width="6.07" height="4.25" fill="#fff"/><rect x="374.26" y="240.93" width="27.03" height="4.25" fill="#fff"/><rect x="374.26" y="248.82" width="45.56" height="4.25" fill="#fff"/><rect x="374.26" y="256.72" width="35.54" height="4.25" fill="#fff"/><rect x="374.26" y="264.62" width="23.39" height="4.25" fill="#fff"/><rect x="374.26" y="272.51" width="32.5" height="4.25" fill="#fff"/><rect x="121.09" y="370.66" width="13.45" height="34.48" rx="5.69" fill="#5e4a68"/><path d="M119.71,394.46h0a5.68,5.68,0,0,1-5.68-5.69v-1a5.68,5.68,0,0,1,5.68-5.69h0a5.69,5.69,0,0,1,5.69,5.69v1A5.69,5.69,0,0,1,119.71,394.46Z" fill="#5e4a68"/><polygon points="149.31 296.88 105.86 296.88 112.6 276.64 142.06 276.64 149.31 296.88" fill="#43344c"/><rect x="127.99" y="351.7" width="17.93" height="81.38" fill="#43344c"/><rect x="132.24" y="366.47" width="6.65" height="66.61" fill="#5e4a68"/><path d="M115.23,335.49H157a11,11,0,0,1,11,11v0a11,11,0,0,1-11,11H115.23a11,11,0,0,1-11-11v0A11,11,0,0,1,115.23,335.49Z" fill="#5e4a68"/><path d="M96.44,290.32h88.38a9,9,0,0,1,9,9V342a9,9,0,0,1-9,9H96.44a0,0,0,0,1,0,0V290.32A0,0,0,0,1,96.44,290.32Z" fill="#5e4a68"/><path d="M98.81,290.32h77.73a9,9,0,0,1,9,9V342a9,9,0,0,1-9,9H98.81a10.65,10.65,0,0,1-10.65-10.65V301A10.65,10.65,0,0,1,98.81,290.32Z" fill="#7c6a84"/><rect x="95.92" y="296.87" width="50.69" height="46.9" fill="#e4f7fe"/><path d="M159.19,340a3.45,3.45,0,1,1-3.44-3.45A3.44,3.44,0,0,1,159.19,340Z" fill="#c1a3c9"/><path d="M170.57,340a3.45,3.45,0,1,1-3.44-3.45A3.44,3.44,0,0,1,170.57,340Z" fill="#c1a3c9"/><path d="M182,340a3.45,3.45,0,1,1-3.44-3.45A3.44,3.44,0,0,1,182,340Z" fill="#c1a3c9"/><path d="M159.19,330.14a3.45,3.45,0,1,1-3.44-3.45A3.45,3.45,0,0,1,159.19,330.14Z" fill="#c1a3c9"/><path d="M170.57,330.14a3.45,3.45,0,1,1-3.44-3.45A3.45,3.45,0,0,1,170.57,330.14Z" fill="#c1a3c9"/><path d="M182,330.14a3.45,3.45,0,1,1-3.44-3.45A3.45,3.45,0,0,1,182,330.14Z" fill="#c1a3c9"/><rect x="152.67" y="297.31" width="29.46" height="25.38" fill="#43344c"/><rect x="156.51" y="300.62" width="21.79" height="18.77" fill="#231f20"/><path d="M102.65,301.52c0,19.71,17.6,35.69,39.31,35.69a44.67,44.67,0,0,0,4.65-.25V296.87H103A32.42,32.42,0,0,0,102.65,301.52Z" fill="#caebfc"/></svg>