<svg xmlns="http://www.w3.org/2000/svg" width="255.78" height="215.71" viewBox="0 0 255.78 215.71"><defs><style>.cls-1{isolation:isolate;}.cls-2{fill:#e1e2ff;}.cls-3,.cls-5{fill:#7970e5;}.cls-4{fill:#5d5ae0;}.cls-5{opacity:0.38;mix-blend-mode:screen;}.cls-6{fill:#463360;}.cls-11,.cls-15,.cls-28,.cls-7{fill:#523d6b;}.cls-7{opacity:0.34;}.cls-11,.cls-20,.cls-21,.cls-22,.cls-7,.cls-9{mix-blend-mode:multiply;}.cls-8,.cls-9{fill:#fcd6b1;}.cls-10{fill:#68411d;}.cls-11{opacity:0.43;}.cls-12{fill:#392a51;}.cls-13{fill:#3131a8;}.cls-14{fill:none;stroke:#e59e6e;stroke-linecap:round;stroke-linejoin:round;stroke-width:0.56px;}.cls-16,.cls-20{fill:#f85c55;}.cls-17{fill:#fcc2a2;}.cls-18{fill:#f9b485;}.cls-19{fill:#f7b228;}.cls-20{opacity:0.28;}.cls-21{fill:#ffcba1;opacity:0.49;}.cls-23{fill:#333;}.cls-24{fill:#fff;}.cls-25{fill:#eaeaea;}.cls-26{fill:#e59e6e;}.cls-27{fill:#8c5c07;}.cls-28{font-size:16.81px;font-family:SegoeUI-Bold, Segoe UI;font-weight:700;}</style></defs><title>hello</title><g class="cls-1"><g id="Layer_2" data-name="Layer 2"><g id="OBJECTS"><path class="cls-2" d="M62.25,3.26c18.57-7,41-2.47,55.35,11.23,16.6,15.83,23.06,42.3,43.85,52,15.47,7.22,33.87,2.5,50.53,6.25,24.06,5.4,41.5,29.07,43.58,53.63,1.6,18.86-4.81,37.63-15.4,53.06-9.9,14.43-27.67,22.4-44,27.13-24.21,7-51.44,9.16-76.58,9.14-18.63,0-37.37-1.43-55.6-5.44C48.85,207,33,203,20.62,193.24c-5.8-4.55-12.37-11.33-14.73-18.51-3-9-1.89-20.31.53-29.25,4-14.77,12.26-28,18.42-42,3.91-8.89,3.89-17.5,5.08-26.95,1.3-10.32,1.94-20.73,3.79-31,1.65-9.15,4.38-18.29,9.12-26.35C47.83,10.7,53.25,6.67,62.25,3.26Z" transform="translate(-0.02)"/><path class="cls-3" d="M151.56,138.15a71.94,71.94,0,0,0-9.06,29.36,73.87,73.87,0,0,0,.37,15.8c.38,3-1.37,8.84,3.42,8.94,2.17.05,4.12-1.21,6.18-1.88,4.6-1.52,9.59-.12,14.41.42a78.63,78.63,0,0,0,11.59.16,68.13,68.13,0,0,0,14.41-1.51c4.7-1.17,9.26-3.45,12.35-7.17,2.15-2.6,3.53-6.11,2.65-9.36a11,11,0,0,0-2.79-4.54,19,19,0,0,0-6.51-4.43c-3.64-1.48-8.36-2.4-9.5-6.16-1-3.14,1.32-6.21,3-9s2.5-7.08-.25-8.85c-2.15-1.38-5.2-.23-7.44-1.45-3-1.65-2.56-6.07-1.79-9.44,1-4.18,1.72-8.42,2.26-12.68.44-3.44.23-7.83-3-9.19s-6.71,1.77-8.51,4.87a35.94,35.94,0,0,0-3.91,9.92c-.6,2.65-.94,5.45-2.42,7.73-2.7,4.18-5.47,1.71-9,2.48C155,132.77,153.06,135.52,151.56,138.15Z" transform="translate(-0.02)"/><path class="cls-2" d="M185.16,66.3c9.15,1.07,18.44.82,27.56,2.15a50.17,50.17,0,0,1,11,2.77c3.94,1.54,7,3.89,10.43,6.21.34.23.85-.24.59-.58-4.61-6-13.74-8.47-20.85-9.59-9.51-1.48-19.19-.57-28.72-1.63-.43,0-.42.62,0,.67Z" transform="translate(-0.02)"/><path class="cls-4" d="M146.35,192.54c.38-1,8.3-2.83,9.6-3.32,3.17-1.19,6.31-2.48,9.41-3.84,5.53-2.44,12-4.6,16.81-8.28a3.62,3.62,0,0,0,1.76-2.59,2.48,2.48,0,0,0-1.86-2.2,5.5,5.5,0,0,0-3,.17,1.76,1.76,0,0,1-1.15.08,1.13,1.13,0,0,1-.47-1.47,3,3,0,0,1,1.18-1.23c3.73-2.57,8.16-3.92,12.09-6.18,3.5-2,7.38-5.55,8.09-9.76S195.37,147.09,195,143c-.25-3.12,1.65-5.95,3.15-8.69s2.63-6.24,1-8.89c-2-3.22-7.09-3-10.1-.69s-4.58,6-6.36,9.35c-1.42,2.68-3.75,6.88-6.2,8.74a4,4,0,0,1-4.56.43,14.15,14.15,0,0,1-2-2.33c-2.59-2.77-7.65-1.41-9.7,1.78s-1.8,7.33-1,11a11.49,11.49,0,0,1,.5,4.85c-.33,1.6-1.79,3.12-3.41,2.85-1-.16-1.84-1-2.86-1a2.85,2.85,0,0,0-2.63,2.12,9.26,9.26,0,0,0-.13,3.6C151.54,175.61,149.59,183.81,146.35,192.54Z" transform="translate(-0.02)"/><path class="cls-5" d="M194.39,128.66A109.76,109.76,0,0,1,182,155c-.07.34-.14.68-.2,1a.39.39,0,0,1-.62.2c-.3.44-.59.89-.9,1.33,4.56-3.25,9.13-6.21,12.91-10.5a.27.27,0,0,1,.41.35c-4,4.66-8.66,9.46-14.46,11.82h0c-6.24,8.72-13.94,17.45-23,23.27-.38.25-.94-.29-.56-.63,4.14-3.76,8.21-7.46,12.07-11.36a53.73,53.73,0,0,1,5.21-23.21c.09-.19.43-.09.36.12a131,131,0,0,0-4.77,22.26,102.26,102.26,0,0,0,9.78-11.47c1-1.4,2-2.84,3-4.29.49-6.42,3-12.76,6.15-18.27.13-.22.49-.06.37.18a66.7,66.7,0,0,0-5,15.75,116.93,116.93,0,0,0,11.11-23.1C193.91,128.13,194.5,128.32,194.39,128.66Z" transform="translate(-0.02)"/><path class="cls-6" d="M91.12,125.26a25.7,25.7,0,0,1-4.91-5.35,19.37,19.37,0,0,1-2.95-7.86c-.31-2.19-.65-5.85.56-7.82a14.7,14.7,0,0,1,2.05-2.35,8.5,8.5,0,0,0,2.5-4.4,13.72,13.72,0,0,0-.7-5.33,22.7,22.7,0,0,1-.48-8.91,14.27,14.27,0,0,1,4-7.89c1.07-1,2.33-1.88,3.49-2.82A28.11,28.11,0,0,0,102.53,62a36.42,36.42,0,0,0,2.15-6.34,8.09,8.09,0,0,1,.58-2.36,17.5,17.5,0,0,1,2.49-2.19,44.21,44.21,0,0,0,5-6.35c2.83-4,5.56-8.18,8.5-12.15,1.47-2,1.27-3.61,4-4.06a26.35,26.35,0,0,1,11.52.41,35,35,0,0,1,16.53,10.58,28.92,28.92,0,0,1,6.22,12.38c1,4.33,1.83,8.88,2.39,13.3a7,7,0,0,0,2.93,3.83c2.7,1.53,6.36.36,9,2,4,2.46,2.8,9.09,3.3,13,.26,2,.69,4.35,2.53,5.57,2.77,1.83,6.73,0,9.8.92,7.17,2.13,6.05,12.61,2.78,17.46a14.29,14.29,0,0,1-8.92,5.83c-4.21,1.06-7.64,3.94-8.46,8.35-.52,2.83-.14,5.74,0,8.61.19,4.11-.47,7.36-3.18,10.48-5.84,6.71-15.2,9.72-24.08,9.13a20.41,20.41,0,0,1-9.79-2.85,32.89,32.89,0,0,1-5.43-4.93c-2.88-3-6.07-5.83-10-7.23s-8.25-1.25-12.28-2.38c-2.15-.6-3.17-1.11-5.39-1.09a14.05,14.05,0,0,1-5.72-1.14,24.61,24.61,0,0,1-4.82-3C93.21,127,92.14,126.13,91.12,125.26Z" transform="translate(-0.02)"/><path class="cls-7" d="M149.49,150.46c8.32.1,16.83-2.94,22.26-9.2,2.72-3.13,3.38-6.37,3.19-10.48-.14-2.87-.52-5.77,0-8.61.82-4.41,4.25-7.29,8.46-8.34a14.43,14.43,0,0,0,8.93-5.84c3.26-4.85,4.38-15.33-2.79-17.46-3.06-.9-7,.91-9.8-.92-1.84-1.22-2.27-3.53-2.53-5.56-.5-3.9.65-10.53-3.3-13-2.28-1.42-5.41-1-7.95-1.51.25,1.1,2.32,1.51,3.25,2.09a6.72,6.72,0,0,1,2.89,3.14,8.91,8.91,0,0,1,.49,2.77,31.88,31.88,0,0,1,0,8c-.4,2.14-.76,5.06.63,6.92s4.15,2.18,6,3.69c2.54,2.11,2.57,6,1.62,9.19a18.15,18.15,0,0,1-4.23,7.4c-2,2-3.17,4.33-5.75,5.8-1.78,1-3.73,1.87-5.15,3.36a10.42,10.42,0,0,0-2,3.13,30.09,30.09,0,0,0-1.87,8.41,23.86,23.86,0,0,1-1,5.45,18.1,18.1,0,0,1-3.23,5.49A25.05,25.05,0,0,1,149.49,150.46Z" transform="translate(-0.02)"/><path class="cls-7" d="M83.26,112a19.31,19.31,0,0,0,2.95,7.88,26.16,26.16,0,0,0,4.91,5.34c1,.88,2.1,1.7,3.17,2.5.33.25.65.49,1,.73a19.56,19.56,0,0,1-2.22-6.65c-.31-2.18-.65-5.85.55-7.82a15.77,15.77,0,0,1,2.06-2.35,8.57,8.57,0,0,0,2.5-4.4c.29-1.78-.29-3.58-.7-5.33A22.47,22.47,0,0,1,97,93a14.46,14.46,0,0,1,4-7.9,44.82,44.82,0,0,1,3.5-2.81,28.2,28.2,0,0,0,7.89-10.54,35,35,0,0,0,2.15-6.33,8.08,8.08,0,0,1,.59-2.37,17.5,17.5,0,0,1,2.49-2.19,44.92,44.92,0,0,0,5-6.35c2.83-4,5.56-8.17,8.49-12.14,1.47-2,3.21-4,2-6.5a9.66,9.66,0,0,0-7.77-5.35c-3.6-.29-4.31,2.35-6.08,4.84-2.2,3.1-4.31,6.25-6.48,9.36a43.53,43.53,0,0,1-5,6.35,16.38,16.38,0,0,0-2.48,2.2,7.06,7.06,0,0,0-.58,2.35A36.72,36.72,0,0,1,102.53,62a28.11,28.11,0,0,1-7.9,10.53c-1.17.93-2.42,1.78-3.5,2.82a14.24,14.24,0,0,0-3.93,7.89,22.27,22.27,0,0,0,.47,8.9,13.81,13.81,0,0,1,.7,5.34,8.68,8.68,0,0,1-2.5,4.41,14.21,14.21,0,0,0-2.05,2.34C82.61,106.2,83,109.86,83.26,112Z" transform="translate(-0.02)"/><path class="cls-8" d="M126.91,113.57c6.22-1.28,8.28-9.7,8.9-15,.3-2.55.64-5.11.94-7.68.43-3.6.8-7.21,1-10.83.25-4.26-1.45-12.47-7.52-11.22s-8.61,9.72-8.92,15c-.18,3.21-.49,6.41-.86,9.6-.35,3-.73,5.94-1.08,8.91C118.87,106.64,121,114.78,126.91,113.57Z" transform="translate(-0.02)"/><path class="cls-9" d="M120.46,93.44c.94.59,1.91,1.15,2.86,1.7a8.13,8.13,0,0,0,2.93,1.19,7.33,7.33,0,0,0,4.17-1.23,43,43,0,0,0,6.33-4.17c.43-3.6.8-7.21,1-10.83.25-4.26-1.45-12.47-7.52-11.22s-8.61,9.72-8.92,15C121.14,87.05,120.83,90.25,120.46,93.44Z" transform="translate(-0.02)"/><path class="cls-8" d="M149,63.77c0,6.41-1.57,13.12-5.48,18.32a37.51,37.51,0,0,1-12.1,10,7.27,7.27,0,0,1-4.18,1.22,7.74,7.74,0,0,1-2.92-1.19c-3.72-2.14-7.54-4.38-10.15-7.79-2.47-3.23-3.64-7.26-4.32-11.26-1.18-7-2.19-15.74,2.55-21.52,3.72-4.54,10.16-6.68,15.88-6.68C138.11,44.86,149,51,149,63.77Z" transform="translate(-0.02)"/><path class="cls-10" d="M137.32,62.81a5.56,5.56,0,0,0-6.67.27c-.22.19,0,.48.28.37a7.86,7.86,0,0,1,6.23-.37c.15,0,.29-.17.16-.27Z" transform="translate(-0.02)"/><path class="cls-8" d="M143.08,70.11c-.47,3.17,1.19,6,3.71,6.42s5-1.88,5.42-5-1.18-6-3.7-6.42S143.56,66.94,143.08,70.11Z" transform="translate(-0.02)"/><path class="cls-11" d="M123.27,57a31,31,0,0,0,3.4,3.29,26.47,26.47,0,0,0,9,5.11c3.32,1,8.06,1.6,11.33.46,2.46-.85,1.79-3.27,2.28-5.54q.33-1.52.54-3.06A26.64,26.64,0,0,0,150,51a13.4,13.4,0,0,0-.58-3c-2.31-7.11-9-16.1-17.53-15.26-3,.3-6.2,2.45-8.93,3.69-1.84.83-3.81,1.78-4.78,3.55a7.33,7.33,0,0,0-.71,3.84C117.66,48.77,120,53.27,123.27,57Z" transform="translate(-0.02)"/><path class="cls-6" d="M125,56.83a31,31,0,0,0,3.4,3.29,26.42,26.42,0,0,0,9,5.11c3.31,1,8,1.6,11.33.46,2.45-.86,1.79-3.28,2.28-5.54.21-1,.4-2,.53-3.06a26.64,26.64,0,0,0,.21-6.18,13.42,13.42,0,0,0-.59-2.95c-2.31-7.11-9-16.11-17.53-15.26-3,.3-6.2,2.45-8.93,3.68-1.84.84-3.81,1.78-4.78,3.56a7.3,7.3,0,0,0-.71,3.84C119.42,48.65,121.76,53.15,125,56.83Z" transform="translate(-0.02)"/><path class="cls-11" d="M121.88,51.24c-3.86,2.7-8.13,5-10.61,9a13.61,13.61,0,0,0-2,8.21c.23,2.78,1.31,5.47,1.23,8.26a10.4,10.4,0,0,1-7.93,9.45.59.59,0,0,1-.61-.92,8.72,8.72,0,0,0,1.73-6.19c-.32-2.83-2-5.35-2.11-8.22,0-2.1,1-3.75,2-5.4a12.48,12.48,0,0,0,1.52-8.13c-.41-1.92-1.06-3.79-1.3-5.73-.53-4.31,1-8.66,3.49-12.23a26.06,26.06,0,0,1,12.28-9.56c2.54-.95,6.68-2.29,9.42-1.62,2.41.59,2.72,5.86,2.71,8.15a14.22,14.22,0,0,1-2.4,8.09,26.7,26.7,0,0,1-6.43,6.07Z" transform="translate(-0.02)"/><path class="cls-6" d="M120.42,51.42c-3.86,2.7-8.14,5-10.61,9a13.59,13.59,0,0,0-2,8.2c.22,2.78,1.31,5.47,1.23,8.26a10.4,10.4,0,0,1-7.93,9.45.59.59,0,0,1-.62-.92,8.74,8.74,0,0,0,1.74-6.19c-.32-2.82-2-5.35-2.11-8.21,0-2.1,1-3.75,2-5.41a12.47,12.47,0,0,0,1.53-8.13c-.41-1.91-1.07-3.78-1.31-5.73-.53-4.3,1-8.66,3.5-12.22a25.84,25.84,0,0,1,25.22-10.89c1.71.25,3.82.31,4.22,2.37.32,1.6-.91,3.35-1.56,4.71a40.24,40.24,0,0,1-12.3,14.93Z" transform="translate(-0.02)"/><path class="cls-12" d="M149.37,64.62c-4.12-.14-7.78-.36-11.53-2.33-3.15-1.65-5.51-4.16-8.17-6.46-.26-.23-.73.06-.51.39C133,62,142.31,67.74,149.43,65a.2.2,0,0,0-.06-.39Z" transform="translate(-0.02)"/><path class="cls-12" d="M149,64.61c-2.8-1.39-5.69-2.36-8.32-4.12a37.69,37.69,0,0,1-7.27-6.78c-.32-.36-1,.12-.68.53C136,59.35,142.61,64.48,148.84,65a.21.21,0,0,0,.11-.39Z" transform="translate(-0.02)"/><path class="cls-12" d="M149.32,64.57A18.52,18.52,0,0,0,148,63.22a23.49,23.49,0,0,1-1.85-2.67c-1.22-1.87-2.37-3.8-3.66-5.62a.5.5,0,0,0-.86.5,61.6,61.6,0,0,0,4.4,6.91c.75,1.06,1.67,2.54,3.1,2.54a.21.21,0,0,0,.18-.31Z" transform="translate(-0.02)"/><path class="cls-12" d="M110.64,87.1c-2.17,6.48-8.83,8.12-14.43,10.64-3.94,1.77-8.3,4.67-8.79,9.34-.06.56.77.6.94.12,2.25-6.37,8.1-8.15,13.78-10.62,4.07-1.77,8.42-4.56,9.29-9.27a.41.41,0,0,0-.79-.21Z" transform="translate(-0.02)"/><path class="cls-12" d="M114.38,90.65c-.34,3-2.48,4.24-4.57,6-.42.34.11,1,.55.72,2.42-1.29,5.22-3.79,4.7-6.81-.08-.42-.64-.27-.68.09Z" transform="translate(-0.02)"/><path class="cls-12" d="M155.21,71.5a8.33,8.33,0,0,0,3.06,4.08c1.78,1.28,3.53,1.37,5.59,1.84,7.27,1.65,2.4,10.7,3,15.52.5,4.06,3.07,5.36,6.72,6.14,8.09,1.73.52,9.76-.06,14.13-.08.59.8.62,1,.13,1.39-3.79,5.41-8.12,3.69-12.44a5.15,5.15,0,0,0-3.94-3,13.22,13.22,0,0,1-3.87-1A5.67,5.67,0,0,1,168,92.25c-.29-4.59,2.85-9.64-.29-13.87a5.68,5.68,0,0,0-4.1-2.15c-3.58-.53-6-1.74-7.79-5-.19-.33-.78-.11-.64.27Z" transform="translate(-0.02)"/><path class="cls-3" d="M101.59,117.28c-1.67-2.13-3.39-4.32-5.74-5.64s-5.52-1.61-7.64.06a9.93,9.93,0,0,0-2.5,3.51,122,122,0,0,0-5.62,13c-1.93,5.24-4.13,11.29-9.38,13.19-3.94,1.42-8.58,0-12.36,1.82-4.45,2.14-5.81,7.81-5.94,12.75s.36,10.25-2.23,14.46c-2.73,4.44-8.74,7.62-8.13,12.8.43,3.54,4,5.84,7.34,7,13.73,4.58,28.69-1.94,43.11-.74,5.13.43,11.1,1.58,14.78-2,1.74-1.7,2.53-4.13,3.15-6.49a86.71,86.71,0,0,0-6.29-60.48" transform="translate(-0.02)"/><path class="cls-4" d="M102.9,142.09c-.33-3.77-.68-7.6-2.11-11.1s-4.11-6.69-7.74-7.76c-3.34-1-7.18-.15-10.21-1.87-2.72-1.55-4-4.71-5.42-7.49s-3.68-5.69-6.8-5.8c-3.8-.14-6.48,4.16-6.25,8s2.37,7.15,4.15,10.51c2.32,4.37,3.74,10,1.67,14.67-1.54,3.49-5.73,7.57-3.8,11.7.92,2,3.07,3,5.12,3.76s4.25,1.33,5.81,2.85,2.1,4.35.46,5.79c-2,1.71-5.53.34-7.31,2.25a3.84,3.84,0,0,0-.86,2.75c.16,4.47,4.7,7.31,8.68,9.34,5.25,2.68,14.15,5.27,18.06,9.63,5.83-14.21,7.29-31.9,7.78-47.12" transform="translate(-0.02)"/><path class="cls-5" d="M70.59,113.82A109.19,109.19,0,0,1,85.4,138.88l.73.73a.39.39,0,0,1-.19.63c.2.49.41,1,.6,1.49-.12-5.6,0-11-1.42-16.58a.27.27,0,0,1,.52-.15c1.6,5.93,3,12.49,1.64,18.61v0c3.7,10.06,6.59,21.34,6.32,32.09,0,.46-.77.61-.84.11-.79-5.55-1.55-11-2.6-16.37A53.69,53.69,0,0,1,73.88,142.1c-.1-.19.17-.41.31-.24a130.89,130.89,0,0,0,15.72,16.46,103.83,103.83,0,0,0-4-14.53c-.59-1.63-1.23-3.24-1.89-4.85-5-4-8.88-9.65-11.65-15.36-.11-.23.22-.44.36-.21a66.44,66.44,0,0,0,10.2,13A117.21,117.21,0,0,0,70.1,114.2C69.89,113.91,70.37,113.53,70.59,113.82Z" transform="translate(-0.02)"/><path class="cls-13" d="M89.16,187.65c-1.22-15-6.84-29.63-14.75-42.32a113.35,113.35,0,0,0-13.76-17.78c-5-5.25-10.76-11.44-17.88-13.57-.65-.19-.87.75-.28,1,7.14,3,12.89,8.78,18.07,14.36A110.58,110.58,0,0,1,74,147a105.56,105.56,0,0,1,14.32,40.79c.07.49.92.38.88-.12Z" transform="translate(-0.02)"/><path class="cls-13" d="M51.91,119.42l-7.8-2.65c-2.19-.74-4.6-1.67-5.63-3.74a.8.8,0,0,1-.1-.58c.09-.28.43-.38.72-.42a8.68,8.68,0,0,1,6.51,2.26,58.44,58.44,0,0,1,6.21,5.3" transform="translate(-0.02)"/><path class="cls-13" d="M59.88,126.76A19.58,19.58,0,0,0,58.12,115c-.25-.53-.62-1.1-1.2-1.16s-1.23.65-1.39,1.34a7,7,0,0,0,.41,3.57,48.9,48.9,0,0,0,3.12,7.65" transform="translate(-0.02)"/><path class="cls-13" d="M67.27,135.35a20.54,20.54,0,0,0-1.84-12.27c-.27-.55-.65-1.15-1.26-1.21s-1.29.69-1.46,1.41a7.25,7.25,0,0,0,.43,3.73,52.16,52.16,0,0,0,3.27,8" transform="translate(-0.02)"/><path class="cls-13" d="M74.6,146.56a20.55,20.55,0,0,0,2.16-12.22c-.08-.61-.25-1.3-.81-1.55s-1.44.24-1.83.87a7.32,7.32,0,0,0-.78,3.68,52,52,0,0,0,.55,8.63" transform="translate(-0.02)"/><path class="cls-13" d="M54.71,122.79a17.56,17.56,0,0,1-10.44-1.49c-.46-.23-1-.55-1-1.07s.58-1.1,1.2-1.24a6.18,6.18,0,0,1,3.17.34,44.11,44.11,0,0,1,6.82,2.73" transform="translate(-0.02)"/><path class="cls-13" d="M62.22,130.83a20.82,20.82,0,0,1-12.46-1.78c-.56-.27-1.17-.66-1.24-1.27s.69-1.31,1.42-1.49a7.38,7.38,0,0,1,3.79.42A52,52,0,0,1,61.88,130" transform="translate(-0.02)"/><path class="cls-13" d="M69.71,140.5a20.94,20.94,0,0,1-12.45-1.78c-.56-.27-1.17-.66-1.24-1.27s.69-1.32,1.42-1.49a7.37,7.37,0,0,1,3.79.41,52.57,52.57,0,0,1,8.14,3.26" transform="translate(-0.02)"/><path class="cls-13" d="M76.9,151.57a20.94,20.94,0,0,1-12.45-1.78c-.56-.27-1.17-.66-1.24-1.27s.69-1.32,1.42-1.49a7.37,7.37,0,0,1,3.79.41,52.57,52.57,0,0,1,8.14,3.26" transform="translate(-0.02)"/><path class="cls-13" d="M160.77,188.84c9.57-5,18.19-12.2,25.54-20a113.55,113.55,0,0,0,10-12.24c3.09-4.39,6.37-9.16,7.08-14.6.07-.58-.86-.68-1-.14-2.87,10.3-10.5,19.38-17.76,27a124.69,124.69,0,0,1-24.27,19.25.45.45,0,0,0,.45.77Z" transform="translate(-0.02)"/><path class="cls-13" d="M199.27,151.85q.76-4,1.51-8.09c.43-2.28,1-4.79,2.91-6.11a.77.77,0,0,1,.56-.18c.29.05.44.37.52.65a8.76,8.76,0,0,1-1.31,6.77,58.65,58.65,0,0,1-4.37,6.9" transform="translate(-0.02)"/><path class="cls-13" d="M193.15,160.79a19.7,19.7,0,0,0,11.35-3.41c.48-.33,1-.78,1-1.36s-.83-1.13-1.54-1.19a7,7,0,0,0-3.47.92,50,50,0,0,0-7.13,4.18" transform="translate(-0.02)"/><path class="cls-13" d="M185.7,169.33a20.62,20.62,0,0,0,11.88-3.57c.5-.35,1-.81,1-1.43s-.87-1.17-1.6-1.24a7.39,7.39,0,0,0-3.64,1,52.6,52.6,0,0,0-7.46,4.38" transform="translate(-0.02)"/><path class="cls-13" d="M175.65,178.18a20.54,20.54,0,0,0,12.41.4c.58-.17,1.24-.44,1.42-1s-.45-1.4-1.13-1.69a7.32,7.32,0,0,0-3.75-.25,52.05,52.05,0,0,0-8.47,1.78" transform="translate(-0.02)"/><path class="cls-13" d="M196.34,155.1a17.47,17.47,0,0,1,0-10.54c.15-.49.4-1.05.9-1.18s1.17.42,1.4,1a6.15,6.15,0,0,1,.12,3.19,44.88,44.88,0,0,1-1.73,7.15" transform="translate(-0.02)"/><path class="cls-13" d="M189.45,163.68a20.85,20.85,0,0,1,0-12.58c.18-.59.48-1.25,1.08-1.41s1.4.5,1.67,1.19a7.33,7.33,0,0,1,.13,3.81,51,51,0,0,1-2.06,8.53" transform="translate(-0.02)"/><path class="cls-13" d="M181,172.48a20.85,20.85,0,0,1,0-12.58c.19-.59.48-1.25,1.08-1.41s1.4.5,1.67,1.2a7.29,7.29,0,0,1,.14,3.8,52,52,0,0,1-2.07,8.53" transform="translate(-0.02)"/><path class="cls-13" d="M171,181.18a20.89,20.89,0,0,1,0-12.59c.18-.59.48-1.25,1.08-1.41s1.4.5,1.67,1.2a7.33,7.33,0,0,1,.14,3.81,52.25,52.25,0,0,1-2.07,8.53" transform="translate(-0.02)"/><path class="cls-13" d="M82.61,194.16a124.83,124.83,0,0,1-19.67-24c-5.45-9-11-19.42-11.58-30.07a.52.52,0,0,0-1,0c-.45,5.35,1.71,10.61,3.74,15.45A113.2,113.2,0,0,0,61.44,170C66.93,179.17,73.76,188,82,194.79c.44.37,1-.22.63-.63Z" transform="translate(-0.02)"/><path class="cls-13" d="M52.23,150.47c.08-2.74.17-5.48.25-8.22.07-2.32,0-4.9-1.54-6.59a.85.85,0,0,0-.51-.3c-.29,0-.51.28-.65.54a8.69,8.69,0,0,0-.15,6.88,58.09,58.09,0,0,0,2.79,7.68" transform="translate(-0.02)"/><path class="cls-13" d="M56.32,160.51A19.65,19.65,0,0,1,46,154.77a1.81,1.81,0,0,1-.67-1.54c.18-.69,1-.92,1.76-.83A6.91,6.91,0,0,1,50.23,154a49.65,49.65,0,0,1,6.08,5.6" transform="translate(-0.02)"/><path class="cls-13" d="M61.78,170.44a20.61,20.61,0,0,1-10.85-6,1.87,1.87,0,0,1-.69-1.61c.18-.72,1.09-1,1.83-.87a7.22,7.22,0,0,1,3.34,1.71,51.23,51.23,0,0,1,6.37,5.86" transform="translate(-0.02)"/><path class="cls-13" d="M69.72,181.23A20.61,20.61,0,0,1,57.51,179c-.53-.29-1.12-.69-1.17-1.3s.74-1.27,1.46-1.41a7.27,7.27,0,0,1,3.72.56,51.19,51.19,0,0,1,7.9,3.53" transform="translate(-0.02)"/><path class="cls-13" d="M54.41,154.28A17.4,17.4,0,0,0,56.66,144a1.57,1.57,0,0,0-.63-1.35c-.56-.28-1.23.16-1.58.69a6.05,6.05,0,0,0-.79,3.09,44,44,0,0,0,.17,7.35" transform="translate(-0.02)"/><path class="cls-13" d="M59.32,164.13A21,21,0,0,0,62,151.83a1.9,1.9,0,0,0-.76-1.6c-.67-.35-1.47.18-1.89.81a7.32,7.32,0,0,0-.94,3.69,52.43,52.43,0,0,0,.2,8.77" transform="translate(-0.02)"/><path class="cls-13" d="M65.75,174.53a20.86,20.86,0,0,0,2.69-12.29,1.9,1.9,0,0,0-.76-1.61c-.67-.34-1.47.19-1.89.81a7.43,7.43,0,0,0-.94,3.7,52.43,52.43,0,0,0,.2,8.77" transform="translate(-0.02)"/><path class="cls-13" d="M73.61,185.14a20.86,20.86,0,0,0,2.68-12.29,1.87,1.87,0,0,0-.75-1.61c-.67-.34-1.47.19-1.89.81a7.32,7.32,0,0,0-.94,3.69,52.55,52.55,0,0,0,.2,8.78" transform="translate(-0.02)"/><path class="cls-12" d="M151.29,81.08a1.85,1.85,0,0,0,.47,0,.09.09,0,0,0,0-.17,1.85,1.85,0,0,0-.47,0,.08.08,0,0,0,0,.15Z" transform="translate(-0.02)"/><path class="cls-14" d="M123.92,65.8a38.29,38.29,0,0,1-.11,4.91,9.48,9.48,0,0,1-.29,2.44c-.21.5-1,.7-1.45.85a5.49,5.49,0,0,0-.78.26,1.06,1.06,0,0,0-.55.57,1,1,0,0,0,.17.84,2.3,2.3,0,0,0,.66.58,8.88,8.88,0,0,0,1.68.86" transform="translate(-0.02)"/><path class="cls-15" d="M120,80.58a6,6,0,0,0,1.31,3.14,6.38,6.38,0,0,0,7.89,1.8,9,9,0,0,0,1.69-1.2,7.09,7.09,0,0,0,2.47-4.46,20.23,20.23,0,0,1-4.21.86,17.23,17.23,0,0,1-4.42.1,9.3,9.3,0,0,1-4.65-2.11A7,7,0,0,0,120,80.58Z" transform="translate(-0.02)"/><path class="cls-16" d="M121.28,83.72a6.38,6.38,0,0,0,7.89,1.8,9,9,0,0,0,1.69-1.2,6.51,6.51,0,0,0-5.08-2.22A6.75,6.75,0,0,0,121.28,83.72Z" transform="translate(-0.02)"/><path class="cls-17" d="M110.43,72.1c0,1,2.1,1.86,4.68,1.86s4.67-.83,4.67-1.86-2.09-1.86-4.67-1.86S110.43,71.07,110.43,72.1Z" transform="translate(-0.02)"/><path class="cls-18" d="M101.3,136.08a21.8,21.8,0,0,0,1.29-3.69,7.33,7.33,0,0,0,.13-3.63c-.76-2.86-5.52-4.44-8-5.15-1.18-.33-2.79-.26-3.86-.81a99.52,99.52,0,0,1-5,13.78c-1,2.22-2.11,4.41-3.31,6.54s-2.62,3.78-4,5.74A28.08,28.08,0,0,0,74,161.63a32.9,32.9,0,0,0-.12,6.58c.18,2,.7,3.22,2.46,1.48.7-.69,1.56-1.15,2.26-1.83,2.29-2.25,4.07-5,6.41-7.2a47.57,47.57,0,0,0,5.24-5.19,29.76,29.76,0,0,0,2.14-3.39l6.18-10.82A58.19,58.19,0,0,0,101.3,136.08Z" transform="translate(-0.02)"/><path class="cls-19" d="M92,191.78l.25.16a5.78,5.78,0,0,0,2.54.59,239,239,0,0,0,29.07.62c5.23-.21,10.44-.58,15.65-1,2.44-.2,5.66-.17,7.9-1.28s.47-4.07,0-6.14a99.82,99.82,0,0,1-2.77-16.1c-.79-11.36,3.15-20.81,8.46-30.6,2.31-4.26,4.74-8.5,6.28-13.09a28.81,28.81,0,0,0,1.1-13.94c-.71-4.13-5.89-4.82-9.27-5.93a98.28,98.28,0,0,1-11.07-4.62c-1-.47-4.24-2.12-4.24-2.12s-1.46,1.93-2,2.5a12.6,12.6,0,0,1-6.23,3.45,8.33,8.33,0,0,1-4.23.18c-2.65-.84-3.45-3.79-3.45-6.31,0,.3-4.29,3.14-4.7,3.48l-6.34,5.23a21.79,21.79,0,0,0-3.2,3,21.5,21.5,0,0,0-2.64,4.71c-.59,1.28-1.17,2.55-1.75,3.83s-1,2.27-1.56,3.4c0,0,0,0,0,0-.16.33-.31.66-.45,1l-.61,1.32-.33.77c-2.42,5.51-4,11-2,17,.73,2.2,1.85,4.27,2.65,6.44a30.21,30.21,0,0,1,1,16.08,40.94,40.94,0,0,1-1.62,5.36q-2.22,6.1-4.43,12.21C93.15,184.08,89.61,190.08,92,191.78Z" transform="translate(-0.02)"/><path class="cls-19" d="M112.56,100.72c-3,.94-6,1.88-9.1,2.75a14.64,14.64,0,0,0-3.22,1.19c-2.63,1.47-4.07,4.37-5.36,7.09l-3.77,8a22.81,22.81,0,0,0-2.2,6.6c2.48,1.08,5,1.9,7.44,3.18s4.61,3.36,7.06,4.58c-1.53-1.18,9.38-21.3,10.33-23.18,1.88-3.7,4.57-3.65,5.68-7.89.72-2.77-.07-1.59.46-4.88,0,.21-1.11.57-1.29.65a15.05,15.05,0,0,1-1.42.51Z" transform="translate(-0.02)"/><path class="cls-20" d="M96.28,141.94c.73,2.2,1.85,4.27,2.65,6.44a30.21,30.21,0,0,1,1,16.08c7.86,2.33,16.31,3,24.55,3.41,3.19.16,6.52.28,9.45-1,3.74-1.64,6.2-5.28,8.08-8.91a62.2,62.2,0,0,0,5.83-16.84,63.16,63.16,0,0,0,1.07-9c.06-1.45-.06-3,0-4.4s.57-2.66.06-4a2.24,2.24,0,0,0-2.6-1.5,3.23,3.23,0,0,0-1.26,1c-5,5.94-7,14.7-13.9,19-7.17,4.48-16.48,3.74-24.47,1a12,12,0,0,1-5.13-2.89c-2.11-2.28-2.38-5.69-2.3-8.79.11-4.06.62-9.43,2-13.2l-.06.1a14.46,14.46,0,0,0-1.56,3.4s0,0,0,0a11.6,11.6,0,0,1-.7,1.83c-.12.16-.23.32-.36.47l-.33.77C95.9,130.43,94.29,135.9,96.28,141.94Z" transform="translate(-0.02)"/><path class="cls-18" d="M74.63,170.6l.09.1c.45.48,1.25.44,1.84.63.78.24,1.59.47,2.41.65a18.27,18.27,0,0,0,4.83.48c4-.15,7.83-1.81,11.57-3.3,1.66-.66,3.33-1.29,5-1.89q5.44-2,11-3.48c1.85-.5,3.72-1,5.59-1.4,2.69-.62,7.2-1.28,9.72-2.44s3-2.87,4.17-5.4a4.5,4.5,0,0,0,.42-2.81c-.22-.94,1.18-1.7.22-1.77-.55-.05,0-.19-.51,0-10.38,4-23.88,3.95-35.46,4.83-2,.15-3.94.34-6,.58l-.75.09c-2.72.36-5.55-1-8.13-.07-2.83,1-4.82,3.65-5.76,6.49a13.8,13.8,0,0,0-.53,4.48c0,.79,0,1.57,0,2.36A2.86,2.86,0,0,0,74.63,170.6Z" transform="translate(-0.02)"/><path class="cls-21" d="M88.51,157.3a6.78,6.78,0,0,0,1.25,1A50,50,0,0,1,94.61,163a49,49,0,0,1,4.64,6.1l0,.09c3.64-1.3,7.31-2.46,11-3.48-1.42-2.18-3.82-3.49-6.11-4.7a47.84,47.84,0,0,0-9.75-4.29,20.87,20.87,0,0,0-3.15-.61c-.72-.08-2.32-.43-2.83.32A.69.69,0,0,0,88.51,157.3Z" transform="translate(-0.02)"/><path class="cls-8" d="M160.59,128.63c-4.53,9.57-8,19.6-12.84,29.05A74.39,74.39,0,0,1,139.37,171c-1.3,1.59-2.66,3.85-4.42,4.86-2.34,1.35-5.83.68-8.28.05a71.63,71.63,0,0,1-16.47-7c-1.9-1-4-1.71-5.86-2.79-2.12-1.24-4.25-2.48-6.39-3.7s-4.51-2.53-6.78-3.77c-1.74-.95-4-2.9-6-3.08a1.52,1.52,0,0,1-.85-.22c-.87-.68.24-2,.83-2.45l1.32-.93a10.11,10.11,0,0,1,2.06-1.19c2.49-.92,4.43.34,6.77,1,5.27,1.56,10.9,2.25,16.3,3.31a102.06,102.06,0,0,0,17.16,1.89,2.7,2.7,0,0,0,1.69-.34,2.8,2.8,0,0,0,.87-1.62c1-3.8,13.11-30.58,17.38-35a60.64,60.64,0,0,1,10.87,8.61" transform="translate(-0.02)"/><g class="cls-22"><path class="cls-19" d="M132.11,104.45c-3,1.15-7.84,4-11.17,2.23-1.67-.91-2.06-2.87-2.72-4.49-.13-.32-.65-.21-.55.15.57,1.91,1.1,4,3,5,3.48,1.79,8.66-.77,11.56-2.57.17-.12.06-.44-.15-.36Z" transform="translate(-0.02)"/></g><path class="cls-19" d="M139.57,134.75a.64.64,0,0,1,.08-.46L146.83,120a57.48,57.48,0,0,1,5.35-9.17c1.39-1.83,3.28-3.75,5.73-3s4.18,3.21,4.79,5.83a22.3,22.3,0,0,1-.09,8.06c-.43,3.06-1.92,19.77-5,20.16-1,.12-3.37-1.76-4.33-2.22-1.52-.73-3.06-1.41-4.63-2s-3.16-1.15-4.77-1.62c-.77-.23-1.56-.41-2.34-.6C141,135.27,139.72,135.31,139.57,134.75Z" transform="translate(-0.02)"/><path class="cls-23" d="M136.77,98.77a110.58,110.58,0,0,1-6.42,23,113.6,113.6,0,0,1-12.24,21.35c-.19.28.25.63.47.37a83.86,83.86,0,0,0,18.61-44.66c0-.23-.37-.29-.42,0Z" transform="translate(-0.02)"/><path class="cls-23" d="M118.18,98.8A109.37,109.37,0,0,0,116,121.92c0,7.52,0,15.83,2,23.14a.21.21,0,0,0,.41-.06c-.17-3.83-.87-7.67-1.17-11.5s-.45-7.72-.46-11.58c0-7.76.87-15.37,1.62-23.08,0-.16-.25-.19-.28,0Z" transform="translate(-0.02)"/><rect class="cls-24" x="108.28" y="141.57" width="18.22" height="12.25" rx="1.28" transform="translate(221.37 305.1) rotate(-174.97)"/><rect class="cls-25" x="109.77" y="143.11" width="15.25" height="9.17" rx="1.28" transform="translate(221.37 305.1) rotate(-174.97)"/><path class="cls-26" d="M148.17,69.14a2.56,2.56,0,0,1,.85,2.18c-.12.8-.71,1.17-1.14,1.77-.1.14.06.3.21.27a2.33,2.33,0,0,0,1.55-2.1,2.42,2.42,0,0,0-1.28-2.36c-.15-.08-.32.11-.19.24Z" transform="translate(-0.02)"/><path class="cls-10" d="M121.56,70.8c.54-2-.49-5.59-3-5.65-2.69-.06-3.93,3.48-3.67,5.69,0,.47.75.66.88.12.35-1.4.4-4.53,2.4-4.73,2.22-.23,2.51,3,3,4.57a.21.21,0,0,0,.41,0Z" transform="translate(-0.02)"/><path class="cls-10" d="M137.31,71.49c.53-2-.49-5.59-3-5.64-2.7-.07-3.93,3.47-3.67,5.69.05.46.75.65.88.12.34-1.4.39-4.54,2.39-4.74,2.23-.22,2.51,3.06,3,4.57a.22.22,0,0,0,.42,0Z" transform="translate(-0.02)"/><path class="cls-17" d="M132.22,73.58c0,1,2.1,1.87,4.68,1.87s4.67-.84,4.67-1.87-2.09-1.86-4.67-1.86S132.22,72.56,132.22,73.58Z" transform="translate(-0.02)"/><path class="cls-12" d="M151.89,74.46c-.56,3.55,2,5.62,4.7,7.42,2.11,1.4,4,2.88,4.75,5.43a16.88,16.88,0,0,1,.2,5.89c-.3,3.56-.47,7,1.37,10.15a13.93,13.93,0,0,0,3.64,4.15,24.08,24.08,0,0,1,2.55,1.82c1.29,1.27,1.42,2.79,1.67,4.48a.56.56,0,0,0,1.07,0c.53-3.76-1.59-5.25-4.31-7.24-4.43-3.24-5.13-8-4.8-13,.2-3.09.4-6.28-1.39-9-2.43-3.65-9-4.82-8.79-10,0-.38-.6-.47-.66-.09Z" transform="translate(-0.02)"/><path class="cls-12" d="M146.91,85.29c-.15,3.36,2.22,5.36,4,7.89,2.15,3.17-.57,7.13,1.62,10.06a.43.43,0,0,0,.79-.33c-.67-3,.64-6.32-.66-9.14a14.36,14.36,0,0,0-2.19-3,17.68,17.68,0,0,1-2.9-5.6.31.31,0,0,0-.61.08Z" transform="translate(-0.02)"/><path class="cls-10" d="M121.2,62.52a5.56,5.56,0,0,0-6.62.59.24.24,0,0,0,.29.37,7.82,7.82,0,0,1,6.2-.66.17.17,0,0,0,.13-.3Z" transform="translate(-0.02)"/><path class="cls-18" d="M139.48,142.43a1,1,0,0,1,.49-.21.69.69,0,0,1,.63.72,1.89,1.89,0,0,1-.4,1,14.35,14.35,0,0,1-2.53,2.8,15,15,0,0,0,5.07-.63,2.42,2.42,0,0,1,1-.16.76.76,0,0,1,.7.65,1,1,0,0,1-.34.66,4.86,4.86,0,0,1-1.63,1.14,2.57,2.57,0,0,1,1-.16.85.85,0,0,1,.74.63c.06.44-.34.79-.72,1a14.17,14.17,0,0,1-4.36,1.87,3.1,3.1,0,0,1,1.21-.08,1,1,0,0,1,.85.78c.08.53-.42,1-.91,1.22a18,18,0,0,1-4.22,1,46.74,46.74,0,0,0-5.93,2.33.81.81,0,0,1-.74,0,.67.67,0,0,1-.21-.36,2.26,2.26,0,0,1,.4-2,6.53,6.53,0,0,0,.59-.71,5,5,0,0,0,.25-2C131.1,147.07,136,145,139.48,142.43Z" transform="translate(-0.02)"/><path class="cls-24" d="M52.73,47.88A22.89,22.89,0,0,1,64,40.8a37.48,37.48,0,0,1,5.58-1.11c9.69-1.19,20.86,1.6,24.8,11.57A16.25,16.25,0,0,1,95.62,58c.44.32.87.84,1.24,1.17l.79.7c.14.12.62.42.58.65s-.51.31-.73.39l-1.26.45-1.48.54a11.57,11.57,0,0,1-4.4,5.21c-6.32,4.23-14.49,4.77-22,3.55-4.86-.79-9.72-2.38-13.56-5.57A13.88,13.88,0,0,1,50,57.52,11.32,11.32,0,0,1,52.73,47.88Z" transform="translate(-0.02)"/><path class="cls-2" d="M26.09,57.69A134,134,0,0,1,17,101.77a212.1,212.1,0,0,1-9.47,20.06C4.3,128.07,1,134.62,0,141.63c-.1.66.86,1,1,.28,3.79-14.43,12.34-26.72,17.49-40.63a132.58,132.58,0,0,0,7.93-43.59.2.2,0,0,0-.4,0Z" transform="translate(-0.02)"/><path class="cls-24" d="M90.77,30.21A4.26,4.26,0,1,0,95,26,4.26,4.26,0,0,0,90.77,30.21Z" transform="translate(-0.02)"/><path class="cls-19" d="M197.76,111.64a4.26,4.26,0,1,0,4.25-4.25A4.25,4.25,0,0,0,197.76,111.64Z" transform="translate(-0.02)"/><circle class="cls-24" cx="223.68" cy="141.18" r="4.25"/><path class="cls-3" d="M194.36,83.05a3.37,3.37,0,1,0,3.37-3.36A3.37,3.37,0,0,0,194.36,83.05Z" transform="translate(-0.02)"/><circle class="cls-3" cx="68.91" cy="88.25" r="4.25"/><path class="cls-24" d="M33.93,161.46a4.26,4.26,0,1,0,4.25-4.25A4.25,4.25,0,0,0,33.93,161.46Z" transform="translate(-0.02)"/><path class="cls-24" d="M77.46,80.37a2.1,2.1,0,1,0,2.1-2.11A2.1,2.1,0,0,0,77.46,80.37Z" transform="translate(-0.02)"/><path class="cls-19" d="M212.66,160.91a2.11,2.11,0,1,0,2.11-2.11A2.11,2.11,0,0,0,212.66,160.91Z" transform="translate(-0.02)"/><path class="cls-24" d="M37.54,141.07a2.11,2.11,0,1,0,2.1-2.11A2.1,2.1,0,0,0,37.54,141.07Z" transform="translate(-0.02)"/><path class="cls-19" d="M75.17,100.78a2.1,2.1,0,1,0,2.1-2.1A2.11,2.11,0,0,0,75.17,100.78Z" transform="translate(-0.02)"/><path class="cls-3" d="M14.23,154.26a2.11,2.11,0,1,0,2.11-2.11A2.1,2.1,0,0,0,14.23,154.26Z" transform="translate(-0.02)"/><path class="cls-24" d="M219.77,100.56a2.11,2.11,0,1,0,2.1-2.11A2.1,2.1,0,0,0,219.77,100.56Z" transform="translate(-0.02)"/><circle class="cls-19" cx="46.22" cy="133.7" r="2.1"/><rect class="cls-27" x="97.89" y="125" width="11.8" height="4.6" rx="1.02" transform="translate(190.91 266.52) rotate(-172.85)"/><path class="cls-27" d="M59.57,194.56H177.29a3,3,0,0,0,3-3h0a3,3,0,0,0-3-3H59.57a3,3,0,0,0-3,3h0A3,3,0,0,0,59.57,194.56Z" transform="translate(-0.02)"/><g class="cls-22"><path class="cls-27" d="M99.42,190.67c-11.75-.06-23.7-.37-35.43.5a.12.12,0,0,0,0,.24c11.76.44,23.67-.3,35.43-.57a.09.09,0,0,0,0-.17Z" transform="translate(-0.02)"/></g><g class="cls-22"><path class="cls-27" d="M171.64,192.86c-11.75-.05-23.7-.36-35.42.51a.12.12,0,0,0,0,.24c11.75.44,23.66-.3,35.42-.57a.09.09,0,0,0,0-.18Z" transform="translate(-0.02)"/></g><g class="cls-22"><path class="cls-27" d="M167.43,191.46c-11.75-.06-23.7-.36-35.43.51a.12.12,0,0,0,0,.24c11.76.43,23.67-.31,35.43-.58a.09.09,0,0,0,0-.17Z" transform="translate(-0.02)"/></g><g class="cls-22"><path class="cls-27" d="M125.22,191.9c-11.75-.05-23.7-.36-35.42.51a.12.12,0,1,0,0,.24c11.75.44,23.66-.3,35.42-.57.11,0,.11-.17,0-.18Z" transform="translate(-0.02)"/></g><g class="cls-22"><path class="cls-27" d="M144.12,190.27c-11.74-.05-23.7-.36-35.42.51a.12.12,0,1,0,0,.24c11.75.44,23.66-.3,35.42-.57a.09.09,0,1,0,0-.18Z" transform="translate(-0.02)"/></g><path class="cls-24" d="M244,123.61a65.08,65.08,0,0,1-.82,29.73,64.13,64.13,0,0,1-5.32,13.77c-2.28,4.33-5.2,8.11-8,12.09-.26.38.31.79.63.48,7.11-6.73,11.6-17,13.94-26.4a64,64,0,0,0,.26-29.86c-.1-.46-.79-.26-.69.19Z" transform="translate(-0.02)"/><path class="cls-2" d="M28.36,42a23.11,23.11,0,0,0-1,7.52.33.33,0,0,0,.65,0,52.39,52.39,0,0,1,.73-7.4c.06-.28-.35-.4-.42-.12Z" transform="translate(-0.02)"/><text class="cls-28" transform="translate(52.09 62.17)">hello</text><path class="cls-2" d="M165.48,49a7.67,7.67,0,0,1,.52.79,11.18,11.18,0,0,1,.82,2.27c1,3.57,2.25,6.25,6.21,7.12,2.68.59,6-.07,7.33-2.75a7.11,7.11,0,0,0,.16-5.14A16.19,16.19,0,0,0,175,43.4a25.19,25.19,0,0,0-8.74-4.32,3.26,3.26,0,0,0-1.11-.17,2.35,2.35,0,0,0-1.15.48,4.52,4.52,0,0,0-1.63,3.9,7.51,7.51,0,0,0,1.68,4C164.5,47.88,165,48.43,165.48,49Z" transform="translate(-0.02)"/><path class="cls-2" d="M160,32.34c.73,1.36,1.9,2.19,1.87,3.73,0,2-2,4.14-4.05,3.13a4.1,4.1,0,0,1-1.59-1.53,4.91,4.91,0,0,1-.7-4.11c.58-1.79,3.53-3.52,4.59-1.17" transform="translate(-0.02)"/></g></g></g></svg>