<svg xmlns="http://www.w3.org/2000/svg" viewBox="0 0 530 265"><title>music concert</title><g style="isolation:isolate"><path d="M437.29,117.84c8.09,12.47,27.32,5.31,42,15.49,11.36,7.85,22.09,27.44,14.67,81.34l-438.15.24C53,207,36,158.16,62,120.67c13.4-19.28,33-28.09,44.67-33.34,40.09-18,49.9,1,81.33-16.66,18.92-10.61,20.26-12.38,60.44-30.76,18.52-8.47,27.78-12.7,36.23-15.24C329,11.34,383.07,17.29,389.52,37c2.29,7-3.21,10.3-.19,17,7.34,16.19,43.58,5.07,52.67,20.67C449.58,87.67,428.73,104.63,437.29,117.84Z" fill="#b0afce" opacity="0.65" style="mix-blend-mode:multiply"/><ellipse cx="264.7" cy="233.23" rx="231.5" ry="16.5" fill="#fff"/><path d="M167,53.07c3.43,4.33-2.37,13.7-2.83,14.41-.95,1.51-4.93,7.79-12.8,9.22-7.24,1.3-12.71-2.4-15.2-4.09-5.83-4-10.67-10.92-9-13.75.75-1.27,2.35-.92,3-2.38,1.07-2.38-3.1-4.54-2.37-7.75,1.08-4.77,6.57-7.62,10.12-6.81a12.43,12.43,0,0,1,4.69,2.25,12.63,12.63,0,0,1,3,3.73C149.21,53.54,163,48,167,53.07Z" fill="#a554d0"/><path d="M147.91,77.22c-5.84,0-10.27-3-12.33-4.4C130,69,124.65,61.87,126.5,58.73a3,3,0,0,1,1.56-1.18,2.33,2.33,0,0,0,1.43-1.17c.47-1-.21-2.07-1-3.25s-1.79-2.71-1.4-4.45c1.09-4.8,6.65-7.86,10.42-7a12.55,12.55,0,0,1,4.79,2.3,11.68,11.68,0,0,1,2.8,3.4l.24.39c1.76,2.77,6.29,2.72,10.66,2.66s8.7-.1,10.74,2.48c3.5,4.44-2.16,13.67-2.82,14.71-4.12,6.51-9.33,8.66-13,9.32A17.13,17.13,0,0,1,147.91,77.22ZM136.16,42a9.3,9.3,0,0,0-8.57,6.76c-.35,1.53.5,2.82,1.32,4.06s1.62,2.44,1,3.74A2.84,2.84,0,0,1,128.26,58a2.54,2.54,0,0,0-1.33,1c-1.53,2.6,3,9.37,8.93,13.41,2.56,1.73,7.87,5.34,15,4,3.54-.64,8.61-2.74,12.64-9.1.25-.4,6.19-9.89,2.85-14.13-1.89-2.38-6.19-2.34-10.34-2.29-4.52.06-9.18.11-11.09-2.9-.08-.11-.16-.25-.25-.4A11.43,11.43,0,0,0,142,44.36a12.36,12.36,0,0,0-4.59-2.2A5.7,5.7,0,0,0,136.16,42Z" fill="#a554d0"/><path d="M265.42,70.84c1.36,7.55,2.05,11.32.32,14.26-5.09,8.65-27.09,8.11-33.79-.87-1.67-2.24-1.58-3.93-4-6-5.2-4.44-13.2.36-15.5-3-1.34-2,1.05-3.72-.08-6.5C210.6,64.39,203.65,66,198,61.57c-4.08-3.23-7.42-9.63-5.83-13.84,2.92-7.71,23.79-11.48,37-3.5,6.6,4,8,9.08,16.18,11.27,7.3,1.94,11.37-.69,15.44,2.82C263.59,60.71,264.21,64.1,265.42,70.84Z" fill="#f85f75"/><path d="M249.29,92.58c-6.91,0-15-2.16-18.77-7.25a14.51,14.51,0,0,1-1.46-2.52,9,9,0,0,0-2.46-3.4c-2.65-2.26-6.11-2-9.17-1.74-2.79.23-5.2.42-6.42-1.36a3.63,3.63,0,0,1-.19-3.35,4.6,4.6,0,0,0,.05-3.24c-.84-2.08-3.08-2.66-5.91-3.39a21,21,0,0,1-8.27-3.58c-4.25-3.36-7.67-10-6-14.4,1-2.63,4-4.92,8.37-6.44,7.63-2.64,20.08-2.92,29.36,2.69a33.2,33.2,0,0,1,6.18,5c2.57,2.51,5,4.88,9.87,6.17a27.59,27.59,0,0,0,7.71.81c2.92,0,5.45,0,7.92,2.12,2.91,2.51,3.54,5.95,4.77,12.81l-.49.08.49-.08c1.39,7.66,2.08,11.51.26,14.6-2.14,3.64-7.41,6-14.11,6.39C250.46,92.57,249.88,92.58,249.29,92.58ZM220.44,76.51A9.39,9.39,0,0,1,230,82.38a14,14,0,0,0,1.36,2.35C235.22,90,244,91.92,251,91.54c6.36-.35,11.33-2.55,13.3-5.89,1.63-2.78,1-6.51-.38-13.92l.49-.1-.49.09c-1.2-6.62-1.8-9.95-4.44-12.23-2.19-1.88-4.33-1.88-7.27-1.87a28.55,28.55,0,0,1-8-.84c-5.12-1.36-7.64-3.82-10.31-6.42a32.13,32.13,0,0,0-6-4.9c-9-5.45-21.09-5.17-28.51-2.61-4.11,1.42-6.87,3.5-7.76,5.86-1.51,4,1.78,10.18,5.67,13.26a20.08,20.08,0,0,0,7.9,3.39c3,.77,5.55,1.44,6.59,4a5.59,5.59,0,0,1,0,3.89c-.28,1-.48,1.74.05,2.52.9,1.3,3,1.13,5.52.93C218.32,76.6,219.37,76.51,220.44,76.51Z" fill="#f85f75"/><path d="M364.79,56c-.52,4.11-13.65,8.67-20.67,4.25-1.75-1.1-3.16-2.78-5.23-2.47-2.69.41-2.85,3.62-5.44,4.1-1.43.26-2-.6-8.5-4.38-3.24-1.89-4-2.18-5-2.12-2.65.15-3.64,2.42-5.5,2-1.62-.4-1.23-2.21-3.12-3.59-3-2.2-6.79.42-8.63-1.66-1.18-1.35,0-2.88-1.37-4.21s-3.64-.27-4.88-1.63c-1.05-1.14-.79-3.37-.12-4.75.49-1,1.65-2.69,11.87-4.41,6.31-1.07,11.53-1.94,18.13-.59,1.75.36,1.89.52,5.75,2.15a64,64,0,0,0,6.38,2.61c6.61,2.47,8.46-.7,13.62,1.49,2,.87,4.44,3.42,9.25,8.5C364.75,54.85,364.86,55.48,364.79,56Z" fill="#fff"/><path d="M351.34,63A13.79,13.79,0,0,1,344,61.12c-.45-.28-.88-.6-1.29-.91-1.2-.89-2.32-1.74-3.77-1.52a4.06,4.06,0,0,0-2.63,2,4.58,4.58,0,0,1-2.8,2.12c-1.11.2-1.72-.17-4.3-1.76-1-.64-2.46-1.52-4.37-2.64-3.33-2-3.93-2.15-4.86-2.09a5.7,5.7,0,0,0-2.89,1.14,3.3,3.3,0,0,1-2.69.81c-.95-.24-1.3-.92-1.67-1.64a4.91,4.91,0,0,0-1.54-2c-1.47-1.07-3.11-.94-4.7-.82s-3,.23-4-.88a3.13,3.13,0,0,1-.68-2.19,2.52,2.52,0,0,0-.68-2,3.41,3.41,0,0,0-2.42-.79,3.28,3.28,0,0,1-2.46-.85c-1.11-1.21-.91-3.49-.17-5,.47-1,1.33-2.75,12.06-4.55,6.21-1,11.57-2,18.22-.58a15.87,15.87,0,0,1,3.85,1.33l1.95.83a64.41,64.41,0,0,0,6.37,2.6,14.1,14.1,0,0,0,7.45.82,10.75,10.75,0,0,1,6.17.68c2.1.89,4.51,3.45,9.33,8.55,3.42,3.62,3.62,4.32,3.54,5-.18,1.45-1.78,3-4.4,4.22A22.53,22.53,0,0,1,351.34,63Zm-12-4.82A6.21,6.21,0,0,1,343,59.81c.4.3.82.62,1.25.89,4.41,2.77,11.48,2,16.18-.25,2.42-1.14,4-2.57,4.11-3.82.06-.44-.16-1.12-3.4-4.55C356.37,47,354,44.49,352,43.64a10.49,10.49,0,0,0-5.93-.65,14.65,14.65,0,0,1-7.68-.84,62.26,62.26,0,0,1-6.4-2.62L330,38.71a15.09,15.09,0,0,0-3.75-1.3c-6.56-1.35-11.62-.5-18,.58-10.47,1.76-11.29,3.46-11.69,4.28-.68,1.41-.84,3.47.09,4.47a2.79,2.79,0,0,0,2.12.69,4,4,0,0,1,2.74.93,3,3,0,0,1,.83,2.35,2.72,2.72,0,0,0,.56,1.87c.81.92,2.08.83,3.55.71s3.41-.26,5,.92a5.37,5.37,0,0,1,1.7,2.16c.35.7.61,1.2,1.34,1.38s1.48-.21,2.3-.74a6.07,6.07,0,0,1,3.13-1.22c1.12-.07,1.89.26,5.14,2.16,1.92,1.12,3.34,2,4.38,2.64,2.45,1.51,3,1.87,4,1.7a4.18,4.18,0,0,0,2.49-1.93,4.54,4.54,0,0,1,3-2.17A5.11,5.11,0,0,1,339.38,58.15Z" fill="#fff"/><rect x="82.93" y="153.04" width="45.67" height="73.47" fill="#22130c"/><path d="M105.76,193.12a18.42,18.42,0,1,1,18.41-18.41A18.43,18.43,0,0,1,105.76,193.12Zm0-36.33a17.92,17.92,0,1,0,17.91,17.92A17.93,17.93,0,0,0,105.76,156.79Z" fill="#fff"/><path d="M105.76,190.74a16,16,0,1,1,16-16A16.06,16.06,0,0,1,105.76,190.74Zm0-31.57a15.54,15.54,0,1,0,15.54,15.54A15.56,15.56,0,0,0,105.76,159.17Z" fill="#fff"/><path d="M105.76,184.15a9.45,9.45,0,1,1,9.45-9.44A9.46,9.46,0,0,1,105.76,184.15Zm0-18.39a8.95,8.95,0,1,0,8.95,9A9,9,0,0,0,105.76,165.76Z" fill="#fff"/><path d="M105.76,223.25a13.1,13.1,0,1,1,13.1-13.1A13.11,13.11,0,0,1,105.76,223.25Zm0-25.7a12.6,12.6,0,1,0,12.6,12.6A12.62,12.62,0,0,0,105.76,197.55Z" fill="#fff"/><path d="M105.76,221.57a11.42,11.42,0,1,1,11.42-11.42A11.43,11.43,0,0,1,105.76,221.57Zm0-22.34a10.92,10.92,0,1,0,10.92,10.92A10.93,10.93,0,0,0,105.76,199.23Z" fill="#fff"/><path d="M105.76,216.91a6.76,6.76,0,1,1,6.76-6.76A6.77,6.77,0,0,1,105.76,216.91Zm0-13a6.26,6.26,0,1,0,6.26,6.25A6.26,6.26,0,0,0,105.76,203.9Z" fill="#fff"/><path d="M247.8,176.46c-.18,2.62-.51,7-.43,13.11,0,1.05,0,2,.07,3,.08,2.16.18,4,.28,5.31-1.2-.29-2.41-.61-3.61-.92,0-.74,0-1.85,0-3.21,0-.15,0-.28,0-.42,0-.46-.07-.9-.11-1.34-1-11-5.51-15.7-5.8-24.74a29.86,29.86,0,0,1,1.33-9.55c2.92-.48,5.82-1,8.74-1.42C248.38,165,248.09,171.74,247.8,176.46Z" fill="#ffbd91"/><path d="M248.77,204.68l-9.09-.07a1.79,1.79,0,0,1-.34-1.28c.17-.86,1.26-1.24,1.87-1.57,1-.55,2.2-1.8,2.91-4.85l3.54.36c.35,1.35.66,2.6,1,3.85a7.52,7.52,0,0,1,.28,2.71A6.78,6.78,0,0,1,248.77,204.68Z" fill="#ffbd91"/><path d="M249.64,204.68H239.38a2.58,2.58,0,0,1,.05-1.81,2.49,2.49,0,0,1,1.15-1.1,10.77,10.77,0,0,0,2.78-2.54,2.69,2.69,0,0,1,1.9-2.92,2.75,2.75,0,0,1,3,2.77c.31.76.55,1.41.73,1.91a10.14,10.14,0,0,1,.64,2.27A7.34,7.34,0,0,1,249.64,204.68Z" fill="#fff"/><path d="M247.44,192.53c-1.15.4-2.25.8-3.37,1.18,0-.15,0-.28,0-.42,0-.46-.07-.9-.11-1.34C245.11,192.13,246.27,192.32,247.44,192.53Z" fill="#22130c"/><path d="M248.79,192l-6.85.79a69.31,69.31,0,0,1-5.33-20c-.85-8.05.23-12.38,1-14.71a28.5,28.5,0,0,1,2.15-5l12.4,2.26Z" fill="#f85f75"/><path d="M242.64,190.89a.13.13,0,0,1-.12-.08,57.37,57.37,0,0,1-3.17-33.17.12.12,0,0,1,.15-.1.13.13,0,0,1,.09.15,58,58,0,0,0-1,14.45,57,57,0,0,0,4.21,18.57.14.14,0,0,1-.07.17Z" fill="#fff"/><path d="M277.8,147.36a31.16,31.16,0,0,1-14.27,9,31.59,31.59,0,0,1-20.85-1.28,55.33,55.33,0,0,1,7.76-18.15,54.67,54.67,0,0,1,7.21-8.74c-2.16-5-4.29-10.26-6.31-15.88q-1.82-5-3.32-9.85l0-.09c.64-3.08,2.09-3.87,2.55-4.13,1.39-.82,2.64-.63,4.77-.36,3.65.46,3.62-1.27,8.88-1.67a22.79,22.79,0,0,1,4.51,0l.09.08c1.91,1.5,4.42.92,6.35,2.21a6.71,6.71,0,0,1,.89,4.66c-.05.44-.12.87-.2,1.27-1,4-1.15,11-1.89,16.67-.57,4.45-1.44,7.62,0,10.91.13.29.2.4.46,1a39.25,39.25,0,0,1,2.49,7.64A40.25,40.25,0,0,1,277.8,147.36Z" fill="#f85f75"/><path d="M275.22,135a.13.13,0,0,1-.12-.08c-.24-.63-.49-1.24-.76-1.87-.15-.33-.23-.51-.3-.65l-.16-.34c-1.21-2.75-.82-5.42-.32-8.79.1-.7.21-1.42.31-2.19.29-2.2.48-4.61.67-6.94a81.72,81.72,0,0,1,1-9,.15.15,0,0,1,.15-.1.13.13,0,0,1,.1.15,78.69,78.69,0,0,0-1,9c-.19,2.33-.39,4.74-.67,6.94-.1.77-.21,1.5-.31,2.2-.49,3.33-.89,6,.3,8.65l.15.33c.07.15.16.33.31.66.27.63.53,1.24.77,1.88a.13.13,0,0,1-.07.16Z" fill="#22130c"/><path d="M277,109.28a4.11,4.11,0,1,1-4.11-4.11A4.1,4.1,0,0,1,277,109.28Z" fill="#ffbd91"/><path d="M272.87,113.51a4.23,4.23,0,0,1-3.39-1.71.12.12,0,0,1,0-.17.14.14,0,0,1,.18,0,4,4,0,0,0,7.17-2.37,4,4,0,0,0-.93-2.57.13.13,0,0,1,0-.18.14.14,0,0,1,.18,0,4.24,4.24,0,0,1-3.24,7Z" fill="#22130c"/><path d="M264.22,109.28a4.11,4.11,0,1,1-4.11-4.11A4.1,4.1,0,0,1,264.22,109.28Z" fill="#ffbd91"/><path d="M260.11,113.51a4.25,4.25,0,0,1-3.68-2.15.12.12,0,1,1,.21-.13,4,4,0,0,0,7.38-1.18.12.12,0,0,1,.14-.1.12.12,0,0,1,.1.15A4.23,4.23,0,0,1,260.11,113.51Z" fill="#22130c"/><path d="M277.37,103.24l-1.29,0-28-.83a6.92,6.92,0,0,1,2.05-4.05c2.26-2,4.89-1,7.09-2.47,1.38-1,2.74-3,2.69-8,0-1.64.06-3.27.1-4.9a15.18,15.18,0,0,0,4.32,3.73,14.52,14.52,0,0,0,2.47,1.13,19.63,19.63,0,0,0,0,3.83c.26,2.56,1.14,3.86,2,4.59l.09.08c1.91,1.5,4.42.92,6.35,2.21a4.14,4.14,0,0,1,.85.74A6.12,6.12,0,0,1,277.37,103.24Z" fill="#ffbd91"/><path d="M266.74,91.66a3.18,3.18,0,0,1-3.66-2.75,2.71,2.71,0,0,1,1.21-2.21,14.52,14.52,0,0,0,2.47,1.13A19.63,19.63,0,0,0,266.74,91.66Z" fill="#22130c"/><path d="M271.23,80.57a7.37,7.37,0,0,1,.27,3.66c0,.24-.3,3.14-1.49,4.16a4.17,4.17,0,0,1-.9.6,4.12,4.12,0,0,1-1,.33,12.48,12.48,0,0,1-6.84-.95c-3.85-1.84-8.57-7.21-6.89-12.22,1-3.09,4-4.61,5.24-5.15.14,0,.29-.11.47-.16a9.7,9.7,0,0,1,1.32-.34,7.22,7.22,0,0,1,4,.34,6.71,6.71,0,0,1,3.11,3.6c.12.26.21.5.3.73s.18.5.25.7a18.1,18.1,0,0,0,.67,1.9C270.41,79.32,270.84,79.59,271.23,80.57Z" fill="#ffbd91"/><path d="M255.11,84.71c.51,1.17,1.61,1.81,2.47,1.44a2.4,2.4,0,1,0-2.47-1.44Z" fill="#ffbd91"/><path d="M257.07,86.38a1.94,1.94,0,0,1-1.26-.51.12.12,0,0,1,0-.17.14.14,0,0,1,.18,0,1.51,1.51,0,0,0,1.56.36,1.27,1.27,0,0,0,.55-.48.14.14,0,0,1,.17,0,.13.13,0,0,1,0,.18,1.51,1.51,0,0,1-.66.57A1.55,1.55,0,0,1,257.07,86.38Z" fill="#22130c"/><path d="M255.66,85.69a.18.18,0,0,1-.09,0,3.2,3.2,0,0,1-.49-.71.12.12,0,0,1,.06-.17.12.12,0,0,1,.16,0,3.19,3.19,0,0,0,.45.66.11.11,0,0,1,0,.17A.12.12,0,0,1,255.66,85.69Z" fill="#22130c"/><path d="M255,84.6a.11.11,0,0,1-.11-.08,2.11,2.11,0,0,1,.8-2.71,1.53,1.53,0,0,1,.63-.11.13.13,0,1,1,0,.25,1.14,1.14,0,0,0-.52.09,1.87,1.87,0,0,0-.67,2.4.13.13,0,0,1-.08.16Z" fill="#22130c"/><path d="M257.43,85a.16.16,0,0,1-.09,0l-1.61-1.6a.13.13,0,0,1,.18-.18l1.61,1.6a.13.13,0,0,1,0,.18A.14.14,0,0,1,257.43,85Z" fill="#22130c"/><path d="M256.55,84.07a.13.13,0,0,1-.12-.14l.11-.78a.12.12,0,0,1,.14-.1.12.12,0,0,1,.11.14l-.11.77A.14.14,0,0,1,256.55,84.07Z" fill="#22130c"/><path d="M260,81.6a.11.11,0,0,1-.08,0,.12.12,0,0,1,0-.17c1-1.22,2.16-1.8,3-1.46a1.61,1.61,0,0,1,.33.2l.24-.58a.13.13,0,1,1,.23.1l-.31.75a.12.12,0,0,1-.1.07.1.1,0,0,1-.11,0,1.1,1.1,0,0,0-.38-.27c-.69-.29-1.76.27-2.67,1.38A.14.14,0,0,1,260,81.6Z" fill="#22130c"/><path d="M266.93,79.21h-.05a.12.12,0,0,1-.06-.16c.63-1.44,1.58-2.32,2.46-2.21a1.21,1.21,0,0,1,.37.11l.08-.63a.14.14,0,0,1,.14-.11.12.12,0,0,1,.11.14l-.1.82a.13.13,0,0,1-.19.09,1,1,0,0,0-.44-.17c-.74-.09-1.63.74-2.2,2.06A.14.14,0,0,1,266.93,79.21Z" fill="#22130c"/><path d="M258.69,79.79A10.7,10.7,0,0,1,261,78.57a10.85,10.85,0,0,1,2.2-.57,2.36,2.36,0,0,0-.21-.36,2,2,0,0,0-.7-.58,17.53,17.53,0,0,0-1.61.71,4.48,4.48,0,0,0-1.34.84A2.58,2.58,0,0,0,258.69,79.79Z" fill="#22130c"/><path d="M262.64,76.89a1.84,1.84,0,0,1,.38.37,1.44,1.44,0,0,1,.34.66s-.32-.33-.4-.44a2.12,2.12,0,0,0-.41-.46l-.11-.09Z" fill="#22130c"/><path d="M268.53,74.44c.12.26.21.5.3.73-.24.12-.49.25-.74.4a9.92,9.92,0,0,0-1.8,1.38,1.76,1.76,0,0,1-.16-.39,2,2,0,0,1,0-.91c.62-.36,1.16-.64,1.56-.83S268.32,74.52,268.53,74.44Z" fill="#22130c"/><path d="M265.74,75.84a2.36,2.36,0,0,0,.06.53,1.34,1.34,0,0,0,.31.67,2.31,2.31,0,0,0-.1-.59,2.45,2.45,0,0,1-.12-.6.58.58,0,0,1,0-.15Z" fill="#22130c"/><path d="M267,82.15a1.54,1.54,0,0,1,.61-.45,1.44,1.44,0,0,1,.75-.13,1.65,1.65,0,0,1-1.36.58Z" fill="#22130c"/><path d="M270.05,83.46c.29.23,0,2.24-1.35,2.64-1.1.34-2.43-.6-2.37-1,0-.1.11-.09.3-.27.63-.58.47-1.33.91-1.47a4.16,4.16,0,0,0,.49-.18l.17-.1c.3-.18.29-.25.43-.28h.05a2.23,2.23,0,0,1,.79.33l.34.19Z" fill="#b73232"/><path d="M263.75,97.64a1,1,0,0,0,1,.5,1.32,1.32,0,0,0,.76-.85Z" fill="#22130c"/><path d="M265.92,98.86a3.83,3.83,0,0,0,.51.3,2.94,2.94,0,0,0,1.79.22,33.47,33.47,0,0,0,3.49-.65l-3.36.18Z" fill="#22130c"/><path d="M263.75,98.86a7.4,7.4,0,0,1-.77.3,6.63,6.63,0,0,1-2.72.22c-2.38-.2-4.57-.53-5.31-.65l5.11.18Z" fill="#22130c"/><path d="M266.44,85.12a5.39,5.39,0,0,1-1.86-.33.13.13,0,0,1-.08-.16.13.13,0,0,1,.16-.08,5,5,0,0,0,5.53-1.41.13.13,0,0,1,.18,0,.14.14,0,0,1,0,.18,5.25,5.25,0,0,1-2.28,1.53A4.9,4.9,0,0,1,266.44,85.12Z" fill="#22130c"/><path d="M248,78.34l-5.46,2.52a70,70,0,0,0,1.39,14.58c.45,2.2,1,4.27,1.55,6.18,1.29,3.41,4.21,4.75,5.61,4.08,1.24-.59,1.92-3.06,1-5.76Z" fill="#ffbd91"/><path d="M257.62,58.72l-2-1.07c-5.48,7.94-9.43,14-11.23,16.66-.69,1-2.25,3.28-1.91,6,0,.25.07.45.09.55l5.48.9a31,31,0,0,0,2.15-3.66c3.22-6.46,2.4-10.51,5.74-16.63A26.82,26.82,0,0,1,257.62,58.72Z" fill="#ffbd91"/><path d="M291.2,85.86l2.58,5.43a69.87,69.87,0,0,1-10.39,10.31c-1.76,1.41-3.49,2.65-5.15,3.75-3.18,1.8-6.28,1-6.92-.44-.58-1.25.48-3.59,2.87-5.1Z" fill="#ffbd91"/><path d="M260.82,59c-.6,1.73-1.28,3.71-3.22,4.45-2.42.93-4.86-.85-5.11-1a8,8,0,0,1,.24-1.39c1.28-4.84,6.84-8.34,8.38-7.28C262.34,54.58,261.06,58.29,260.82,59Z" fill="#ffbd91"/><path d="M248.86,69.71a3,3,0,0,1-1-.71,2.89,2.89,0,0,1-.65-1.16l31-26A.61.61,0,0,1,279,42a.56.56,0,0,1,0,.74Z" fill="#22130c"/><path d="M260.82,58.32c-1.26,1.47-1.67,1.54-1.92,1.51-.55-.07-.61-.64-1.28-1.11-1.35-.95-3,.05-3.25-.4-.48-.86,3.5-5.37,6.51-4.44a2.41,2.41,0,0,1,1.68,1.52C262.71,56.11,262.08,56.84,260.82,58.32Z" fill="#ffbd91"/><path d="M281.2,66.73l2.14-.79c4.15,8.73,7.22,15.1,9,18,.57.92,2.22,3.49,1.7,6.46a6.18,6.18,0,0,1-.23.91l-6.08-.46a30.49,30.49,0,0,1-1.65-3.91c-2.35-6.83-1-10.73-3.52-17.24A26.52,26.52,0,0,0,281.2,66.73Z" fill="#ffbd91"/><path d="M279.05,67.38A6.62,6.62,0,0,0,283,71.06a5.4,5.4,0,0,0,2.8,0,8,8,0,0,0-.06-1.41c-.63-5-5.88-9.16-7.36-8.31C277.32,61.94,278,65.29,279.05,67.38Z" fill="#ffbd91"/><path d="M288.45,78.77a3,3,0,0,0,1.09-.57,2.9,2.9,0,0,0,.8-1.07L263,47.3a.59.59,0,0,0-.83.06.57.57,0,0,0-.06.74Z" fill="#22130c"/><path d="M277.59,65.67c.55.69,1.06,1.33,1.79,1.35.53,0,.73-.29,1.32-.54,1.62-.69,3,.43,3.28,0,.59-.79-2.77-5.78-5.88-5.25a2.38,2.38,0,0,0-1.86,1.29C275.9,63.52,276.72,64.57,277.59,65.67Z" fill="#ffbd91"/><path d="M277.08,128.94l-25.25-.49-4.5-19.78-7.06-4.76,10.34-12,2.68,3.8,4.47-.38a15.9,15.9,0,0,0,10.84,0l4,2.17,6.88-2.49q1.28,7.1,2.54,14.19l-3.58.34Q277.78,119.27,277.08,128.94Z" fill="#fff"/><path d="M268.9,71.21a4.11,4.11,0,0,1-1.7,2.55c-1.2,1-2.13,1-3.7,1.6-1.86.65-4.85,1.71-6.05,4-.92,1.79-.35,3.51-1.19,3.79s-1.66-.87-1.89-1.13a9.1,9.1,0,0,1-.91-9.64c2-3.89,6.32-4.63,9.31-5.15s4,.12,4.51.51A3.87,3.87,0,0,1,268.9,71.21Z" fill="#f85f75"/><path d="M262.13,81.05a.79.79,0,1,1-.78-1A.88.88,0,0,1,262.13,81.05Z" fill="#22130c"/><path d="M268.52,78.66a.79.79,0,1,1-.77-1A.88.88,0,0,1,268.52,78.66Z" fill="#22130c"/><rect x="252.83" y="196.46" width="2.98" height="7.27" fill="#22130c"/><rect x="290.63" y="195.71" width="2.98" height="8.02" fill="#22130c"/><rect x="214.43" y="122.8" width="2.02" height="80.08" rx="0.96" fill="#22130c"/><rect x="206.2" y="190.64" width="1.3" height="19.54" rx="0.55" transform="translate(276.95 -78.94) rotate(59.99)" fill="#22130c"/><rect x="222.82" y="190.64" width="1.3" height="19.54" rx="0.55" transform="translate(-61.84 293.69) rotate(-59.99)" fill="#22130c"/><polygon points="287.63 127.61 258.48 127.4 258.27 142.81 287.42 143.02 287.63 127.61" fill="#e9c40f"/><path d="M287.26,142.52l-28.82-.21c-.26,0-.47.15-.47.33v.08c0,.18.2.34.46.34l28.82.21c.26,0,.47-.15.47-.34v-.07C287.72,142.67,287.52,142.52,287.26,142.52Z" fill="#22130c"/><path d="M287.47,127.23,258.65,127c-.26,0-.47.15-.47.34v.07c0,.19.2.34.46.34l28.82.21c.26,0,.47-.15.47-.33v-.07C287.93,127.39,287.73,127.24,287.47,127.23Z" fill="#22130c"/><path d="M264,140.64h-.66c-.52,0-1,.3-1,.68v1c0,.39.41.7.94.7H264c.53,0,1-.31,1-.69l0-.95C265,141,264.54,140.64,264,140.64Z" fill="#fff"/><polygon points="264.33 139.7 263.06 139.69 263.05 140.96 264.31 140.97 264.33 139.7" fill="#fff"/><path d="M282.4,140.63h-.67c-.52,0-1,.3-1,.69v.95c0,.38.42.7.94.7h.66c.53,0,1-.3,1-.68v-.95C283.34,140.94,282.92,140.63,282.4,140.63Z" fill="#fff"/><polygon points="282.71 139.69 281.44 139.68 281.43 140.95 282.69 140.96 282.71 139.69" fill="#fff"/><path d="M264.17,129.58h-.67c-.52,0-.94-.32-.94-.7v-1c0-.38.44-.69,1-.69h.67c.52,0,.94.32.94.7v.95C265.12,129.27,264.69,129.58,264.17,129.58Z" fill="#fff"/><polygon points="264.45 130.52 263.19 130.51 263.21 129.24 264.47 129.25 264.45 130.52" fill="#fff"/><path d="M282.54,129.86h-.66c-.53,0-.95-.32-.94-.7v-1c0-.38.44-.69,1-.69h.66c.53,0,.95.32.95.7l0,.95C283.5,129.55,283.07,129.86,282.54,129.86Z" fill="#fff"/><polygon points="282.83 130.8 281.57 130.79 281.58 129.52 282.85 129.53 282.83 130.8" fill="#fff"/><rect x="197.75" y="118.89" width="42.28" height="1.37" rx="0.64" transform="translate(-5.98 227.49) rotate(-54.28)" fill="#22130c"/><path d="M254.27,107.83c-.17.88-14.32-.66-23.48-1.94-9.52-1.32-23.69-3.73-23.61-4.63,0-.49,4.16-.71,23.9.75C250.43,106,254.36,107.35,254.27,107.83Z" fill="#e9c40f"/><path d="M312.85,199.41a1,1,0,0,1-1-1V95.56a1,1,0,1,1,2,0V198.4A1,1,0,0,1,312.85,199.41Z" fill="#22130c"/><path d="M295.85,202.41l-.1-.21a.74.74,0,0,1,.2-.9l16-11a.49.49,0,0,1,.75.24l.1.2a.74.74,0,0,1-.2.9l-16,11A.51.51,0,0,1,295.85,202.41Z" fill="#22130c"/><path d="M312.47,190.51l-.1.2a.74.74,0,0,0,.2.9l16,11a.51.51,0,0,0,.75-.24l.1-.21a.74.74,0,0,0-.2-.9l-16-11A.49.49,0,0,0,312.47,190.51Z" fill="#22130c"/><path d="M332.8,88.54c.46,1.16-11.84,7.36-20,11.06-8.46,3.83-21.36,9-21.91,7.85-.29-.6,2.84-3.22,19.53-12.72C328.51,88.53,332.55,87.91,332.8,88.54Z" fill="#e9c40f"/><rect x="298.04" y="131.63" width="2.02" height="71.09" rx="0.83" fill="#22130c"/><path d="M282.05,204.76l-.1-.14a.41.41,0,0,1,.21-.61l16-7.48a.63.63,0,0,1,.75.16l.1.14a.41.41,0,0,1-.2.61l-16,7.48A.62.62,0,0,1,282.05,204.76Z" fill="#22130c"/><path d="M298.67,196.69l-.1.14a.41.41,0,0,0,.2.61l16,7.48a.62.62,0,0,0,.75-.16l.1-.14a.41.41,0,0,0-.2-.61l-16-7.48A.63.63,0,0,0,298.67,196.69Z" fill="#22130c"/><polygon points="213.82 160.73 213.58 160.69 218.07 136.27 218.32 136.31 213.82 160.73" fill="#fff"/><polygon points="236.22 163.01 235.97 162.97 239.8 140.55 240.05 140.59 236.22 163.01" fill="#fff"/><polygon points="263.48 140.64 263.23 140.63 263.54 136.05 263.79 136.06 263.48 140.64" fill="#fff"/><rect x="281.92" y="136.74" width="0.25" height="6.52" fill="#fff"/><circle cx="272.95" cy="174.02" r="30.14" transform="translate(40.18 398.97) rotate(-76.54)" fill="#e9c40f"/><circle cx="272.95" cy="174.02" r="27.57" fill="#22130c"/><path d="M261,177.17c.46-.32,1.92-1.7,2.45-1.68,1.72,0,.24.38.66.78s-.17.49.77.61c.76.1,2.05-1,2.66-1.3s2.34-1.63,2.34.33c0-.16-.45.89-.43.84-.09.28.35.4.43.12.2-.64,1.48-1.67.69-2.44s-2.33.29-3,.62c-.91.46-2.2,1.54-3,.6-.1-.13,0-.5-.2-.68-.84-.78-3.12,1.47-3.63,1.81-.24.17,0,.56.23.39Z" fill="#fff"/><path d="M270.19,177c.63-.72,1.48-2.14,2.31-2.6.49-1,1-.86,1.5.37-.11.25-.22.5-.32.75-.09,1-.61,2-.73,2.94a14,14,0,0,0-.07,2.33.22.22,0,0,0,.38.16,58.24,58.24,0,0,0,8-9.76c.16-.25-.23-.47-.39-.23a56.9,56.9,0,0,1-5.44,7.13c-.43.48-.86,1-1.34,1.43-1.07,1-.39.58-.74.14-.78-1,1.09-4.2,1.29-5.16.13-.6.27-1.43-.53-1.69-1.36-.43-3.54,3.12-4.2,3.87-.19.21.12.53.32.32Z" fill="#fff"/><path d="M281.16,171.1c-.76,2.22-1.53,4.43-2.3,6.65-.16.47-1,1.8-.34,2.31,1.16,1,2.66-2.24,2.93-2.78,1.11-2.19,3.75-5.85,2.88-8.45-.76-2.28-3-2-4.74-1-.25.14,0,.53.23.39,2-1.11,4.6-.22,4.1,2.57a12.41,12.41,0,0,1-1.22,2.89c-.67,1.42-1.3,2.91-2.09,4.27-.09.15-1.38,2.08-1.77,1.26a15,15,0,0,1,.92-2.66c.61-1.77,1.22-3.55,1.84-5.32.09-.27-.34-.39-.44-.12Z" fill="#fff"/><rect x="241.3" y="116.84" width="25.02" height="18.14" transform="translate(38.33 -58.05) rotate(14.1)" fill="#e9c40f"/><rect x="243.21" y="116.81" width="25.54" height="0.88" rx="0.4" transform="translate(36.29 -58.85) rotate(14.1)" fill="#22130c"/><rect x="238.83" y="134.27" width="25.54" height="0.88" rx="0.4" transform="translate(40.41 -57.25) rotate(14.1)" fill="#22130c"/><rect x="246.97" y="115" width="2.2" height="2.75" rx="0.82" transform="translate(35.85 -56.96) rotate(14.11)" fill="#fff"/><rect x="247.1" y="117.31" width="1.09" height="1.5" transform="translate(36.23 -56.79) rotate(14.1)" fill="#fff"/><rect x="262.22" y="119.01" width="2.2" height="2.75" rx="0.82" transform="translate(37.29 -60.56) rotate(14.11)" fill="#fff"/><rect x="262.36" y="121.32" width="1.09" height="1.5" transform="translate(37.67 -60.39) rotate(14.1)" fill="#fff"/><rect x="243.12" y="130.3" width="2.2" height="2.75" rx="0.82" transform="translate(39.48 -55.57) rotate(14.11)" fill="#fff"/><rect x="244.1" y="129.25" width="1.09" height="1.5" transform="translate(39.05 -55.69) rotate(14.1)" fill="#fff"/><rect x="258.46" y="133.98" width="2.2" height="2.75" rx="0.82" transform="translate(40.79 -59.15) rotate(14.1)" fill="#fff"/><rect x="259.44" y="132.92" width="1.09" height="1.5" transform="translate(40.41 -59.33) rotate(14.1)" fill="#fff"/><polygon points="244.34 131.05 244.1 130.98 247.46 118.37 247.7 118.44 244.34 131.05" fill="#fff"/><polygon points="259.83 134.46 259.58 134.4 262.94 121.79 263.18 121.86 259.83 134.46" fill="#fff"/><rect x="278.7" y="118.94" width="29.15" height="21.14" transform="translate(-22.72 75.37) rotate(-14.1)" fill="#e9c40f"/><rect x="280.93" y="139.09" width="29.76" height="1.03" rx="0.47" transform="translate(-25.1 76.29) rotate(-14.1)" fill="#22130c"/><rect x="275.82" y="118.75" width="29.76" height="1.03" rx="0.47" transform="translate(-20.3 74.44) rotate(-14.1)" fill="#e9c40f"/><rect x="285.31" y="139.02" width="2.57" height="3.21" rx="0.95" transform="translate(-25.63 74.06) rotate(-14.1)" fill="#fff"/><rect x="285.47" y="137.79" width="1.27" height="1.74" transform="translate(-25.16 73.89) rotate(-14.1)" fill="#fff"/><rect x="303.09" y="134.34" width="2.57" height="3.21" rx="0.95" transform="translate(-23.96 78.3) rotate(-14.11)" fill="#fff"/><rect x="303.24" y="133.11" width="1.27" height="1.74" transform="translate(-23.49 78.08) rotate(-14.1)" fill="#fff"/><rect x="280.83" y="121.19" width="2.57" height="3.21" rx="0.95" transform="translate(-21.42 72.43) rotate(-14.1)" fill="#fff"/><rect x="281.97" y="123.88" width="1.27" height="1.74" transform="translate(-21.88 72.62) rotate(-14.1)" fill="#fff"/><rect x="298.7" y="116.9" width="2.57" height="3.21" rx="0.95" transform="translate(-19.83 76.66) rotate(-14.1)" fill="#fff"/><rect x="299.85" y="119.6" width="1.27" height="1.74" transform="translate(-20.3 76.85) rotate(-14.1)" fill="#fff"/><polygon points="286.47 140.36 282.48 124.78 282.73 124.72 286.71 140.3 286.47 140.36" fill="#fff"/><rect x="301.84" y="119.91" width="0.25" height="15.56" transform="translate(-22.11 78.05) rotate(-14.21)" fill="#fff"/><path d="M264.05,137.31c-.1,0-.14-.08-.12-.15l2.25-9.68a.12.12,0,0,1,.15-.1.13.13,0,0,1,.1.15l-2.26,9.69A.11.11,0,0,1,264.05,137.31Z" fill="#22130c"/><path d="M281.13,141.1a.14.14,0,0,1-.13-.1l-3.22-12.84a.11.11,0,0,1,.09-.15c.06,0,.13,0,.15.09l3.23,12.84a.13.13,0,0,1-.09.15Z" fill="#22130c"/><path d="M226.17,203.54a1,1,0,0,1-1-1V165.07a1,1,0,0,1,2,0v37.46A1,1,0,0,1,226.17,203.54Z" fill="#22130c"/><path d="M209.17,207.16l-.1-.24a1,1,0,0,1,.2-1.09l16-13.33c.26-.21.6-.08.75.3l.1.24a1,1,0,0,1-.2,1.09l-16,13.32C209.66,207.67,209.32,207.54,209.17,207.16Z" fill="#22130c"/><path d="M225.79,192.8l-.1.24a1,1,0,0,0,.2,1.09l16,13.32c.26.22.6.09.75-.29l.1-.24a1,1,0,0,0-.2-1.09l-16-13.33C226.28,192.29,225.94,192.42,225.79,192.8Z" fill="#22130c"/><rect x="209.5" y="132.63" width="35.13" height="33.49" transform="translate(30.42 -38.25) rotate(10.32)" fill="#e9c40f"/><path d="M246.71,137,213,130.9a.81.81,0,0,1-.66-.94.82.82,0,0,1,1-.66L247,135.43a.82.82,0,0,1,.65.95A.81.81,0,0,1,246.71,137Z" fill="#e9c40f"/><path d="M240.76,169.71l-33.67-6.13a.81.81,0,0,1-.66-.94.82.82,0,0,1,.95-.66l33.67,6.13a.81.81,0,1,1-.29,1.6Z" fill="#22130c"/><rect x="217.22" y="130.6" width="3.09" height="5.08" rx="1.3" transform="translate(27.41 -37.06) rotate(10.33)" fill="#fff"/><rect x="217.43" y="134.91" width="1.52" height="2.76" transform="translate(27.93 -36.87) rotate(10.31)" fill="#fff"/><rect x="238.95" y="134.88" width="3.09" height="5.08" rx="1.3" transform="translate(28.5 -40.85) rotate(10.32)" fill="#fff"/><rect x="239.16" y="139.19" width="1.52" height="2.76" transform="translate(29.05 -40.69) rotate(10.32)" fill="#fff"/><rect x="212" y="159.25" width="3.09" height="5.08" rx="1.3" transform="translate(32.42 -35.62) rotate(10.32)" fill="#fff"/><rect x="213.36" y="157.26" width="1.52" height="2.76" transform="translate(31.87 -35.78) rotate(10.32)" fill="#fff"/><rect x="233.85" y="162.91" width="3.09" height="5.08" rx="1.3" transform="translate(33.48 -39.52) rotate(10.33)" fill="#fff"/><rect x="235.21" y="160.91" width="1.52" height="2.76" transform="translate(32.87 -39.63) rotate(10.31)" fill="#fff"/><rect x="197.2" y="204.73" width="144" height="9" fill="#fff"/><rect x="152.2" y="212.73" width="234" height="9" fill="#fff"/><path d="M341.2,212.86h-144a.12.12,0,0,1-.12-.13.12.12,0,0,1,.12-.12h144a.12.12,0,0,1,.13.12A.13.13,0,0,1,341.2,212.86Z" fill="#22130c"/><path d="M386.2,221.86h-234a.12.12,0,0,1-.12-.13.12.12,0,0,1,.12-.12h234a.12.12,0,0,1,.13.12A.13.13,0,0,1,386.2,221.86Z" fill="#22130c"/><path d="M153.44,179.05a5.09,5.09,0,0,1-.06,1c-.92,5.3-4.21,8.49-6.31,8.21s-4.75-4.63-3.81-10.47a74.44,74.44,0,0,1-2.47-34.69,72.72,72.72,0,0,1,6-19.12l13.81,15.76c-2.09,12.74-3.78,19.61-5,23.58a46.74,46.74,0,0,0-2,9.83A45.55,45.55,0,0,0,153.44,179.05Z" fill="#ffbd91"/><path d="M146.15,227.08l-5.37-.16c.05-1.33.11-3.41.05-5.95-.28-13-3.05-17.7-2.29-25.53A32.15,32.15,0,0,1,143.16,182l10.3-2.41c-1.24,5.27-2.4,10.82-3.43,16.62C148.09,207.17,146.87,217.51,146.15,227.08Z" fill="#ffbd91"/><path d="M147.13,232.32a1.65,1.65,0,0,1,0,.73,1.49,1.49,0,0,1-1.41,1.12h-9.57a2.13,2.13,0,0,1,0-1.07c.28-.9,1.25-1.3,1.64-1.5.93-.49,2.13-1.7,3-5l5.41.52C146.6,229.56,146.93,231.42,147.13,232.32Z" fill="#ffbd91"/><path d="M195.88,234.11l-21.44.06a5.32,5.32,0,0,1,.12-3.3,4.93,4.93,0,0,1,.5-1,12.64,12.64,0,0,0,1.6-5.13l3.89-.45c4.9,6.61,7.68,7.93,9.33,7.83,1.16-.06,2.27.58,3.44.59.74,0,1.66-.07,2.19.53A1.58,1.58,0,0,1,195.88,234.11Z" fill="#ffbd91"/><path d="M177.66,177.45c-.52,2.83-1.71,9.24-4.16,9.48-2.86.28-5.77-8-6.2-9.26-3.72-6.12-10.44-47.92-9.38-53.1l15.51,9C180,155.89,179.09,169.77,177.66,177.45Z" fill="#ffbd91"/><path d="M181.48,225.54l-4.86.41c-.27-1.32-.71-3.35-1.37-5.8-3.41-12.65-7.14-16.62-8.32-24.24a32.47,32.47,0,0,1,1.49-15.32l9.2-3.66c.09,5.48.29,11.14.64,17C178.94,205.09,180.06,215.67,181.48,225.54Z" fill="#ffbd91"/><path d="M174.11,224l7-.73a285.07,285.07,0,0,0-1.29-61.81c-1.24-9.55-2.9-18.48-4.8-26.76l-17,4.82q4.11,21.44,8.21,42.89a58.73,58.73,0,0,0-.79,7.84C165,204.76,170,216.58,174.11,224Z" fill="#3c3cc5"/><path d="M139.29,224.25h10q2.92-21.33,5.86-42.65l5.16-39.35,5-4.82-22.82-1.85a98.5,98.5,0,0,0-1.34,44,73.45,73.45,0,0,0-2.52,8.45A76.76,76.76,0,0,0,139.29,224.25Z" fill="#3c3cc5"/><path d="M146.13,124.37c-.93,10.27,5.14,18.39,11.15,19.25,6.8,1,16.08-7,15.78-19.25q-.27-6.86-.55-13.73,1-2,2-4.14a70.59,70.59,0,0,0,5.8-25.95,47.6,47.6,0,0,0-39.71.4,83.65,83.65,0,0,0,4,22c.79,2.42,1.65,4.67,2.54,6.77Z" fill="#ffbd91"/><path d="M161.86,83.71a1.75,1.75,0,0,1-2.09,1.09,1.45,1.45,0,0,1-.72-1Z" fill="#22130c"/><path d="M173.66,83.64a8.55,8.55,0,0,1-8.46.78Z" fill="#22130c"/><path d="M155.59,84.55a8.7,8.7,0,0,1-3.48.67,8.85,8.85,0,0,1-5-1.69Z" fill="#22130c"/><path d="M152.86,79.83,165.4,77.5q-2.13-7.44-4.28-14.89l-9.92,1.84A21.84,21.84,0,0,1,152.35,67a20.74,20.74,0,0,1,1.27,6.09c0,.38,0,.77,0,1.13A20.47,20.47,0,0,1,152.86,79.83Z" fill="#ffbd91"/><path d="M153.64,74.23a.75.75,0,0,0,.21,0c2.13-.4,3.38-3.3,2.79-6.5a8.68,8.68,0,0,0-.39-1.42l-3.9.72a20.74,20.74,0,0,1,1.27,6.09C153.64,73.48,153.65,73.87,153.64,74.23Z" fill="#22130c"/><path d="M146,65.14c.4,3.2.62,4.81,1.6,5.88,2.55,2.8,9,.7,11.24-1.19a11.12,11.12,0,0,0,1.78-2,12.06,12.06,0,0,0,.92-1.84,20,20,0,0,0,.32-12.32,13.49,13.49,0,0,0-15-.76c-.14,1-.27,2.23-.37,3.56,0,.34,0,.67-.07,1,0,.12,0,.23,0,.34s0,.49,0,.75v.2c0,.85,0,1.36-.06,1.78,0,.71.08.84.06,1.31a15.49,15.49,0,0,1-.38,1.59A5.48,5.48,0,0,0,146,65.14Z" fill="#ffbd91"/><path d="M155.28,58.55a3.44,3.44,0,0,0-.77-.17,15.05,15.05,0,0,0-3.63.46,1.64,1.64,0,0,1-.28-.9,1.59,1.59,0,0,1,.21-.81,15.74,15.74,0,0,0,2.53,0,4.36,4.36,0,0,1,1.63.14,1.61,1.61,0,0,1,.6.28,1.85,1.85,0,0,1,.63,1.32A6.49,6.49,0,0,0,155.28,58.55Z" fill="#22130c"/><path d="M146.38,57.79c.64-.07,1.46-.15,2.43-.17a1.77,1.77,0,0,0,.05-.95,1.43,1.43,0,0,0-.38-.72,15.16,15.16,0,0,1-2,.5c0,.34,0,.67-.07,1C146.39,57.57,146.4,57.68,146.38,57.79Z" fill="#22130c"/><path d="M149.58,65a1.46,1.46,0,0,1-1.18.15,1.39,1.39,0,0,1-.67-.51Z" fill="#22130c"/><path d="M147.59,67.23c-.16.44.55,1.16,1.27,1.42.16.06,1.11.41,1.53-.11a1.15,1.15,0,0,0-.13-1.38,1.6,1.6,0,0,0-1.34-.38C148.65,66.79,147.74,66.8,147.59,67.23Z" fill="#fff"/><path d="M174.63,79.05q.38,8.55.74,17.11l2.45,4.74c.64,1.2,1.24,2.42,1.88,3.62,1.59,3.06,3.18,6.16,4.77,9.22l7.29-2.56c-1.12-4-2.23-7.43-3.2-10.31-.4-1.16-.76-2.22-1.1-3.18-5.25-14.68-8.24-17.85-11.37-18.5A5.78,5.78,0,0,0,174.63,79.05Z" fill="#ffbd91"/><path d="M177.82,100.9c.64,1.2,1.24,2.42,1.88,3.62,3-1.21,5.92-2.42,8.86-3.65-3.32-.12-6.62-.27-9.91-.4Z" fill="#22130c"/><path d="M175,103.18l13.6-2.3c-.1-1.34-1.7-18.88-12.43-22.65a12.61,12.61,0,0,0-4-.7l.69,8.15Z" fill="#e9c40f"/><path d="M145.69,79.81q-.36,8.55-.74,17.11l-2.45,4.74c-.63,1.2-1.24,2.42-1.87,3.62-1.6,3.07-3.19,6.16-4.78,9.22l-7.28-2.56c1.11-4,2.22-7.43,3.2-10.31.39-1.16.76-2.22,1.09-3.18,5.25-14.68,8.25-17.85,11.37-18.5A5.81,5.81,0,0,1,145.69,79.81Z" fill="#ffbd91"/><path d="M142.5,101.66c-.63,1.2-1.24,2.42-1.87,3.62-3-1.21-5.93-2.42-8.86-3.65,3.31-.12,6.62-.26,9.91-.4Z" fill="#22130c"/><path d="M145.36,103.94l-13.6-2.3c.11-1.34,1.7-18.88,12.43-22.65a12.62,12.62,0,0,1,4.06-.7l-.7,8.15Z" fill="#e9c40f"/><path d="M138,137.91c1.26,1.24,12,11.6,26.43,9.16a28.44,28.44,0,0,0,13.83-6.68q-.68-24.64-1.37-49.28,1.23-5.52,2.45-11a36.95,36.95,0,0,0-14.38-4.29c.4,3.4-1.82,6.35-4.51,6.86-3.14.6-6.77-2.13-6.88-6.19a26.48,26.48,0,0,0-10.68,3.11A24.63,24.63,0,0,0,140.6,81q1.59,4.78,3.2,9.56Z" fill="#e9c40f"/><path d="M155,61.3a10.4,10.4,0,0,0-2.57-.06,1.3,1.3,0,0,1-.36,0A2.34,2.34,0,0,1,151,61a.13.13,0,0,1-.05-.17.12.12,0,0,1,.17-.05,2.07,2.07,0,0,0,.95.25,2,2,0,0,0,.32,0,10.27,10.27,0,0,1,2.63,0,.12.12,0,0,1,.11.14A.13.13,0,0,1,155,61.3Z" fill="#22130c"/><path d="M152.57,61.78a.73.73,0,1,0,1.45,0,.73.73,0,1,0-1.45,0Z" fill="#22130c"/><path d="M148.71,61.16a10.49,10.49,0,0,0-2.58-.06,1.44,1.44,0,0,1-.36,0,2,2,0,0,1-.49-.06.13.13,0,0,1,.06-.25,1.59,1.59,0,0,0,.43.06,1,1,0,0,0,.32,0,10.9,10.9,0,0,1,2.63.06.12.12,0,0,1,.11.14A.13.13,0,0,1,148.71,61.16Z" fill="#22130c"/><path d="M146.28,61.64a.73.73,0,1,0,1.45,0,.73.73,0,1,0-1.45,0Z" fill="#22130c"/><path d="M175.62,221.7a.12.12,0,0,1-.12-.07,71.63,71.63,0,0,1-5.42-38.71.12.12,0,0,1,.14-.11.13.13,0,0,1,.1.15,71.5,71.5,0,0,0,5.41,38.57.12.12,0,0,1-.06.16Z" fill="#fff"/><path d="M170.17,180a.12.12,0,0,1-.12-.11l-5.79-32.84a.13.13,0,0,1,.1-.15.12.12,0,0,1,.14.1l5.79,32.85a.13.13,0,0,1-.1.15Z" fill="#fff"/><path d="M140.53,223.23a.12.12,0,0,1-.12-.1,68.76,68.76,0,0,1-.69-28,68.07,68.07,0,0,1,3.48-12.2.12.12,0,1,1,.23.09A67.5,67.5,0,0,0,140,195.13a68.5,68.5,0,0,0,.68,28,.13.13,0,0,1-.09.15Z" fill="#fff"/><path d="M143.16,182.1A.13.13,0,0,1,143,182a69.39,69.39,0,0,1,1.42-37.51.13.13,0,0,1,.16-.08.12.12,0,0,1,.08.16A69.14,69.14,0,0,0,143.28,182a.12.12,0,0,1-.09.15Z" fill="#fff"/><path d="M172.92,234.55h23.83a4.44,4.44,0,0,0-.22-2.07c-.34-.95-1.12-2-3.34-3a26.64,26.64,0,0,0-10.29-2.17c-.1,2.61-.68,3.29-1.16,3.46-1.13.39-2.31-1.87-4.43-1.86a4.24,4.24,0,0,0-2.86,1.38,3.28,3.28,0,0,0-1.58,1.62A3.35,3.35,0,0,0,172.92,234.55Z" fill="#f85f75"/><path d="M173.13,235.27h23.38a.84.84,0,0,0,.83-.84.83.83,0,0,0-.83-.83H173.13a.83.83,0,0,0-.83.83A.84.84,0,0,0,173.13,235.27Z" fill="#22130c"/><path d="M187.17,230.52a.54.54,0,0,0,.54-.54v-2.35a.54.54,0,1,0-1.07,0V230A.54.54,0,0,0,187.17,230.52Z" fill="#22130c"/><path d="M185.59,230.41a.54.54,0,0,0,.54-.54v-2.34a.54.54,0,0,0-.54-.54.54.54,0,0,0-.54.54v2.34A.54.54,0,0,0,185.59,230.41Z" fill="#22130c"/><path d="M188.61,230.62a.54.54,0,0,0,.54-.54v-2.34a.54.54,0,0,0-1.08,0v2.34A.54.54,0,0,0,188.61,230.62Z" fill="#22130c"/><path d="M134.42,234.34h15.39a15.11,15.11,0,0,0-3.46-6.17,7.53,7.53,0,0,0-4.82-.34,7.08,7.08,0,0,0-2.15,1,8.25,8.25,0,0,0-5,5.51Z" fill="#f85f75"/><rect x="133.89" y="233.6" width="16.38" height="1.67" rx="0.68" transform="translate(284.16 468.87) rotate(180)" fill="#22130c"/><path d="M140.7,229.35a.54.54,0,0,0,.58.5l2.33-.15a.54.54,0,1,0-.07-1.07l-2.33.15A.54.54,0,0,0,140.7,229.35Z" fill="#22130c"/><path d="M141,227.8a.55.55,0,0,0,.57.51l2.34-.16a.54.54,0,0,0,.51-.57.55.55,0,0,0-.58-.5l-2.34.15A.54.54,0,0,0,141,227.8Z" fill="#22130c"/><path d="M138.74,127.52l-5.4,1.36a27.56,27.56,0,0,0-2.5-3.73c-3.57-4.5-3.76-5.58-4-7-.19-1.2-.21-3.43,1.8-6.54l7.18,1.73a9.84,9.84,0,0,1,1.2,3c.84,3.8-1,6.24.57,9.5A7.66,7.66,0,0,0,138.74,127.52Z" fill="#ffbd91"/><path d="M180.67,127.69l5.4,1.33a32.94,32.94,0,0,1,2.62-4.15c3.73-5,4-6.2,4.22-7.72.23-1.31.31-3.75-1.63-7.09L184,112.15a11.8,11.8,0,0,0-1.29,3.27c-1,4.18.88,6.79-.84,10.41A9,9,0,0,1,180.67,127.69Z" fill="#ffbd91"/><path d="M179,130a.58.58,0,0,0,.14.46c.45.42,2-.29,4.55-2.15-.1,1.47.86,2.46,1.56,2.43s1.42-.94,1.41-2.21c1.36,1.8,2.85,2.59,3.57,2.18.12-.07.51-.35.57-1.39l1.77.07c.25.18,1.72,1.18,2.07.84s-1-2.48-1.11-2.6l-2.75-.82a7.88,7.88,0,0,0-4.52-3.13,8.36,8.36,0,0,0-7.26,2c-.47.07-3.42.57-4.29,2.73,0,.05-.52,1.33-.07,1.68s2.1-.72,3.44-1.83l2.18-.18Z" fill="#ffbd91"/><path d="M141.51,130a.62.62,0,0,1-.14.46c-.45.42-2-.29-4.56-2.15.1,1.47-.86,2.46-1.55,2.43s-1.43-.94-1.42-2.21c-1.35,1.8-2.84,2.59-3.56,2.18-.13-.07-.52-.35-.57-1.39l-1.77.07c-.26.18-1.73,1.18-2.08.84s1-2.48,1.11-2.6l2.76-.82a7.88,7.88,0,0,1,4.52-3.13,8.38,8.38,0,0,1,7.26,2c.46.07,3.42.57,4.28,2.73,0,.05.53,1.33.07,1.68s-2.1-.72-3.43-1.83l-2.18-.18Z" fill="#ffbd91"/><rect x="104.36" y="133.04" width="116.65" height="6.44" transform="translate(325.37 272.52) rotate(180)" fill="#22130c"/><rect x="114.54" y="130.44" width="99.97" height="2.6" transform="translate(329.05 263.48) rotate(180)" fill="#fff"/><path d="M209.86,133.17a.12.12,0,0,1-.12-.13v-2.6a.12.12,0,0,1,.12-.13.13.13,0,0,1,.13.13V133A.13.13,0,0,1,209.86,133.17Z" fill="#22130c"/><path d="M204.78,133.17a.12.12,0,0,1-.12-.13v-2.6a.12.12,0,0,1,.12-.13.13.13,0,0,1,.13.13V133A.13.13,0,0,1,204.78,133.17Z" fill="#22130c"/><path d="M200,133.17a.12.12,0,0,1-.12-.13v-2.6a.12.12,0,0,1,.12-.13.13.13,0,0,1,.13.13V133A.13.13,0,0,1,200,133.17Z" fill="#22130c"/><path d="M194.87,133.17a.12.12,0,0,1-.12-.13v-2.6a.12.12,0,0,1,.12-.13.13.13,0,0,1,.13.13V133A.13.13,0,0,1,194.87,133.17Z" fill="#22130c"/><path d="M189.66,133.17a.13.13,0,0,1-.13-.13v-2.6a.13.13,0,0,1,.13-.13.12.12,0,0,1,.12.13V133A.12.12,0,0,1,189.66,133.17Z" fill="#22130c"/><path d="M184.58,133.17a.12.12,0,0,1-.12-.13v-2.6a.12.12,0,0,1,.12-.13.13.13,0,0,1,.13.13V133A.13.13,0,0,1,184.58,133.17Z" fill="#22130c"/><path d="M179.75,133.17a.12.12,0,0,1-.12-.13v-2.6a.12.12,0,0,1,.12-.13.13.13,0,0,1,.13.13V133A.13.13,0,0,1,179.75,133.17Z" fill="#22130c"/><path d="M174.67,133.17a.12.12,0,0,1-.12-.13v-2.6a.12.12,0,0,1,.12-.13.13.13,0,0,1,.13.13V133A.13.13,0,0,1,174.67,133.17Z" fill="#22130c"/><path d="M168.78,133.17a.12.12,0,0,1-.12-.13v-2.6a.12.12,0,0,1,.12-.13.13.13,0,0,1,.13.13V133A.13.13,0,0,1,168.78,133.17Z" fill="#22130c"/><path d="M163.7,133.17a.12.12,0,0,1-.12-.13v-2.6a.12.12,0,0,1,.12-.13.13.13,0,0,1,.13.13V133A.13.13,0,0,1,163.7,133.17Z" fill="#22130c"/><path d="M158.87,133.17a.12.12,0,0,1-.12-.13v-2.6a.12.12,0,0,1,.12-.13.13.13,0,0,1,.13.13V133A.13.13,0,0,1,158.87,133.17Z" fill="#22130c"/><path d="M153.79,133.17a.13.13,0,0,1-.12-.13v-2.6a.13.13,0,0,1,.12-.13.13.13,0,0,1,.13.13V133A.13.13,0,0,1,153.79,133.17Z" fill="#22130c"/><path d="M148.58,133.17a.12.12,0,0,1-.12-.13v-2.6a.12.12,0,0,1,.12-.13.13.13,0,0,1,.13.13V133A.13.13,0,0,1,148.58,133.17Z" fill="#22130c"/><path d="M143.5,133.17a.12.12,0,0,1-.12-.13v-2.6a.12.12,0,0,1,.12-.13.13.13,0,0,1,.13.13V133A.13.13,0,0,1,143.5,133.17Z" fill="#22130c"/><path d="M138.67,133.17a.12.12,0,0,1-.12-.13v-2.6a.12.12,0,0,1,.12-.13.13.13,0,0,1,.13.13V133A.13.13,0,0,1,138.67,133.17Z" fill="#22130c"/><path d="M133.59,133.17a.12.12,0,0,1-.12-.13v-2.6a.12.12,0,0,1,.12-.13.13.13,0,0,1,.13.13V133A.13.13,0,0,1,133.59,133.17Z" fill="#22130c"/><path d="M128.46,133.17a.13.13,0,0,1-.13-.13v-2.6a.13.13,0,0,1,.13-.13.12.12,0,0,1,.12.13V133A.12.12,0,0,1,128.46,133.17Z" fill="#22130c"/><path d="M123.38,133.17a.13.13,0,0,1-.13-.13v-2.6a.13.13,0,0,1,.13-.13.12.12,0,0,1,.12.13V133A.12.12,0,0,1,123.38,133.17Z" fill="#22130c"/><path d="M118.55,133.17a.13.13,0,0,1-.13-.13v-2.6a.13.13,0,0,1,.13-.13.12.12,0,0,1,.12.13V133A.12.12,0,0,1,118.55,133.17Z" fill="#22130c"/><rect x="208.62" y="129.27" width="2.26" height="1.16" transform="translate(419.5 259.71) rotate(180)" fill="#22130c"/><rect x="203.54" y="129.27" width="2.26" height="1.16" transform="translate(409.34 259.71) rotate(180)" fill="#22130c"/><rect x="198.46" y="129.27" width="2.26" height="1.16" transform="translate(399.18 259.71) rotate(180)" fill="#22130c"/><rect x="193.38" y="129.27" width="2.26" height="1.16" transform="translate(389.02 259.71) rotate(180)" fill="#22130c"/><rect x="188.49" y="129.27" width="2.26" height="1.16" transform="translate(379.23 259.71) rotate(180)" fill="#22130c"/><rect x="183.41" y="129.27" width="2.26" height="1.16" transform="translate(369.07 259.71) rotate(180)" fill="#22130c"/><rect x="178.33" y="129.27" width="2.26" height="1.16" transform="translate(358.92 259.71) rotate(180)" fill="#22130c"/><rect x="173.25" y="129.27" width="2.26" height="1.16" transform="translate(348.76 259.71) rotate(180)" fill="#22130c"/><rect x="167.7" y="129.27" width="2.26" height="1.16" transform="translate(337.65 259.71) rotate(180)" fill="#22130c"/><rect x="162.62" y="129.27" width="2.26" height="1.16" transform="translate(327.49 259.71) rotate(180)" fill="#22130c"/><rect x="157.54" y="129.27" width="2.26" height="1.16" transform="translate(317.34 259.71) rotate(180)" fill="#22130c"/><rect x="152.46" y="129.27" width="2.26" height="1.16" transform="translate(307.18 259.71) rotate(180)" fill="#22130c"/><rect x="147.57" y="129.27" width="2.26" height="1.16" transform="translate(297.39 259.71) rotate(180)" fill="#22130c"/><rect x="142.48" y="129.27" width="2.26" height="1.16" transform="translate(287.23 259.71) rotate(180)" fill="#22130c"/><rect x="137.41" y="129.27" width="2.26" height="1.16" transform="translate(277.08 259.71) rotate(180)" fill="#22130c"/><rect x="132.33" y="129.27" width="2.26" height="1.16" transform="translate(266.91 259.71) rotate(180)" fill="#22130c"/><rect x="127.33" y="129.27" width="2.26" height="1.16" transform="translate(256.92 259.71) rotate(180)" fill="#22130c"/><rect x="122.25" y="129.27" width="2.26" height="1.16" transform="translate(246.76 259.71) rotate(180)" fill="#22130c"/><rect x="117.17" y="129.27" width="2.26" height="1.16" transform="translate(236.6 259.71) rotate(180)" fill="#22130c"/><polygon points="131.93 238.55 135.77 238.55 162.68 194.79 164.63 191.66 196.93 139.08 194.12 137.36 162.68 188.5 160.75 191.66 131.93 238.55" fill="#22130c"/><polygon points="128.45 139.08 160.75 191.66 162.68 194.79 189.58 238.55 193.45 238.55 164.63 191.66 162.68 188.5 131.24 137.36 128.45 139.08" fill="#22130c"/><path d="M187.53,238.55h8a2.48,2.48,0,0,0,0-5h-8a2.48,2.48,0,1,0,0,5Z" fill="#22130c"/><path d="M129.91,238.55h8a2.48,2.48,0,0,0,0-5h-8a2.48,2.48,0,1,0,0,5Z" fill="#22130c"/><path d="M176.71,102.87a.12.12,0,0,1-.12-.12l-.22-13.59a.13.13,0,0,1,.13-.13.12.12,0,0,1,.12.12l.22,13.6a.12.12,0,0,1-.13.12Z" fill="#22130c"/><path d="M142.32,102.62a.13.13,0,0,1-.13-.12l-.75-12.14a.12.12,0,0,1,.11-.13.14.14,0,0,1,.14.12l.75,12.13a.12.12,0,0,1-.11.14Z" fill="#22130c"/><rect x="105.95" y="222.06" width="1.45" height="21.91" rx="0.62" transform="translate(361.81 257.22) rotate(120.02)" fill="#22130c"/><rect x="87.32" y="222.06" width="1.45" height="21.91" rx="0.62" transform="translate(-69.67 425.83) rotate(-120.02)" fill="#22130c"/><path d="M97.35,237.66a.71.71,0,0,0,.73-.7V73.26a.72.72,0,0,0-1.44,0V237A.7.7,0,0,0,97.35,237.66Z" fill="#fff"/><rect x="83.48" y="75.47" width="47.69" height="1.79" rx="0.83" transform="translate(229.36 125.93) rotate(166.67)" fill="#fff"/><path d="M118.21,72l2.89-.85-.89-3-2.89.85a1.57,1.57,0,0,0,.89,3Z" fill="#22130c"/><rect x="118.21" y="66.27" width="14.61" height="3.89" transform="translate(265.2 98.14) rotate(163.57)" fill="#a554d0"/><path d="M130.41,66.82a3.43,3.43,0,1,0,2.32-4.26A3.42,3.42,0,0,0,130.41,66.82Z" fill="#22130c"/><path d="M131.36,69.23a.72.72,0,0,0,.48-.88l-1.09-3.69a.71.71,0,1,0-1.36.4l1.09,3.69A.7.7,0,0,0,131.36,69.23Z" fill="#f85f75"/><path d="M124,73.77l3.9-1-1.8-6.93-3.89,1.06C122.77,69.17,123.36,71.47,124,73.77Z" fill="#22130c"/><path d="M101,236.44a34.12,34.12,0,0,1-7.69-14.13c-3.16-12.39,2.22-23.9,7-34.05,4.6-9.82,8.57-18.3,4.49-25.71a8.14,8.14,0,0,0-4.31-3.92,17.19,17.19,0,0,1-6.34-5c-6.45-7.73-9.63-20.37-8.29-33C87,109.51,91.4,100.19,97.92,95.07a43.85,43.85,0,0,1,7.86-4.59c4.29-2.11,8-3.94,8.29-7.45.19-2.2-1-4.7-1.88-6.7s-1.61-3.49-.79-4.16a1.87,1.87,0,0,1,1.26-.24,6.69,6.69,0,0,0,2.53-.33,7.68,7.68,0,0,0,1.67-.78l.27.42a8.33,8.33,0,0,1-1.79.84,7,7,0,0,1-2.69.35c-.46,0-.75,0-.94.13-.51.42.19,1.94.93,3.56,1,2.06,2.13,4.62,1.93,6.95-.32,3.79-4.15,5.68-8.57,7.86a42.73,42.73,0,0,0-7.77,4.53c-6.42,5-10.76,14.24-11.93,25.23-1.31,12.48,1.82,25,8.18,32.61a16.59,16.59,0,0,0,6.18,4.88,8.68,8.68,0,0,1,4.53,4.13c4.2,7.63.18,16.22-4.48,26.16S90.65,210,93.77,222.19a33.69,33.69,0,0,0,7.57,13.92Z" fill="#fff"/><rect x="365.36" y="135.73" width="84" height="92" rx="3.67" fill="#22130c"/><path d="M443.88,221.58l2.48-3v-.38l-2.64,3.22L441,218l2.8-3.41,2.57,3.19v-.37l-2.42-3,2.06-2.51.36.44V212l-.2-.25.2-.24v-.37l-.35.42L444,209l2.38-2.91v-.37l-2.54,3.09-2.36-3,2.85-3.53,2.05,2.54v-.37l-1.89-2.36,1.89-2.34v-.38l-2.05,2.53-2.89-3.6,2-2.54,2.9,3.61V199l-2.75-3.42,2.75-3.42v-.43l-2-2.51,2-2.51v-.43l-2.4-3,2.4-3v-.43l-2-2.51,2-2.51v-.43L444.41,172l1.95-2.38v-.37l-2.1,2.56-2.52-3.14,2.78-3.43,1.82,2.27a3.44,3.44,0,0,0,0-.45l-1.53-1.9a3.51,3.51,0,0,0-.48-.22l.09.11-2.78,3.43-2.94-3.66.09-.12h-.49l.09.12-2,2.54-2-2.54.09-.12h-.49l.09.12-2.42,3-2.42-3,.09-.12h-.49l.09.12-2,2.54-2-2.54.1-.12h-.5l.1.12-2.77,3.45-2.77-3.45.1-.12h-.5l.1.12-2,2.54-2-2.54.1-.12h-.5l.1.12-2.85,3.55-2.85-3.55.1-.12h-.5l.1.12-2,2.54-2-2.54.09-.12h-.49l.09.12-2.77,3.45-2.76-3.45.09-.12h-.49l.09.12-2,2.54-2-2.54.1-.12h-.5l.1.12-2.42,3-2.43-3,.1-.12h-.5l.1.12-2,2.54-2-2.54.1-.12H384l.1.12-2.94,3.66-2.78-3.43.28-.35h-.31l-.12.16-.13-.16h-.3l.28.35-2.54,3.16-2.07-2.51.8-1h-.3l-.65.81-.66-.81h-.31l.82,1-1.91,2.38-2-2.43-.16.18,2,2.44-2,2.54-.67-.84v.38l.52.65-.52.65v.38l.67-.84,2,2.54-2.42,3-.29-.36v.37l.14.18-.14.17v.38l.29-.36,2.77,3.44-2,2.54-1-1.27v.38l.87,1.08-.87,1.08v.38l1-1.27,2,2.54-2.92,3.63-.14-.17v.72l.14-.17,2.43,3-2.45,3-.12-.16v.69l.13-.16,2.06,2.52-2,2.52-.15-.19v.77l.16-.2,2.79,3.41-2.73,3.4-.22-.28v.38l.07.09-.07.09v.37l.22-.28,2.07,2.51-2.29,2.85v.38l2.44-3,2.88,3.51-5.24,6.51a2,2,0,0,0,.1.26l5.29-6.58,2.06,2.51L371,224l.28,0,4.73-5.89,2.8,3.4-2,2.53h.31l1.87-2.34,1.92,2.34h.59l2.59-3.23,2.45,3-.2.24h.31l0-.05,0,.05H387l-.2-.24,2-2.53,2.06,2.51-.2.26h.3l.06-.07.06.07h.3l-.21-.26,2.27-2.83,2.5,3.09h.3l-2.65-3.28,2.86-3.55,2.83,3.52-2.68,3.31H397L399.5,221l2.2,2.73-.32.39h.31l.16-.2.15.2h.31l-.31-.38,2.06-2.52,2.33,2.9h.41l2.37-3,2,2.54-.33.41h.3l.18-.22.18.22h.3l-.33-.41,2-2.54,2.37,3h.41l2.32-2.9,2.06,2.52-.3.38h.3l.16-.2.16.2h.3l-.31-.39,2.2-2.73,2.52,3.12h.3l-2.67-3.31,2.83-3.52,2.85,3.55-2.64,3.28h.3L429.2,221l2.28,2.83-.22.26h.31l.06-.07.05.07H432l-.21-.26,2.06-2.51,2,2.53-.2.24H436l0-.05,0,.05h.3l-.19-.24,2.45-3,2.59,3.23h.59l1.91-2.34,1.35,1.68a1.33,1.33,0,0,0,.19-.14Zm-3-3.77-2-2.53,2.8-3.41,2,2.53Zm-9.53-24.21,2,2.54-2,2.54-2-2.54ZM429.12,196,427,193.28l2.06-2.51,2.13,2.64Zm2.34-2.54,2.85-3.54,2,2.54L433.5,196Zm.76-6.52,2.06-2.51,2.07,2.57-2,2.54Zm1.94,2.79-2.85,3.55-2.12-2.65,2.88-3.5Zm-5.12.72-2.41-3,2.86-3.53,2.42,3Zm-.16.18-2.06,2.51-2.39-3,2.05-2.53Zm-27.52,3.36,2.05,2.53-2.35,2.92L399,196.88Zm-2.52,2.75-2.79-3.41,2.38-3,2.78,3.44Zm2.67-2.94,2.89-3.6,2,2.54-2.88,3.59Zm5.08-.87,2.42,3-2.87,3.57-2.43-3Zm.15-.19,2-2.54,2.43,3-2,2.54Zm4.62.67,2,2.54-2,2.53-2-2.53Zm.15-.19,2.42-3,2,2.54-2.42,3Zm4.61-.29,2.88,3.59-2.42,3-2.88-3.57Zm.16-.19,2-2.54,2.88,3.6-2,2.53Zm5.07,1.25,2.37,2.94-2.06,2.51-2.35-2.92Zm.16-.19,2.77-3.44,2.39,3-2.8,3.41Zm2.77-3.82-2.89-3.6,2-2.54,2.9,3.61Zm-.15.19-2.78,3.44L418.47,190l2.77-3.45Zm-5.81-.34-2-2.54,2.76-3.45,2,2.54Zm-.16.19-2,2.53-2-2.53,2-2.54Zm-4.23-.19-2.42-3,2-2.54,2.42,3Zm-.15.19-2.42,3-2.42-3,2.42-3Zm-5-.19-2-2.54,2.43-3,2,2.54Zm-.15.19-2,2.53-2-2.53,2-2.54Zm-4.23-.19-2.77-3.45,2-2.54,2.77,3.45Zm-.15.19-2.89,3.59-2.77-3.44,2.89-3.6Zm-5.82,0-2-2.53,2.9-3.61,2,2.54Zm-.15.19-2.39,3-2.06-2.51,2.41-3Zm-16.68,2.77,2.42-3,2,2.54-2.42,3Zm1.89,2.72-2,2.54-2-2.54,2-2.54Zm2.72-3,2.85,3.54-2.42,3-2.85-3.55Zm.16-.19,2-2.54,2.84,3.54-2,2.54Zm5,1.19,2,2.54-2,2.54-2-2.54Zm.15-.19,2.12-2.64,2.06,2.51L393.6,196Zm2.12-3-2.88-3.51,2.43-3,2.85,3.53Zm-.15.18-2.12,2.65-2.85-3.55,2.09-2.6Zm-5.12-1.09-2-2.54,2.07-2.57,2.06,2.51Zm-.16.19-2,2.54-2-2.54,2-2.54Zm-4.23-.19-2.77-3.44,2-2.54,2.77,3.44Zm-.15.19-2.42,3-2.77-3.45,2.42-3Zm-5.34-.62-2-2.54,2.42-3,2,2.54Zm2.77,3.83-2,2.53L376.49,192l2-2.54Zm0,5.45-2.9,3.6-2-2.53,2.9-3.61Zm.15.19,2.85,3.54-2.89,3.6-2.86-3.54Zm.15-.19,2-2.54,2.85,3.55-2,2.53Zm5,1.19,2,2.54-2,2.54-2-2.54Zm.15-.18,2.42-3,2,2.54-2.42,3Zm4.62-.29,2.76,3.44-2.42,3L389,202.07Zm.15-.19,2-2.54,2.77,3.45-2,2.53Zm2.19-2.73,2.15-2.67,2.79,3.41-2.17,2.71Zm5.1.93,2.06,2.51-2.2,2.73-2-2.53Zm2.21,2.7,2.45,3-2.23,2.77-2.42-3Zm.15-.19,2.35-2.92,2.43,3-2.33,2.9Zm4.93.27,2.05,2.53-2.32,2.88-2.06-2.51Zm.15-.19,2.88-3.57,2,2.53-2.87,3.57Zm5.07-.85,2.87,3.57-2.87,3.55-2.87-3.55Zm.15-.19,2-2.53,2.87,3.57-2,2.53Zm5.07,1.23,2.32,2.9-2.06,2.51-2.31-2.88Zm.15-.19,2.43-3,2.34,2.92-2.44,3Zm4.93.11,2.2,2.73-2.43,3-2.22-2.77Zm.15-.19,2.06-2.51,2.18,2.71-2,2.53Zm2.21-2.7,2.8-3.41,2.15,2.67-2.77,3.45Zm5.1-.55,2,2.54-2.77,3.44-2-2.53Zm2.19,2.73,2.42,3L431,205.52l-2.42-3Zm.15-.19,2-2.54,2.42,3-2,2.53Zm4.62.66,2,2.54-2,2.54-2-2.54Zm-2.43-3.39,2.85-3.54,2.42,3-2.84,3.55Zm.81-6.46,2-2.54,2,2.54-2,2.54Zm2.19-2.73,2.77-3.44,2,2.54-2.77,3.44Zm.73-6.36,2.06-2.51,2,2.51-2,2.54Zm1.89,2.73-2.77,3.45-2.07-2.58,2.8-3.41Zm-5,.68-2.44-3,2.77-3.43,2.47,3.06Zm-.15.19-2.06,2.51-2.43-3,2-2.53Zm-4.64-.7-2.91-3.62,2-2.54,2.91,3.63Zm-.15.19-2.86,3.54-2.9-3.62,2.85-3.54Zm-5.91-.26-2-2.54,2.85-3.55,2,2.54Zm-.15.18-2,2.54-2-2.54,2-2.53Zm-4.24-.18-2.42-3,2-2.54,2.42,3Zm-.15.18-2.77,3.45-2.42-3,2.77-3.45Zm-5.34.25-2-2.54,2.77-3.45,2,2.54Zm-.15.19-2,2.53-2-2.53,2-2.54Zm-4.23-.19-2.77-3.45,2-2.54,2.77,3.45ZM409,184l-2.42,3-2.77-3.45,2.43-3Zm-5.34-.62-2-2.54,2.42-3,2,2.54Zm-.15.18-2,2.54-2-2.54,2-2.53Zm-4.23-.18-2.85-3.55,2-2.54,2.85,3.55Zm-.15.18-2.9,3.62-2.86-3.54,2.91-3.62Zm-5.91-.11L391.18,181l2.92-3.63,2,2.54Zm-.15.19-2.43,3-2.06-2.51,2.44-3Zm-4.64.32-2.8-3.41,2.46-3.06,2.78,3.43Zm-.16.19-2.07,2.58-2.76-3.45,2-2.54Zm-5-1.06-2-2.54,2-2.51,2.06,2.51Zm-.15.19-2,2.54-2-2.54,2-2.54Zm-4.23-.19-2.42-3,2-2.54,2.42,3Zm-.15.19-2.42,3-2.43-3,2.43-3Zm-.38,5.93-2,2.54-2-2.54,2-2.54Zm.73,6.36-2.91,3.61-2.77-3.43,2.91-3.62Zm-2.91,4,2.05,2.53-2.39,3-2.06-2.51Zm2.2,2.72,2.86,3.53-2.37,3L376,205.29Zm3,3.72,2,2.53-2.35,2.93L379.05,209Zm.15-.19,2.89-3.59,2,2.54-2.88,3.59Zm5.08-.86,2.77,3.44L386.53,212l-2.77-3.44Zm.15-.19,2-2.54,2.77,3.45-2,2.53Zm5,1.1,2,2.53-2,2.54-2-2.54Zm.15-.19,2.43-3,2,2.54-2.43,3Zm2.58-3.21,2-2.54,2,2.54-2,2.54Zm4.23.19,2.42,3-2,2.53-2.42-3Zm2.57,3.21,2,2.53-2,2.54-2-2.54Zm.16-.19,2.22-2.77,2.06,2.51-2.24,2.79Zm4.44-.07,2.88,3.51L406.47,212l-2.84-3.55Zm.15-.19,2.31-2.88,2.87,3.55-2.3,2.84Zm5.33.86,2.29,2.84-2.29,2.8-2.3-2.8Zm.15-.19,2.87-3.55,2.31,2.88L413.81,209Zm5.33-.48,2.25,2.79L416.24,212,414,209.15Zm.15-.19,2.07-2.51,2.22,2.77-2,2.53Zm4.44.45,2,2.53-2,2.54-2-2.54Zm.15-.19,2.43-3,2,2.54-2.43,3Zm2.58-3.21,2-2.54,2,2.54-2,2.54Zm4.23.19,2.42,3-2,2.53-2.42-3ZM431,205.9l2,2.53L431,211l-2-2.54Zm.16-.19,2.76-3.45,2,2.54-2.76,3.44Zm5-.72,2.88,3.58L436.18,212l-2.87-3.58Zm.15-.19,2-2.54,2.88,3.59-2,2.54Zm0-5.45,2.85-3.55,2,2.54-2.85,3.54Zm.42-6.94,2-2.54,2.43,3-2,2.53Zm2.19-2.73,2.77-3.44,2.43,3-2.77,3.45Zm.73-6.36,2-2.54,2,2.54-2,2.54Zm0-5.42,2.44-3,2,2.48-2.43,3Zm-.15-.19L437,174.62l2.43-3,2.5,3.11Zm-.16.18-2.06,2.52-2.46-3.07,2-2.53Zm-4.68-.74-2.92-3.64,2-2.54,2.93,3.65Zm-.15.19-2.77,3.43-2.92-3.63,2.77-3.44Zm-5.84-.38-2-2.54,2.77-3.45,2,2.54Zm-.15.18-2,2.54-2-2.54,2-2.53Zm-4.23-.18-2.43-3,2-2.54,2.43,3Zm-.16.18-2.84,3.55-2.43-3,2.85-3.54Zm-5.42.35-2-2.54,2.85-3.55,2,2.54Zm-.15.18-2,2.54-2-2.54,2-2.53Zm-4.23-.18L411.51,174l2-2.54,2.77,3.45Zm-.15.18-2.77,3.45-2.77-3.45,2.77-3.44Zm-5.69-.18-2-2.54,2.77-3.45,2,2.54Zm-.15.18-2,2.54-2-2.54,2-2.53Zm-4.24-.18-2.84-3.55,2-2.54,2.84,3.55Zm-.15.18-2.42,3-2.85-3.55,2.42-3Zm-5.42-.71-2-2.54,2.42-3,2,2.54Zm-.15.18-2,2.54-2-2.54,2-2.53ZM394.1,177l-2.77-3.45,2-2.54,2.77,3.45Zm-.15.18L391,180.77l-2.78-3.43,2.93-3.64Zm-5.85,0-2-2.53L389,171l2,2.54Zm-.15.19-2.47,3.07-2.06-2.52,2.49-3.08Zm-4.68.37-2.45-3,2.5-3.11,2.43,3Zm-.15.19-2,2.5-2.42-3,2-2.48Zm-4.59-.7-2-2.54,2-2.45,2.06,2.51Zm-.15.19-2,2.54-2-2.54,2-2.54Zm-4.23-.19-2.77-3.44,2-2.54,2.76,3.44Zm2,2.92-2.42,3-2-2.54,2.43-3Zm0,6.4-2,2.54-2.43-3,2-2.54Zm0,5.46-2.9,3.62-2-2.53,2.92-3.63Zm-2.9,4,2.77,3.43-2.4,3-2.8-3.41Zm.37,6.8,2.06,2.51-2,2.53-2.06-2.51Zm2.21,2.7,2.88,3.51-2,2.52-2.88-3.5Zm3,3.69,2.06,2.52-2,2.52-2.06-2.51Zm2.22,2.7,2.8,3.41-2,2.53-2.79-3.41Zm.15-.19,2.35-2.92,2.77,3.44-2.32,2.89Zm5.28.71,2,2.53-2.31,2.87-2.06-2.51Zm.15-.19,2.87-3.58,2,2.54-2.87,3.57Zm5.06-.85,2.42,3-2.86,3.56-2.43-3Zm.15-.19,2-2.54,2.43,3-2,2.54Zm2.19-2.73,2.43-3,2.42,3-2.42,3Zm5,.19,2,2.54-2.42,3-2-2.54Zm2.19,2.73,2.84,3.54-2.42,3-2.84-3.53Zm.16-.19,2-2.54,2.84,3.55-2,2.53Zm5,1.19,2.25,2.81-2.06,2.51-2.23-2.78Zm.16-.18,2.28-2.83,2.29,2.79L408.88,215Zm4.73.15,2.33,2.84-2.33,2.89L409,215.16Zm.15-.19,2.29-2.79,2.29,2.83-2.25,2.8Zm4.73.22,2.05,2.54-2.24,2.78L414,215.16Zm.15-.18,2.85-3.55,2,2.54-2.84,3.54Zm5-.82,2.43,3L421,217.89l-2.43-3Zm.15-.19,2-2.54,2.43,3-2,2.54Zm2.2-2.73,2.42-3,2.42,3-2.42,3Zm5,.19,2,2.54-2.42,3-2-2.54Zm2.19,2.73,2.87,3.57-2.43,3-2.86-3.56Zm.16-.19,2-2.54L436,212.2l-2,2.53Zm5.06,1.23,2.33,2.89-2.07,2.51-2.3-2.87Zm.15-.19,2.78-3.44,2.35,2.92-2.8,3.41Zm9.52-.5-2.06,2.51-2-2.52,2.06-2.52ZM443.67,209l-2.06,2.52-2.35-2.93,2.05-2.53Zm.49-6.85-2.85,3.54-2.89-3.6,2.85-3.54Zm-2.89-4-2-2.54,2-2.54,2,2.54Zm5-6.17-2.77,3.44-2-2.53,2.77-3.45Zm0-5.46-2,2.54-2.42-3,2-2.54Zm0-6.4-2.43,3-2-2.54,2.42-3Zm0-5.46-2,2.54-2-2.48,2.06-2.51ZM444.11,172l-2.06,2.52-2.51-3.12,2-2.53Zm-5.61-7,2.94,3.66-2.05,2.53-2.93-3.65Zm.74,6.38-2.43,3-2.93-3.65,2.42-3ZM434.11,165l2,2.54-2.42,3-2-2.53Zm-.53,5.74-2,2.54-2-2.54,2-2.53ZM429,165l2.43,3-2,2.53-2.43-3Zm.24,5.74-2.77,3.45-2.43-3,2.77-3.44ZM424.58,165l2,2.54L423.85,171l-2-2.53Zm-.88,6.17-2,2.54-2-2.54,2-2.53Zm-5-6.17,2.77,3.45-2,2.53-2.77-3.44Zm.58,6.17-2.85,3.55-2.77-3.45,2.85-3.54Zm-5-6.17,2,2.54-2.85,3.54-2-2.53Zm-1,6.27-2,2.54-2-2.54,2-2.54Zm-5-6.27,2.85,3.55-2,2.53-2.85-3.54Zm.65,6.27-2.76,3.45-2.85-3.55,2.77-3.44ZM404,165l2,2.54L403.25,171l-2-2.53Zm-.89,6.17-2,2.54-2-2.54,2-2.53Zm-5-6.17,2.77,3.45-2,2.53-2.77-3.44Zm.58,6.17-2.42,3-2.77-3.45,2.42-3Zm-5-6.17,2,2.54-2.42,3-2-2.53Zm-.53,5.74-2,2.54-2-2.54,2-2.53ZM388.6,165l2.43,3-2,2.53-2.43-3Zm.23,5.74-2.93,3.65-2.42-3,2.93-3.65ZM384.22,165l2,2.54-2.94,3.65-2-2.53Zm-3.09,3.85,2,2.53-2.5,3.12L378.61,172Zm-2.93-3.62L381,168.7l-2.51,3.14-2.8-3.41Zm-2.69,3.35L378.3,172l-2,2.44L373.57,171Zm-2.22-2.7,2.06,2.51-1.93,2.41-2-2.54Zm-4.1,5.11,2-2.54,2,2.54-2,2.54ZM368.8,177l2.43-3,2.76,3.45-2.42,3Zm.73,6.36,2-2.54,2,2.54-2,2.54Zm-.88,6.55,2.92-3.63,2.42,3-2.91,3.63Zm0,6.42,2.44-3,2,2.53-2.42,3Zm0,5.42,2-2.53,2.8,3.41-2,2.53Zm2.13,9.7-2.06-2.52,2.73-3.39,2.06,2.51Zm3,3.69L371,211.59l2.73-3.39,2.88,3.5Zm2.21,2.7L374,215.29l2.73-3.4,2.06,2.51Zm2.95,3.6L376.2,218l2.73-3.4,2.79,3.41Zm2.22,2.69-2.06-2.51,2.73-3.39,2.06,2.51Zm2.88-3.58L382,218l2-2.53,2.06,2.51Zm2.6,3.17-2.45-3,2-2.53,2.45,3Zm2.18-2.72-2.45-3,2.31-2.87,2.43,3Zm2.22,2.7L389,221.15l2.28-2.85,2.05,2.53Zm2.42-3-2-2.53,2.86-3.56,2,2.54Zm1-6.28,2-2.53,2,2.53-2,2.54Zm2.19,2.73,2-2.54,2.83,3.53-2,2.53Zm5.18,6.45-2.2-2.74,2-2.53,2.22,2.76Zm0-5.46,2.43-3,2.23,2.78-2.45,3Zm4.74,5.91-2.37-3,2.44-3L409,221Zm.23-6.13,2.06-2.52,2.33,2.9-2,2.54Zm4.54,5.65-2-2.54,2-2.54,2,2.54Zm.15-5.27,2.33-2.9,2.06,2.52-2.35,2.92Zm4.61,5.75-2.42-3,2.35-2.93,2.45,3Zm2.53-3.15-2.44-3,2.23-2.78,2.43,3Zm2.22,2.7L418.81,221l2.21-2.76,2.05,2.53Zm2.35-2.93-2.05-2.53,2.84-3.53,2,2.54Zm.94-6.25,2-2.53,2,2.53-2,2.54Zm2.19,2.73,2-2.54,2.86,3.56-2.05,2.53Zm5.28,6.57-2.27-2.83,2-2.53,2.29,2.85Zm-.08-5.55,2.43-3,2.31,2.87-2.45,3Zm4.48,5.57-2-2.53,2.44-3,2,2.53Zm.57-5.7,2.06-2.51,2,2.53-2.06,2.51Zm4.91,6.11-2.73-3.39,2.06-2.51,2.73,3.39Z" fill="#fff"/><path d="M446.11,223.93h-77.5v-59h77.5Zm-77-.5h76.5v-58h-76.5Z" fill="#fff"/><circle cx="374.61" cy="142.73" r="2" fill="#fff"/><circle cx="381.61" cy="142.73" r="2" fill="#fff"/><circle cx="388.58" cy="142.73" r="2" fill="#fff"/><rect x="424.43" y="156.73" width="18.55" height="4.13" fill="#fff"/><path d="M422.61,140.29a16.72,16.72,0,0,0-6-12.24,12.82,12.82,0,0,0-9.94-3.08c-5.43.83-10.11,6.14-11.12,12.62l-3-.46c1.23-7.86,6.83-14.08,13.62-15.13a15.81,15.81,0,0,1,12.31,3.74,19.67,19.67,0,0,1,7.05,14.43Z" fill="#22130c"/><rect x="338.71" y="146.36" width="4.15" height="2.25" transform="translate(-4.47 284.17) rotate(-45)" fill="#22130c"/><path d="M185.9,243.87c-8.4,0-15.27-.2-17.21-.26-41.54-1.32-70.88-3.79-87.19-7.35-12.8-2.78-15.1-5.7-15.66-7.93-1.37-5.41,2.46-14.47,8.72-17,3.06-1.2,6.79-.85,10.8,1a.38.38,0,1,1-.32.68c-2.66-1.24-6.59-2.42-10.2-1-5.94,2.35-9.58,10.94-8.28,16.06.52,2,2.7,4.69,15.1,7.39,16.27,3.55,45.56,6,87.05,7.33,23,.72,57.34.14,57.87-4.42.15-1.26-3.83-2.95-7.68-4.59-6.38-2.72-14.32-6.1-14.32-11.12,0-2.83,2.47-5.19,4.46-7.09,1.16-1.1,2.35-2.24,2.08-2.72s-2-.07-3.57.34c-3.08.78-7.3,1.85-10.55-.21-4-2.52-5.54-8.81-3.39-13.47a12.26,12.26,0,0,1,8.55-6.52c2.9-.62,5.55-.12,7.29,1.39,3.52,3.06,2.28,9.16,2.12,9.85a.37.37,0,0,1-.44.28.37.37,0,0,1-.29-.45c.06-.25,1.36-6.3-1.88-9.11a7.63,7.63,0,0,0-6.64-1.23,11.53,11.53,0,0,0-8,6.1c-2,4.27-.49,10.24,3.11,12.53,3,1.89,7,.86,10,.12,2.24-.57,3.86-1,4.42,0s-.61,2.1-2.22,3.64c-1.89,1.79-4.24,4-4.23,6.54,0,4.53,7.69,7.8,13.87,10.43,4.84,2.06,8.33,3.55,8.12,5.37C226.8,243,203.14,243.87,185.9,243.87Z" fill="#22130c"/><path d="M149.05,61.53a2.67,2.67,0,1,1-2.67-2.67A2.67,2.67,0,0,1,149.05,61.53Z" fill="#22130c"/><path d="M155.69,61.64A2.67,2.67,0,1,1,153,59,2.68,2.68,0,0,1,155.69,61.64Z" fill="#22130c"/><rect x="148.48" y="61.03" width="2.84" height="1" fill="#22130c"/><rect x="154.54" y="59.12" width="8.43" height="1" transform="translate(-10.82 61.02) rotate(-21.06)" fill="#22130c"/><path d="M162.69,51c3.52,4.75,1.27,11.8.09,11.92-.77.08-.76-2.85-3.5-5.25-1.48-1.3-2.71-1.52-6.08-2.58-6.26-2-9.49-3-9.49-4.09,0-2.25,4.25-4.08,9.49-4.08C154.47,46.9,159.7,47,162.69,51Z" fill="#a554d0"/><polygon points="64.59 242.91 73.42 242.91 63.64 224.5 54.82 224.5 64.59 242.91" fill="#22130c"/><path d="M45.23,227.91a9.69,9.69,0,0,0,.23,2.17l2.76,5.2,3.53,6.64h8.83l-1-1.92L50.8,223.51H46.22A10.3,10.3,0,0,0,45.23,227.91Z" fill="#22130c"/><path d="M45.23,227.91a9.69,9.69,0,0,0,.23,2.17,11.11,11.11,0,0,0,2.76,5.2A15.52,15.52,0,0,0,59.56,240h.14c3.11.11,7.55-1,13.34-6.13l-17.19-19-9.63,8.6a10.39,10.39,0,0,0-.9,3A9.08,9.08,0,0,0,45.23,227.91Z" fill="#22130c"/><path d="M57.7,240.28a11.52,11.52,0,0,1-4-.71,11.92,11.92,0,0,1-5.57-4.22.12.12,0,1,1,.2-.14,11.74,11.74,0,0,0,5.45,4.13,11.55,11.55,0,0,0,5.77.54.12.12,0,0,1,.14.11.13.13,0,0,1-.1.14A12.56,12.56,0,0,1,57.7,240.28Z" fill="#fff"/><path d="M69.68,236.37a.12.12,0,0,1-.11-.07l-4.47-8.78a.12.12,0,1,1,.22-.11l4.47,8.78a.13.13,0,0,1-.05.17Z" fill="#fff"/><path d="M62.89,239.82a.13.13,0,0,1-.12-.07l-5.4-10.61c-.3-1.81.15-3.39,1.17-4.15a3.5,3.5,0,0,1,2.79-.51,6.12,6.12,0,0,1,4,2.92.13.13,0,0,1,0,.17.13.13,0,0,1-.18,0,5.86,5.86,0,0,0-3.82-2.8,3.27,3.27,0,0,0-2.59.46,4.06,4.06,0,0,0-1.09,3.86L63,239.64a.13.13,0,0,1-.06.17Z" fill="#fff"/><path d="M62.28,231.08a1.44,1.44,0,1,1,1.44-1.44A1.45,1.45,0,0,1,62.28,231.08Zm0-2.63a1.19,1.19,0,1,0,1.19,1.19A1.19,1.19,0,0,0,62.28,228.45Z" fill="#fff"/><polygon points="456.91 244.37 448.08 244.37 457.86 225.95 466.69 225.95 456.91 244.37" fill="#22130c"/><path d="M476.27,229.37a9.81,9.81,0,0,1-.23,2.17l-2.76,5.19-3.53,6.65h-8.83l1-1.92L470.7,225h4.58A10.35,10.35,0,0,1,476.27,229.37Z" fill="#22130c"/><path d="M476.27,229.37a9.81,9.81,0,0,1-.23,2.17,11.12,11.12,0,0,1-2.76,5.19,15.56,15.56,0,0,1-11.34,4.73h-.14c-3.11.11-7.55-1-13.34-6.13l17.19-19,9.63,8.6a10.39,10.39,0,0,1,.9,3A9.2,9.2,0,0,1,476.27,229.37Z" fill="#22130c"/><path d="M463.8,241.73a12.56,12.56,0,0,1-1.88-.15.12.12,0,0,1-.1-.14.13.13,0,0,1,.14-.11,11.55,11.55,0,0,0,5.77-.54,11.74,11.74,0,0,0,5.45-4.13.13.13,0,0,1,.18,0,.14.14,0,0,1,0,.18,12,12,0,0,1-5.56,4.22A11.82,11.82,0,0,1,463.8,241.73Z" fill="#fff"/><path d="M451.82,237.82h-.06a.13.13,0,0,1-.05-.17l4.47-8.78a.12.12,0,0,1,.22.11l-4.47,8.79A.11.11,0,0,1,451.82,237.82Z" fill="#fff"/><path d="M458.62,241.27h-.06a.13.13,0,0,1-.06-.17l5.4-10.59a4.07,4.07,0,0,0-1.09-3.86,3.31,3.31,0,0,0-2.59-.46,5.9,5.9,0,0,0-3.82,2.8.13.13,0,0,1-.18,0,.14.14,0,0,1,0-.17,6.18,6.18,0,0,1,4-2.92,3.54,3.54,0,0,1,2.79.51,4.24,4.24,0,0,1,1.18,4.12s-5.41,10.65-5.41,10.65A.14.14,0,0,1,458.62,241.27Z" fill="#fff"/><path d="M459.22,232.53a1.44,1.44,0,1,1,1.44-1.44A1.45,1.45,0,0,1,459.22,232.53Zm0-2.63a1.19,1.19,0,1,0,1.19,1.19A1.19,1.19,0,0,0,459.22,229.9Z" fill="#fff"/><path d="M320.79,124.47c-1.48,1.65-3,3.29-4.43,4.94a9,9,0,0,1-3.08-2.75s-3.48-5.12,1.05-18.46c.07-.2.4-1.14.72-2.46,0,0,.15-.58.27-1.19.52-2.55.9-12.29,2.62-16.59,1-2.47,3.43-5.66,10.14-8.12.05,1.14.11,2.29.17,3.44L329.54,105l-4.17,15.16Z" fill="#ffbd91"/><path d="M383.51,83.4q2.5,1.68,5,3.37c-1.67,4-2.84,7.38-3.61,9.74-2.86,8.81-3.25,13.31-7.11,17.42a16.91,16.91,0,0,1-4.2,3.26,8.44,8.44,0,0,1-4.84-.48,8.58,8.58,0,0,1-3.8-3.09,36.27,36.27,0,0,1,3.55-8.08C373,98,378.2,95.9,381.89,87.8A32.25,32.25,0,0,0,383.51,83.4Z" fill="#ffbd91"/><path d="M363.79,113.19l8.39-1.94a50,50,0,0,0-3.12-15.46,34.81,34.81,0,0,1-1.34-3.68c-1.8-6.28.11-7.74-1.58-11.55,0,0-2.33-5-7.4-6.67a7.42,7.42,0,0,0-1.19-.28l-.42,0q-.63,9.53-1.27,19Q359.84,102.9,363.79,113.19Z" fill="#ffbd91"/><path d="M394.42,238.45l-23.12.06a5.75,5.75,0,0,1,.13-3.55,5.64,5.64,0,0,1,.55-1.06,13.74,13.74,0,0,0,1.72-5.53l4.19-.48c5.29,7.12,8.29,8.55,10.06,8.44,1.26-.07,2.46.62,3.71.63.81,0,1.8-.07,2.37.58A1.57,1.57,0,0,1,394.42,238.45Z" fill="#ffbd91"/><path d="M360.09,125.39c2.2,10.9-3.36,20.32-9.7,22-7.18,1.84-18.06-5.61-19.18-18.79l-1-14.79c-.55-.81-1.09-1.65-1.62-2.51,0,0-.51-.84-1-1.7-.9-1.55-4.23-9.56-8.08-20.79a22.11,22.11,0,0,1,6.5-8.45c1.5-1.17,3.7-2.54,13-4.66,11.57-2.64,18-4,20.71-.75a5.89,5.89,0,0,1,1.22,3.28c-.27,12.29-1.14,21.31-1.71,24s-1.21,5.2-1.93,7.55Z" fill="#ffbd91"/><path d="M347.34,82.28l-16.1-1q4.33-9.26,8.64-18.52c1.24,1.51,2.47,3,3.71,4.55.76,1,1.55,1.9,2.32,2.86.37,3.21.76,6.4,1.13,9.61Z" fill="#ffbd91"/><path d="M338.46,83.63a1.88,1.88,0,0,0,2.36.93,1.59,1.59,0,0,0,.66-1.16Z" fill="#22130c"/><path d="M325.79,84.93A9.38,9.38,0,0,0,329.46,86a9.53,9.53,0,0,0,5.5-1.25Z" fill="#22130c"/><path d="M345.27,83.79a9.07,9.07,0,0,0,3.82.31,9.38,9.38,0,0,0,5.11-2.39Z" fill="#22130c"/><path d="M370.23,181.47c-.32,3.46-1,10.11-3.55,10.59-3.05.59-7-8-7.56-9.35a136.53,136.53,0,0,1-12.79-57l17.15,12.1C370.78,158.8,371,173.05,370.23,181.47Z" fill="#ffbd91"/><path d="M379.37,231.94l-5.54,1.73c-.41-1.38-1.09-3.52-2-6.09-4.9-13.26-9.29-17.16-11.3-25.23a35.14,35.14,0,0,1,.11-16.61l9.52-4.82c.59,5.82,1.36,11.88,2.35,18.15A332.6,332.6,0,0,0,379.37,231.94Z" fill="#ffbd91"/><path d="M364.27,138.9c2,7.29-1.27,14.53-7.29,16.18s-12.51-2.92-14.51-10.2,1.27-14.53,7.29-16.18S362.27,131.62,364.27,138.9Z" fill="#ffbd91"/><path d="M300.31,238.45l23.13.06a5.82,5.82,0,0,0-.13-3.55,5.64,5.64,0,0,0-.55-1.06,13.74,13.74,0,0,1-1.72-5.53l-4.19-.48c-5.3,7.12-8.29,8.55-10.07,8.44-1.25-.07-2.45.62-3.71.63-.8,0-1.79-.07-2.37.58A1.71,1.71,0,0,0,300.31,238.45Z" fill="#ffbd91"/><path d="M324.5,181.47c.33,3.46,1,10.11,3.55,10.59,3.05.59,7-8,7.57-9.35a136.53,136.53,0,0,0,12.79-57l-17.16,12.1C324,158.8,323.71,173.05,324.5,181.47Z" fill="#ffbd91"/><path d="M315.37,231.94l5.54,1.73c.41-1.38,1.08-3.52,2-6.09,4.89-13.26,9.29-17.16,11.3-25.23a35.14,35.14,0,0,0-.11-16.61l-9.53-4.82c-.59,5.82-1.35,11.88-2.34,18.15A332.6,332.6,0,0,1,315.37,231.94Z" fill="#ffbd91"/><ellipse cx="340.21" cy="142.66" rx="13.67" ry="11.3" transform="translate(112.69 433.06) rotate(-74.67)" fill="#ffbd91"/><path d="M343.59,67.27a3.48,3.48,0,0,0-2.67,1.16c-2.32,3,2.79,12.1,6,11.75a.37.37,0,0,0,.17-.05Z" fill="#22130c"/><path d="M347.86,149.88,332,133c-.59.94-1.53,2.47-2.57,4.45-5.9,11.38-6.27,21.91-6.52,26.5-.64,12.22-3,32.65-6.32,60,2.79.56,5.61,1.16,8.42,1.75a66.07,66.07,0,0,0,10.4-38.7Q341.64,168.43,347.86,149.88Zm-24.63,49.6c-.74,0-1.35-.18-1.35-.42s.61-.4,1.35-.4,1.34.17,1.34.4S324,199.48,323.23,199.48Zm1.34-3.34c-1.48,0-2.69-.42-2.69-.91s1.21-.89,2.69-.89,2.71.39,2.71.89S326.07,196.14,324.57,196.14Zm3.51-7.36c0,.84-1.09,1.51-2.43,1.51s-2.42-.67-2.42-1.46c0-.59.57-1.09,1.39-1.31a6.55,6.55,0,0,1-1.31-1.83.34.34,0,0,1-.08-.14c-.39-.67-1.16-.6-1.4-.94s.24-1.53,1-2.18c1.49-1.16,3.73-.44,4.75-.15s4.34,1.34,4.34,3.27C332,187.25,330.25,188.63,328.08,188.78Z" fill="#3c3cc5"/><path d="M371.4,184.33c-1.21,1.78-1.93,2.7-3.07,2.87-1.9.32-4-1.31-3.95-2.27.05-.45.52-.69.45-1.24s-.67-.69-.62-1,1.06-.47,2.27-1.09,1.06-1,1.85-1.38a4.75,4.75,0,0,1,3-.42,114.25,114.25,0,0,0-10.77-50.36q-6.89,10.51-13.83,21.09,6.78,18.41,13.56,36.8a44.59,44.59,0,0,0-.89,8.67c-.07,15.95,8.52,27.86,12.94,33.12,2.25-.72,4.47-1.43,6.72-2.13Q375.2,205.63,371.4,184.33Zm.84,13.24c0,.42-.77.74-1.71.74s-1.7-.32-1.7-.74.76-.71,1.7-.71S372.24,197.18,372.24,197.57Zm-8-6c0-.81,1.26-1.45,2.82-1.45s2.81.64,2.81,1.45S368.65,193,367.1,193,364.28,192.34,364.28,191.52Zm6.65,12c-1.16,0-2.1-.34-2.1-.74s.94-.74,2.1-.74,2.07.35,2.07.74S372.06,203.57,370.93,203.57Z" fill="#3c3cc5"/><path d="M353.93,154.09H336.65l-9.22-12.3q2-5.85,4-11.69a33.91,33.91,0,0,0,29.11-1.62l4.44,11.7Z" fill="#22130c"/><path d="M367.82,149.73c-1.33,3.14-4.23,8.41-9.87,11.15-9.59,4.67-23.59.35-33-11.79q1.08-16.41,2.15-32.81a3.42,3.42,0,0,0,1.95-.16c6.38-2.68,1.34-28.06-.66-37.29l4.68-2.18c4.92,10.42,11.74,15.88,15,14.57,3.05-1.21,4.11-8.67,2.26-17.55a9.68,9.68,0,0,1,3.49-.92,9.3,9.3,0,0,1,2.57.19Q362.14,111.33,367.82,149.73Z" fill="#a554d0"/><path d="M360.64,59.79c-.57,1.31-1.29,2.86-2.15,4.62-.2.34-.37.69-.57,1.06l-.1.22c-.05.07-.1.17-.15.25-.34.66-.59,1.11-.81,1.46a.36.36,0,0,1-.08.09,9.32,9.32,0,0,0-.69,1.14,16.11,16.11,0,0,0-.57,1.75,6.37,6.37,0,0,1-1,1.63,19.15,19.15,0,0,1-2.66,2.65c-.69.61-1,.92-1.27,1.11-1.47,1.18-2.76,2.22-3.92,2.29-1.91.12-3.4-2.36-5.4-5.69C339,68.53,338.9,66.2,339,65.08c0-.41.1-.8.13-1a18.76,18.76,0,0,1,1.66-5.17,25.42,25.42,0,0,1,5-6.86,15,15,0,0,1,14.85,7.78Z" fill="#ffbd91"/><path d="M348.3,67.39a3.38,3.38,0,0,1-.86-.11,3.85,3.85,0,0,1-2.31-1.8.14.14,0,0,1,.05-.18.13.13,0,0,1,.17,0A3.55,3.55,0,0,0,347.5,67a3.47,3.47,0,0,0,1.89-.08.11.11,0,0,1,.16.08.11.11,0,0,1-.08.15A3.63,3.63,0,0,1,348.3,67.39Z" fill="#22130c"/><path d="M354.15,70h-.07a2.73,2.73,0,0,1-2.16-1.31.14.14,0,0,1,0-.17.13.13,0,0,1,.18,0,2.46,2.46,0,0,0,1.94,1.19h.07a2.8,2.8,0,0,0,1.55-.52.13.13,0,1,1,.14.21A3,3,0,0,1,354.15,70Z" fill="#22130c"/><path d="M347.88,63a6.91,6.91,0,0,0,.83.81,19.65,19.65,0,0,0,2.22,1.37,1.92,1.92,0,0,0,.82-.67,1.71,1.71,0,0,0,.21-.47,4.62,4.62,0,0,1-2.35-1.47,5.67,5.67,0,0,0-1.54-1.35,2,2,0,0,0-.66-.11s-1.11-.43-1.21-.33A6.73,6.73,0,0,0,347.88,63Z" fill="#22130c"/><path d="M357.67,65.94c-.34.66-.59,1.11-.81,1.46a.36.36,0,0,1-.08.09,17.93,17.93,0,0,1-2.59-.61,1.82,1.82,0,0,1-.1-1,1.16,1.16,0,0,1,.17-.47A4.77,4.77,0,0,0,357,66,5.14,5.14,0,0,1,357.67,65.94Z" fill="#22130c"/><path d="M349,71.05a1.65,1.65,0,0,0,1.05.81,1.6,1.6,0,0,0,.94-.1Z" fill="#22130c"/><path d="M350.35,74.58l-.08,0a3.47,3.47,0,0,0-.72-.48,3.12,3.12,0,0,0-.36-.15l-.3-.12a2.41,2.41,0,0,1-.63-.37,1.1,1.1,0,0,0-.36-.19c-.5-.18-.71,0-1.39-.21a2.61,2.61,0,0,1-.54-.24.12.12,0,1,1,.13-.21,2.71,2.71,0,0,0,.49.22c.63.21.83,0,1.39.2a1.5,1.5,0,0,1,.43.23,2.62,2.62,0,0,0,.58.34l.29.11.39.17a4.28,4.28,0,0,1,.77.51.13.13,0,0,1-.09.22Z" fill="#22130c"/><path d="M348.45,75.1l-1.11-.42a.13.13,0,0,1-.07-.16.12.12,0,0,1,.16-.07l1.07.41a.13.13,0,0,1,.07.16A.13.13,0,0,1,348.45,75.1Z" fill="#22130c"/><path d="M364.55,55.11l0,.06c.32.53-1.22,5-3.56,7-3.36,2.86-9.95,1.92-16.43-1.79.09-.55.64-4.19-.3-4.54-.69-.24-2,1.27-2.76,2.63-1,1.94-.93,3.86-1.48,3.9-.23,0-.44-.29-.59-.56.28-8.25,5-14.09,9.61-14.42.39,0,4.45-.27,6.74,2.26,1.41,1.56,1.47,3.42,3.06,3.86,1.41.39,2.74-.69,3.28-.08s-.34,1.71.12,2.13S364.07,54.77,364.55,55.11Z" fill="#fff"/><path d="M371.3,132.46a28.86,28.86,0,0,1,.33-4.53,3,3,0,0,1,1.74-1.08c1.19-.46,1.87-1.54,3.35-3.61a18.47,18.47,0,0,0,2.76-6.2c.58-2.08,1-3.46.4-3.89-1.21-.92-4.53,4.15-8.41,3.46-2.58-.46-4.32-3.27-5.39-5a8.86,8.86,0,0,1-1.71-4.44c-.18-4.78,5.37-7.83,4.43-9.55-.45-.85-2.13-.75-3.23-.68-4.92.3-11.56,3.53-13.22,9.29-.87,3,.36,4-.73,6.5a8.22,8.22,0,0,1-2.84,3.34,18.56,18.56,0,0,0-5.91,2.55l-.07,0a18.41,18.41,0,1,0,25.83,25A18.22,18.22,0,0,0,371.3,132.46Z" fill="#f85f75"/><path d="M365.85,119.16l-5.41-3.34L394.6,61.94l4.26,2.63Z" fill="#22130c"/><path d="M396.63,68.27,392,65.43Q395,57.72,398,50a6.41,6.41,0,0,1,3.26,2c.77.92.86,1.67,1.79,2.14s1.32.07,2.41.36a4.87,4.87,0,0,1,2.48,1.62Z" fill="#e9c40f"/><path d="M369.44,128.66c-1.79,4.59-.4,6-1.65,9.58-2.57,7.31-11.93,11.49-13.74,9.87-1.2-1.06,1.69-3.94.2-7s-5.68-2.25-8.32-6.14a8.78,8.78,0,0,1-1.56-5.56c.4-3.87,3.83-4.39,7.69-9.84,3.37-4.75,3.52-8.23,5-8.17,2.12.09,1.55,6.79,5.83,9.15,4.11,2.27,9.28-1.35,10.33.33C374,122.08,371.27,124,369.44,128.66Z" fill="#fff"/><rect x="344.71" y="136.91" width="10.96" height="3.12" transform="translate(124.98 -163.34) rotate(31.69)" fill="#22130c"/><path d="M393.49,60.24c-.49.8-1.25,1.23-1.69,1s-.39-1.14.1-1.94,1.25-1.22,1.69-.95S394,59.45,393.49,60.24Z" fill="#22130c"/><path d="M394.23,61.32l-1.29-.8a.61.61,0,0,1,.64-1l1.29.8a.61.61,0,1,1-.64,1Z" fill="#22130c"/><path d="M394.8,56c-.49.8-1.24,1.23-1.68,1s-.4-1.14.1-1.94,1.24-1.22,1.68-.95S395.3,55.2,394.8,56Z" fill="#22130c"/><path d="M395.55,57.07l-1.29-.8a.61.61,0,0,1,.64-1l1.29.8a.6.6,0,0,1,.2.84A.63.63,0,0,1,395.55,57.07Z" fill="#22130c"/><path d="M397.07,52.33c-.5.8-1.25,1.22-1.69,1s-.39-1.13.1-1.93,1.25-1.23,1.69-1S397.56,51.53,397.07,52.33Z" fill="#22130c"/><path d="M397.81,53.4l-1.29-.79a.62.62,0,0,1-.2-.85.63.63,0,0,1,.84-.2l1.29.8a.61.61,0,0,1-.64,1Z" fill="#22130c"/><path d="M400.73,64.72c-.49.79-.54,1.66-.1,1.93s1.2-.16,1.69-1,.54-1.67.1-1.94S401.22,63.92,400.73,64.72Z" fill="#22130c"/><path d="M399.44,64.53l1.29.8a.61.61,0,0,0,.64-1l-1.29-.8a.61.61,0,1,0-.64,1Z" fill="#22130c"/><path d="M403.94,61.64c-.49.79-.54,1.66-.1,1.93s1.2-.15,1.69-1,.54-1.67.1-1.94S404.43,60.84,403.94,61.64Z" fill="#22130c"/><path d="M402.65,61.45l1.29.8a.61.61,0,1,0,.64-1l-1.29-.8a.61.61,0,0,0-.64,1Z" fill="#22130c"/><path d="M406.2,58c-.49.8-.53,1.67-.09,1.94s1.19-.16,1.68-1,.54-1.66.1-1.93S406.7,57.17,406.2,58Z" fill="#22130c"/><path d="M404.91,57.79l1.29.8a.62.62,0,1,0,.65-1.05l-1.29-.79a.62.62,0,0,0-.85.2A.63.63,0,0,0,404.91,57.79Z" fill="#22130c"/><path d="M405.44,57.52l-4.39-.6a.13.13,0,0,1,0-.25l4.37.6a.13.13,0,0,1,.11.14A.13.13,0,0,1,405.44,57.52Z" fill="#22130c"/><rect x="357.2" y="118.49" width="8.64" height="3.28" transform="translate(117.03 -172.02) rotate(31.69)" fill="#22130c"/><path d="M360.43,140.19a.76.76,0,1,1-.25-1.05A.76.76,0,0,1,360.43,140.19Z" fill="#22130c"/><path d="M364,137.61a1,1,0,1,1-.32-1.36A1,1,0,0,1,364,137.61Z" fill="#22130c"/><path d="M365.76,132.83a1.22,1.22,0,0,1-2.07-1.28,1.22,1.22,0,1,1,2.07,1.28Z" fill="#22130c"/><rect x="347.66" y="132.31" width="9.28" height="5.17" transform="translate(123.42 -164.98) rotate(31.7)" fill="#e9c40f"/><path d="M348.35,137.54l-.06,0a.12.12,0,0,1,0-.17l47.69-77.24a.12.12,0,1,1,.21.13l-47.69,77.24A.14.14,0,0,1,348.35,137.54Z" fill="#22130c"/><path d="M349.17,138l-.07,0a.13.13,0,0,1,0-.17l47.67-77.2-.6-4.06a.13.13,0,0,1,.11-.14.12.12,0,0,1,.14.11l.61,4.1a.19.19,0,0,1,0,.08l-47.69,77.24A.14.14,0,0,1,349.17,138Z" fill="#22130c"/><path d="M349.94,138.45l-.06,0a.14.14,0,0,1-.05-.18l50.52-81.81L398,52.72a.12.12,0,1,1,.21-.13q1.18,1.89,2.36,3.79a.11.11,0,0,1,0,.13l-50.55,81.88A.17.17,0,0,1,349.94,138.45Z" fill="#22130c"/><path d="M350.65,138.88h-.06a.13.13,0,0,1,0-.18l50.61-82a.12.12,0,0,1,.17,0,.12.12,0,0,1,0,.17l-50.61,82A.13.13,0,0,1,350.65,138.88Z" fill="#22130c"/><path d="M351.44,139.37l-.07,0a.13.13,0,0,1,0-.17L399,61.94a.18.18,0,0,1,.07,0l3.62-1.24a.13.13,0,0,1,.16.07.13.13,0,0,1-.08.16l-3.58,1.23-47.67,77.2A.11.11,0,0,1,351.44,139.37Z" fill="#22130c"/><path d="M352.27,139.88a.1.1,0,0,1-.07,0,.13.13,0,0,1,0-.17l47.69-77.23a.14.14,0,0,1,.18-.05.15.15,0,0,1,0,.18l-47.7,77.23A.11.11,0,0,1,352.27,139.88Z" fill="#22130c"/><path d="M351.8,139.59a.11.11,0,0,1-.12-.09.12.12,0,0,1,.08-.15l9.5-2.68a.12.12,0,0,1,.15.08.13.13,0,0,1-.09.16l-9.49,2.68Z" fill="#22130c"/><path d="M363,137.72c-1.15.55-2.29.56-2.55,0s.47-1.42,1.62-2,2.29-.57,2.55,0S364.18,137.16,363,137.72Z" fill="#22130c"/><path d="M354.65,126.7c-.44,2-.89,3.93-1.33,5.89-4.8-.12-8.73,0-11.46.13-10.2.49-15,1.74-20.78-.38a20.23,20.23,0,0,1-5.09-2.75,8.16,8.16,0,0,1-1.54-4.7,7.94,7.94,0,0,1,1.55-4.66,44,44,0,0,1,9.75.41c9.62,1.51,13.92,5.6,23.74,6.13A38.34,38.34,0,0,0,354.65,126.7Z" fill="#ffbd91"/><path d="M385.59,94.45c-.93-1.27-1.87-2.53-2.8-3.79l.78-3a1.1,1.1,0,0,1-1.8-1.13l7-5.09a8.27,8.27,0,0,1,2.06,5.25A8.8,8.8,0,0,1,385.59,94.45Z" fill="#ffbd91"/><path d="M328,110.43c-.1,0-.14-.1-.11-.17l1.92-5.68a.14.14,0,0,1,.16-.08.13.13,0,0,1,.08.16l-1.93,5.68A.13.13,0,0,1,328,110.43Z" fill="#22130c"/><path d="M355.77,134.46l-7.57-1.92.2-5.85,10.09-3.08q.84,3.61,1.7,7.25Z" fill="#ffbd91"/><path d="M356.15,127.23l-5.82.16,3-3.78c1.08-1.2,2.13-1.72,2.57-1.42s.28,1,.21,1.42Z" fill="#ffbd91"/><path d="M324.58,239.1H298.26a2.74,2.74,0,0,1,.41-1.73,2.85,2.85,0,0,1,1.7-1.05c1.58-.43,6.86-2.65,14.63-6.06,1.55,3.8,2.8,4.75,3.74,4.72,1.2,0,2-1.68,3.24-1.39a2.25,2.25,0,0,1,1.33,1.37,3.48,3.48,0,0,1,1.27,4.14Z" fill="#22130c"/><path d="M324.41,240.23H298.06a.86.86,0,0,1,0-1.72h26.35a.86.86,0,1,1,0,1.72Z" fill="#fff"/><path d="M370,239h26.32a2.71,2.71,0,0,0-.41-1.72,2.88,2.88,0,0,0-1.7-1.06c-1.58-.42-6.86-2.65-14.63-6.06-1.55,3.8-2.8,4.75-3.74,4.72-1.2,0-2-1.68-3.24-1.39a2.27,2.27,0,0,0-1.33,1.38,3.46,3.46,0,0,0-1.34,1.81A3.53,3.53,0,0,0,370,239Z" fill="#22130c"/><path d="M370.16,240.08h26.35a.86.86,0,1,0,0-1.71H370.16a.86.86,0,1,0,0,1.71Z" fill="#fff"/><path d="M315,246.62c-14,0-21.62-1.42-26.38-7.68-5.76-7.58-6.08-20.19-.64-25,3-2.63,6.41-1.82,10-1,3.46.82,7,1.67,10.89-.1,6.18-2.83,7.25-10.53,8.61-20.29,1.44-10.38,3.24-23.3,12.08-34.93A53.59,53.59,0,0,1,341.81,146a.37.37,0,1,1,.42.62,52.48,52.48,0,0,0-12.06,11.47c-8.72,11.46-10.51,24.28-11.94,34.58-1.39,10-2.49,17.86-9,20.86-4.08,1.88-8,1-11.38.15s-6.67-1.58-9.36.79c-5.09,4.49-4.7,16.81.74,24,6.17,8.13,17.67,7.78,42.86,7l4.64-.14c22.17-.65,64.88-1.62,84.67-1.83l4.51-.05c14.8-.14,42.34-.4,42.63-3.45,0-.49-1.06-1.13-2-1.69-1.43-.83-2.92-1.69-2.81-3,.18-2,4.23-2.46,9.84-3,7.3-.75,16.37-1.68,18-6.71,1.73-5.31-5-14.66-13.64-18.88-13.56-6.65-27.61,1.76-29.17,2.74a.37.37,0,1,1-.4-.63c1.59-1,16-9.61,29.9-2.79,8.16,4,16.06,13.52,14,19.79-1.78,5.5-11.13,6.46-18.64,7.23-4.65.48-9.05.93-9.17,2.35-.07.81,1.26,1.58,2.44,2.26s2.48,1.44,2.39,2.41c-.32,3.45-19,3.9-43.36,4.13l-4.51.05c-19.78.21-62.49,1.18-84.66,1.83l-4.63.14C325.5,246.45,319.85,246.62,315,246.62Z" fill="#22130c"/></g></svg>