<svg xmlns="http://www.w3.org/2000/svg" xmlns:xlink="http://www.w3.org/1999/xlink" viewBox="0 0 80 100"><defs><linearGradient id="a" x1="-9.95" y1="-0.04" x2="-8.95" y2="-0.04" gradientTransform="matrix(-11.45, 40.47, 40.47, 11.45, -68.73, 414.23)" gradientUnits="userSpaceOnUse"><stop offset="0" stop-color="#66133b"/><stop offset="0.34" stop-color="#66133b"/><stop offset="1" stop-color="#a11158"/></linearGradient><linearGradient id="b" x1="-9.98" y1="-0.04" x2="-8.98" y2="-0.04" gradientTransform="matrix(16.35, 72.28, 72.28, -16.35, 180.29, 736.91)" gradientUnits="userSpaceOnUse"><stop offset="0" stop-color="#a11158"/><stop offset="0.04" stop-color="#a11158"/><stop offset="0.94" stop-color="#a11158"/><stop offset="0.98" stop-color="#66133b"/><stop offset="1" stop-color="#66133b"/></linearGradient><linearGradient id="c" x1="-10.04" y1="-0.96" x2="-9.04" y2="-0.96" gradientTransform="matrix(0, -39, -39, 0, 8.69, -336.28)" gradientUnits="userSpaceOnUse"><stop offset="0" stop-color="#66133b"/><stop offset="0.06" stop-color="#66133b"/><stop offset="0.55" stop-color="#a11158"/><stop offset="1" stop-color="#a11158"/></linearGradient><linearGradient id="d" x1="-10.05" y1="0.01" x2="-9.05" y2="0.01" gradientTransform="matrix(38.95, -44.37, -44.37, -38.95, 416.72, -381.41)" gradientUnits="userSpaceOnUse"><stop offset="0" stop-color="#66133b"/><stop offset="0.68" stop-color="#66133b"/><stop offset="0.69" stop-color="#a11158"/><stop offset="1" stop-color="#a11158"/></linearGradient><linearGradient id="e" x1="-9.97" y1="0.28" x2="-8.97" y2="0.28" gradientTransform="matrix(0, 60.97, 60.97, 0, 8.69, 627.63)" gradientUnits="userSpaceOnUse"><stop offset="0" stop-color="#a11158"/><stop offset="0.02" stop-color="#a11158"/><stop offset="0.16" stop-color="#fc256d" stop-opacity="0.2"/><stop offset="0.31" stop-color="#fc256d" stop-opacity="0.8"/><stop offset="0.51" stop-color="#fc2cb7" stop-opacity="0.5"/><stop offset="0.74" stop-color="#fc2cb7" stop-opacity="0.5"/><stop offset="0.92" stop-color="#fc256d" stop-opacity="0.5"/><stop offset="0.99" stop-color="#a11158"/><stop offset="1" stop-color="#a11158"/></linearGradient><linearGradient id="f" x1="-9.97" y1="0.34" x2="-8.97" y2="0.34" gradientTransform="matrix(0, 64.17, 64.17, 0, 8.69, 655.49)" gradientUnits="userSpaceOnUse"><stop offset="0" stop-color="#9e145d"/><stop offset="0.01" stop-color="#9e145d"/><stop offset="0.12" stop-color="#9e145d" stop-opacity="0.2"/><stop offset="0.34" stop-color="#9e145d" stop-opacity="0.5"/><stop offset="0.84" stop-color="#9e145d" stop-opacity="0.2"/><stop offset="1" stop-color="#9e145d" stop-opacity="0"/><stop offset="1" stop-color="#9e145d" stop-opacity="0"/></linearGradient><radialGradient id="g" cx="-10.34" cy="0.25" r="1" gradientTransform="translate(126.97 21.15) scale(6.82 6.82)" gradientUnits="userSpaceOnUse"><stop offset="0" stop-color="#fff" stop-opacity="0.85"/><stop offset="0.45" stop-color="#fff" stop-opacity="0.5"/><stop offset="1" stop-color="#fff" stop-opacity="0"/></radialGradient><radialGradient id="h" cx="-10.17" cy="0.51" r="1" gradientTransform="matrix(6.76, 3.09, -2.4, 4.34, 92.62, 42.41)" gradientUnits="userSpaceOnUse"><stop offset="0" stop-color="#fff" stop-opacity="0.85"/><stop offset="0.57" stop-color="#fff" stop-opacity="0.5"/><stop offset="1" stop-color="#fff" stop-opacity="0"/></radialGradient><radialGradient id="i" cx="-10.26" cy="0.19" r="1" gradientTransform="translate(149.59 20.26) scale(8.99 8.99)" gradientUnits="userSpaceOnUse"><stop offset="0" stop-color="#9e145d"/><stop offset="0.54" stop-color="#9e145d" stop-opacity="0.5"/><stop offset="1" stop-color="#9e145d" stop-opacity="0"/></radialGradient><linearGradient id="j" x1="-9.94" y1="0.18" x2="-8.94" y2="0.18" gradientTransform="matrix(-12.49, -9.03, -9.03, 12.49, -79.7, -3.45)" gradientUnits="userSpaceOnUse"><stop offset="0" stop-color="#a11158"/><stop offset="0.12" stop-color="#a11158"/><stop offset="0.22" stop-color="#9e145d" stop-opacity="0"/><stop offset="0.32" stop-color="#9e145d"/><stop offset="0.73" stop-color="#9e145d" stop-opacity="0.5"/><stop offset="0.88" stop-color="#9e145d" stop-opacity="0"/><stop offset="1" stop-color="#9e145d" stop-opacity="0"/></linearGradient><linearGradient id="k" x1="-10.15" y1="-4.28" x2="-9.15" y2="-4.28" gradientTransform="matrix(15.13, 0, 0, -15.13, 190.4, -14.18)" gradientUnits="userSpaceOnUse"><stop offset="0" stop-color="#fff"/><stop offset="0.01" stop-color="#fff"/><stop offset="0.19" stop-color="#9e145d"/><stop offset="0.54" stop-color="#9e145d" stop-opacity="0.5"/><stop offset="1" stop-color="#9e145d" stop-opacity="0"/></linearGradient><radialGradient id="l" cx="-10.16" cy="0.12" r="1" gradientTransform="translate(182.65 51.23) scale(14.36 14.36)" gradientUnits="userSpaceOnUse"><stop offset="0" stop-color="#fff"/><stop offset="0.68" stop-color="#fff" stop-opacity="0.5"/><stop offset="1" stop-color="#fff" stop-opacity="0"/></radialGradient><linearGradient id="m" x1="-10.12" y1="-1.44" x2="-9.12" y2="-1.44" gradientTransform="matrix(19.92, 0, 0, -19.92, 216.67, -14.18)" gradientUnits="userSpaceOnUse"><stop offset="0" stop-color="#a11158"/><stop offset="0.01" stop-color="#a11158"/><stop offset="0.17" stop-color="#9e145d" stop-opacity="0.5"/><stop offset="0.42" stop-color="#9e145d"/><stop offset="0.65" stop-color="#9e145d"/><stop offset="0.85" stop-color="#9e145d" stop-opacity="0.5"/><stop offset="0.97" stop-color="#9e145d" stop-opacity="0"/><stop offset="1" stop-color="#9e145d" stop-opacity="0"/></linearGradient><linearGradient id="n" x1="-9.96" y1="-0.25" x2="-8.96" y2="-0.25" gradientTransform="matrix(5.17, 10.29, 10.29, -5.17, 81.66, 117.67)" gradientUnits="userSpaceOnUse"><stop offset="0" stop-color="#9e145d"/><stop offset="0.18" stop-color="#9e145d" stop-opacity="0.5"/><stop offset="0.48" stop-color="#9e145d" stop-opacity="0"/><stop offset="1" stop-color="#9e145d" stop-opacity="0"/></linearGradient><radialGradient id="o" cx="-9.76" cy="-0.25" r="1" gradientTransform="translate(-70.25 88.57) rotate(180) scale(9.68 6.66)" gradientUnits="userSpaceOnUse"><stop offset="0" stop-color="#fff" stop-opacity="0.85"/><stop offset="0.37" stop-color="#fff" stop-opacity="0.85"/><stop offset="1" stop-color="#fff" stop-opacity="0"/></radialGradient><radialGradient id="p" cx="-9.98" cy="-2.12" r="1" gradientTransform="matrix(0, 107.08, 1.1, 0, 30.69, 1119.18)" gradientUnits="userSpaceOnUse"><stop offset="0" stop-color="#fff" stop-opacity="0.7"/><stop offset="0.94" stop-color="#fff" stop-opacity="0"/><stop offset="1" stop-color="#fff" stop-opacity="0"/></radialGradient><radialGradient id="q" cx="-9.95" cy="-1.68" r="1" gradientTransform="matrix(0, 35.95, 1.39, 0, 30.77, 407.74)" gradientUnits="userSpaceOnUse"><stop offset="0" stop-color="#9e145d" stop-opacity="0.5"/><stop offset="0" stop-color="#9e145d" stop-opacity="0.5"/><stop offset="1" stop-color="#9e145d" stop-opacity="0"/></radialGradient></defs><title>paulina-logo</title><path d="M39.85,87.75c-3.71,0-8.13-.17-10.25-.26l-1.25,0-1.68.06c-2.24.09-6,.24-8.12.24-1.48,0-1.55-.29-1.55-.35s.2-.25.75-.25a15.34,15.34,0,0,0,3-.2c2.11-.42,2.54-3.76,2.91-6.44.5-4.21.48-11.93.48-21.71V41.2c0-15.59,0-18.4-.18-21.6-.17-2.93-.82-6-4.43-6.55a18.11,18.11,0,0,0-2.8-.2c-1,0-1.24-.14-1.24-.25s.4-.35,1.55-.35c3.09,0,6.62.13,9,.22,1.15,0,2,.08,2.35.08.9,0,2.42-.05,4.18-.11,2.54-.08,5.7-.19,8.42-.19a34.37,34.37,0,0,1,13.37,2.28,16.57,16.57,0,0,1,5.2,3.41,15.37,15.37,0,0,1,3.31,4.88A20,20,0,0,1,64.5,31C64.5,43.89,54.17,53.25,40,53.25c-2.74,0-3.15-.22-3.15-.35s.41-.15.65-.15c5.84,0,10.7-1.61,14.07-4.65s5.28-7.72,5.28-13.3a20.41,20.41,0,0,0-5.61-14.64,16.77,16.77,0,0,0-12.67-5H37.45a12.48,12.48,0,0,0-4.34.6c-.63.21-.86.54-.86,1.35V58.8c0,9.78,0,17.5.53,21.71.3,2.95,1,6,3.95,6.44a38.25,38.25,0,0,0,4.51.2c.56,0,.76.13.76.25s-.1.35-2.15.35" fill="#a11158"/><path d="M28.35,83.07a20,20,0,0,1-4.09,3.17C22.13,87.5,20.52,87.5,17,87.5c.09.13.42.3,1.56.3,3,0,9.3-.3,9.8-.3s6.6.3,11.5.3c1.6,0,2-.17,2.16-.3-5,0-7.08-.09-9.31-1.25a16.29,16.29,0,0,1-4.35-3.18" fill="#a11158"/><path d="M28.35,17a15.88,15.88,0,0,1,3.23-2.42c1.53-.88,4.88-.88,7.88-.88,9.64,0,21.09,3.95,21.09,19.09,0,16.66-14.75,20.92-23.8,20.11,0,.3,1.3.4,3.2.4,14.2,0,24.6-9.3,24.6-22.3a18.23,18.23,0,0,0-5-13.1c-1.6-1.5-6.1-5.7-18.6-5.7-4.6,0-10.4.3-12.6.3-6.3-.3-9-.3-11.3-.3-1.14,0-1.56.18-1.6.37,3.73,0,5.87.18,8.27,1.35A19.06,19.06,0,0,1,28.35,17" fill="url(#a)"/><path d="M23.72,13.92c-2.4-1.17-4.54-1.34-8.27-1.35v0c0,.2.4.3,1.3.3a18,18,0,0,1,2.8.2c3.3.5,4.2,3.1,4.4,6.5.2,3.2.2,6,.2,21.6V58.8c0,9.6,0,17.5-.5,21.7-.4,2.9-.9,6-2.9,6.4a15.14,15.14,0,0,1-3,.2c-.7,0-.8.2-.8.3a.19.19,0,0,0,0,.1c3.53,0,5.14,0,7.27-1.26a20,20,0,0,0,4.09-3.17V17a19.06,19.06,0,0,0-4.63-3.08" fill="url(#b)"/><path d="M37.45,52.7c-.3,0-.7,0-.7.2,9,.81,23.8-3.45,23.8-20.11,0-15.14-11.45-19.09-21.09-19.09-3,0-6.35,0-7.88.88l1.57,1.22a16.21,16.21,0,0,1,4.3-.6c2.3,0,8.4-.4,13.7,5a20.63,20.63,0,0,1,5.6,14.6c0,11.5-7.6,17.9-19.3,17.9" fill="url(#c)"/><path d="M28.35,17V83.07a16.29,16.29,0,0,0,4.35,3.18C34.93,87.41,37,87.5,42,87.5a.19.19,0,0,0,0-.1c0-.1-.1-.3-.8-.3a37.84,37.84,0,0,1-4.5-.2c-2.9-.4-3.6-3.5-3.9-6.4-.5-4.2-.5-12.1-.5-21.7V17.1c0-1,0-1,.8-1.3l-1.57-1.22A15.88,15.88,0,0,0,28.35,17" fill="url(#d)"/><path d="M23.94,19.47s0,.09,0,.13c.2,3.2.2,6,.2,21.6V58.8c0,9.6,0,17.5-.5,21.7,0,.17,0,.33-.07.5h4.77V19.47H23.94" fill="url(#e)"/><path d="M32.36,16.61l-1.68-1.47A14.85,14.85,0,0,0,28.35,17V79.6h4.41c-.41-4.37-.41-11.85-.41-20.8V17.1c0-.2,0-.36,0-.49" fill="url(#f)"/><path d="M47.49,14.73l-.83,2.19a16.33,16.33,0,0,1,4.49,3.28,20.19,20.19,0,0,1,5.56,13.07l3.66-3.66c-1.06-8.83-6.59-13.12-12.88-14.88" fill="url(#g)"/><path d="M28.35,17a19.06,19.06,0,0,0-4.63-3.08c-2.4-1.17-4.54-1.34-8.27-1.35v0c0,.2.4.3,1.3.3a18,18,0,0,1,2.8.2c3.3.5,4.2,3.1,4.4,6.5l0,.5h4.37V17" fill="url(#h)"/><path d="M64.55,31a18.23,18.23,0,0,0-5-13.1c-1.18-1.11-4-3.69-10.37-5L48.31,15c6.6,2.1,12.14,7.15,12.24,17.53l4-.09c0-.47,0-.94,0-1.42" fill="url(#i)"/><path d="M41.25,87.1a37.84,37.84,0,0,1-4.5-.2c-2.9-.4-3.6-3.5-3.9-6.4-.15-1.25-.25-2.83-.33-4.68l-4.17,1.42v5.83a16.29,16.29,0,0,0,4.35,3.18C34.93,87.41,37,87.5,42,87.5a.19.19,0,0,0,0-.1c0-.1-.1-.3-.8-.3" fill="url(#j)"/><path d="M37.45,52.7c-.3,0-.7,0-.7.2a25.53,25.53,0,0,0,15.13-3.4l-.48-1.36c-3.36,3-8.15,4.56-13.95,4.56" fill="url(#k)"/><path d="M36.75,52.9c0,.3,1.3.4,3.2.4A28.13,28.13,0,0,0,51.9,50.77l-.56-1A25.64,25.64,0,0,1,36.75,52.9" fill="url(#l)"/><path d="M28.35,12.5c-6.3-.3-9-.3-11.3-.3-1.14,0-1.56.18-1.6.37,3.73,0,5.87.18,8.27,1.35A19.06,19.06,0,0,1,28.35,17a15.88,15.88,0,0,1,3.23-2.42,9,9,0,0,1,3.58-.78V12.31c-2.88.08-5.49.19-6.81.19" fill="url(#m)"/><path d="M32.35,17.1c0-.2,0-.36,0-.49l-1.68-1.47A15.33,15.33,0,0,0,28.35,17V27h4V17.1" fill="url(#n)"/><path d="M28.35,83.07a20,20,0,0,1-4.09,3.17C22.13,87.5,20.52,87.5,17,87.5c.09.13.42.3,1.56.3,3,0,9.3-.3,9.8-.3s6.6.3,11.5.3c1.6,0,2-.17,2.16-.3-5,0-7.08-.09-9.31-1.25a16.29,16.29,0,0,1-4.35-3.18" fill="url(#o)"/><path d="M23.72,13.92c-2.4-1.17-4.54-1.34-8.27-1.35v0c0,.2.4.3,1.3.3a18,18,0,0,1,2.8.2c3.3.5,4.2,3.1,4.4,6.5.2,3.2.2,6,.2,21.6V58.8c0,9.6,0,17.5-.5,21.7-.4,2.9-.9,6-2.9,6.4a15.14,15.14,0,0,1-3,.2c-.7,0-.8.2-.8.3a.19.19,0,0,0,0,.1c3.53,0,5.14,0,7.27-1.26a20,20,0,0,0,4.09-3.17V17a19.06,19.06,0,0,0-4.63-3.08" fill="url(#p)"/><path d="M28.35,17V83.07a16.29,16.29,0,0,0,4.35,3.18C34.93,87.41,37,87.5,42,87.5a.19.19,0,0,0,0-.1c0-.1-.1-.3-.8-.3a37.84,37.84,0,0,1-4.5-.2c-2.9-.4-3.6-3.5-3.9-6.4-.5-4.2-.5-12.1-.5-21.7V17.1c0-1,0-1,.8-1.3l-1.57-1.22A15.88,15.88,0,0,0,28.35,17" fill="url(#q)"/></svg>